<svg width="131" height="112" xmlns="http://www.w3.org/2000/svg" xmlns:xlink="http://www.w3.org/1999/xlink"><use xlink:href="#path0_stroke" transform="translate(112.9 1)" fill="#18A29B"/><use xlink:href="#path1_stroke" transform="translate(1 111.4)" fill="#18A29B"/><use xlink:href="#path2_stroke" transform="translate(19.3 76.7)" fill="#18A29B"/><use xlink:href="#path3_stroke" transform="translate(40.7 63.4)" fill="#18A29B"/><use xlink:href="#path4_stroke" transform="translate(62.3 46.6)" fill="#18A29B"/><use xlink:href="#path5_stroke" transform="translate(83.7 29.1)" fill="#18A29B"/><use xlink:href="#path6_stroke" transform="translate(105.3 10.8)" fill="#18A29B"/><use xlink:href="#path7_stroke" transform="translate(6.3 3.7)" fill="#18A29B"/><defs><path id="path0_stroke" d="M.116-.486a.5.5 0 0 0-.232.972l.232-.972zM10.5 2.5l.486.116a.5.5 0 0 0-.37-.602L10.5 2.5zM7.514 12.884a.5.5 0 0 0 .972.232l-.972-.232zM-.116.486l10.5 2.5.232-.972-10.5-2.5-.232.972zm10.13 1.898l-2.5 10.5.972.232 2.5-10.5-.972-.232z"/><path id="path1_stroke" d="M0-.5a.5.5 0 1 0 0 1v-1zm129.5 1a.5.5 0 0 0 0-1v1zM0 .5h129.5v-1H0v1z"/><path id="path2_stroke" d="M7 0h.5a.5.5 0 0 0-.686-.464L7 0zM0 2.8l-.186-.464A.5.5 0 0 0-.5 2.8H0zm0 31.9h-.5a.5.5 0 0 0 .5.5v-.5zm7 0v.5a.5.5 0 0 0 .5-.5H7zM6.814-.464l-7 2.8.372.928 7-2.8-.372-.928zM-.5 2.8v31.9h1V2.8h-1zM0 35.2h7v-1H0v1zm7.5-.5V0h-1v34.7h1z"/><path id="path3_stroke" d="M7 0h.5a.5.5 0 0 0-.762-.426L7 0zM0 4.3l-.262-.426A.5.5 0 0 0-.5 4.3H0zM0 48h-.5a.5.5 0 0 0 .5.5V48zm7 0v.5a.5.5 0 0 0 .5-.5H7zM6.738-.426l-7 4.3.524.852 7-4.3-.524-.852zM-.5 4.3V48h1V4.3h-1zM0 48.5h7v-1H0v1zm7.5-.5V0h-1v48h1z"/><path id="path4_stroke" d="M7 0h.5a.5.5 0 0 0-.809-.393L7 0zM0 5.5l-.309-.393A.5.5 0 0 0-.5 5.5H0zm0 59.3h-.5a.5.5 0 0 0 .5.5v-.5zm7 0v.5a.5.5 0 0 0 .5-.5H7zM6.691-.393l-7 5.5.618.786 7-5.5-.618-.786zM-.5 5.5v59.3h1V5.5h-1zM0 65.3h7v-1H0v1zm7.5-.5V0h-1v64.8h1z"/><path id="path5_stroke" d="M7 0h.5a.5.5 0 0 0-.816-.388L7 0zM0 5.7l-.316-.388A.5.5 0 0 0-.5 5.7H0zm0 76.6h-.5a.5.5 0 0 0 .5.5v-.5zm7 0v.5a.5.5 0 0 0 .5-.5H7zM6.684-.388l-7 5.7.632.776 7-5.7-.632-.776zM-.5 5.7v76.6h1V5.7h-1zM0 82.8h7v-1H0v1zm7.5-.5V0h-1v82.3h1z"/><path id="path6_stroke" d="M7 0h.5a.5.5 0 0 0-.825-.38L7 0zM0 6l-.325-.38A.5.5 0 0 0-.5 6H0zm0 94.6h-.5a.5.5 0 0 0 .5.5v-.5zm7 0v.5a.5.5 0 0 0 .5-.5H7zM6.675-.38l-7 6 .65.76 7-6-.65-.76zM-.5 6v94.6h1V6h-1zm.5 95.1h7v-1H0v1zm7.5-.5V0h-1v100.6h1z"/><path id="path7_stroke" d="M-.184 80.435a.5.5 0 1 0 .368.93l-.368-.93zM20 73l.184.465a.501.501 0 0 0 .08-.04L20 73zm21.4-13.3l.264.425.043-.03-.307-.395zM63 42.9l.307.395.01-.008L63 42.9zm21.4-17.5l.317.387.006-.005-.323-.382zM106 7.1l-.275-.418a.435.435 0 0 0-.048.037L106 7.1zM117.075.418a.501.501 0 0 0-.55-.836l.55.836zM.184 81.365l20-7.9-.368-.93-20 7.9.368.93zm20.08-7.94l21.4-13.3-.528-.85-21.4 13.3.528.85zm21.443-13.33l21.6-16.8-.614-.79-21.6 16.8.614.79zm21.61-16.808l21.4-17.5-.633-.774-21.4 17.5.633.774zm21.406-17.505l21.6-18.3-.646-.763-21.6 18.3.646.763zm21.552-18.264l10.8-7.1-.55-.836-10.8 7.1.55.836z"/></defs></svg>