<svg width="116" height="105" xmlns="http://www.w3.org/2000/svg" xmlns:xlink="http://www.w3.org/1999/xlink"><use xlink:href="#path0_stroke" transform="translate(23 2)" fill="#18A29B"/><use xlink:href="#path0_stroke" transform="translate(23 61.12)" fill="#18A29B"/><use xlink:href="#path1_stroke" transform="translate(48.4 99)" fill="#18A29B"/><use xlink:href="#path2_stroke" transform="translate(23 10.05)" fill="#18A29B"/><use xlink:href="#path3_stroke" transform="translate(69 69.18)" fill="#18A29B"/><g transform="rotate(44.909 -2.945 73.315)"><use xlink:href="#path4_fill" fill="#FFF"/><use xlink:href="#path5_stroke" fill="#18A29B"/></g><g transform="rotate(44.909 -81.574 40.512)"><use xlink:href="#path6_fill" fill="#FFF"/><use xlink:href="#path7_stroke" fill="#18A29B"/></g><g fill="#18A29B"><use xlink:href="#path8_stroke" transform="translate(85 1)"/><use xlink:href="#path9_stroke" transform="translate(85 13.61)"/><use xlink:href="#path10_stroke" transform="translate(60 13.61)"/><use xlink:href="#path11_stroke" transform="translate(85 26.21)"/><use xlink:href="#path12_stroke" transform="translate(81 16.89)"/><use xlink:href="#path13_stroke" transform="translate(95.5 7.82)"/><use xlink:href="#path14_stroke" transform="translate(95.5 20.39)"/></g><defs><path id="path0_stroke" d="M0 0v-.5a.5.5 0 0 0-.5.5H0zm92.008 0h.5a.5.5 0 0 0-.5-.5V0zm0 8.054v.5a.5.5 0 0 0 .5-.5h-.5zM0 8.054h-.5a.5.5 0 0 0 .5.5v-.5zM0 .5h92.008v-1H0v1zM91.508 0v8.054h1V0h-1zm.5 7.554H0v1h92.008v-1zM.5 8.054V0h-1v8.054h1z"/><path id="path1_stroke" d="M0 0v-.5a.5.5 0 0 0-.5.5H0zm41.145 0h.5a.5.5 0 0 0-.5-.5V0zm0 5.004v.5a.5.5 0 0 0 .5-.5h-.5zM0 5.004h-.5a.5.5 0 0 0 .5.5v-.5zM0 .5h41.145v-1H0v1zM40.645 0v5.004h1V0h-1zm.5 4.504H0v1h41.145v-1zM.5 5.004V0h-1v5.004h1z"/><path id="path2_stroke" d="M0 0v-.5a.5.5 0 0 0-.5.5H0zm92.008 0h.5a.5.5 0 0 0-.5-.5V0zm0 51.069v.5a.5.5 0 0 0 .5-.5h-.5zM0 51.069h-.5a.5.5 0 0 0 .5.5v-.5zM0 .5h92.008v-1H0v1zM91.508 0v51.069h1V0h-1zm.5 50.569H0v1h92.008v-1zm-91.508.5V0h-1v51.069h1z"/><path id="path3_stroke" d="M.5 0a.5.5 0 0 0-1 0h1zm-1 29.819a.5.5 0 0 0 1 0h-1zM-.5 0v29.819h1V0h-1z"/><path id="path4_fill" d="M1.892 0H0v62.993h1.892V0z"/><path id="path5_stroke" d="M0 0v-.5a.5.5 0 0 0-.5.5H0zm1.892 0h.5a.5.5 0 0 0-.5-.5V0zm0 62.993v.5a.5.5 0 0 0 .5-.5h-.5zm-1.892 0h-.5a.5.5 0 0 0 .5.5v-.5zM0 .5h1.892v-1H0v1zM1.392 0v62.993h1V0h-1zm.5 62.493H0v1h1.892v-1zm-1.392.5V0h-1v62.993h1z"/><path id="path6_fill" d="M1.792 0H0v5.377h1.792V0z"/><path id="path7_stroke" d="M0 0v-.5a.5.5 0 0 0-.5.5H0zm1.792 0h.5a.5.5 0 0 0-.5-.5V0zm0 5.377v.5a.5.5 0 0 0 .5-.5h-.5zM0 5.377h-.5a.5.5 0 0 0 .5.5v-.5zM0 .5h1.792v-1H0v1zM1.292 0v5.377h1V0h-1zm.5 4.877H0v1h1.792v-1zm-1.292.5V0h-1v5.377h1z"/><path id="path8_stroke" d="M0 0v-.5a.5.5 0 0 0-.5.5H0zm20.964 0h.5a.5.5 0 0 0-.5-.5V0zm0 6.79v.5a.5.5 0 0 0 .5-.5h-.5zM0 6.79h-.5a.5.5 0 0 0 .5.5v-.5zM0 .5h20.964v-1H0v1zM20.464 0v6.79h1V0h-1zm.5 6.29H0v1h20.964v-1zM.5 6.79V0h-1v6.79h1z"/><path id="path9_stroke" d="M0 0v-.5a.5.5 0 0 0-.5.5H0zm20.964 0h.5a.5.5 0 0 0-.5-.5V0zm0 6.79v.5a.5.5 0 0 0 .5-.5h-.5zM0 6.79h-.5a.5.5 0 0 0 .5.5v-.5zM0 .5h20.964v-1H0v1zM20.464 0v6.79h1V0h-1zm.5 6.29H0v1h20.964v-1zM.5 6.79V0h-1v6.79h1z"/><path id="path10_stroke" d="M0 0v-.5a.5.5 0 0 0-.5.5H0zm20.964 0h.5a.5.5 0 0 0-.5-.5V0zm0 6.79v.5a.5.5 0 0 0 .5-.5h-.5zM0 6.79h-.5a.5.5 0 0 0 .5.5v-.5zM0 .5h20.964v-1H0v1zM20.464 0v6.79h1V0h-1zm.5 6.29H0v1h20.964v-1zM.5 6.79V0h-1v6.79h1z"/><path id="path11_stroke" d="M0 0v-.5a.5.5 0 0 0-.5.5H0zm20.964 0h.5a.5.5 0 0 0-.5-.5V0zm0 6.79v.5a.5.5 0 0 0 .5-.5h-.5zM0 6.79h-.5a.5.5 0 0 0 .5.5v-.5zM0 .5h20.964v-1H0v1zM20.464 0v6.79h1V0h-1zm.5 6.29H0v1h20.964v-1zM.5 6.79V0h-1v6.79h1z"/><path id="path12_stroke" d="M4.07.5a.5.5 0 0 0 0-1v1zM0-.5a.5.5 0 0 0 0 1v-1zm4.07 0H0v1h4.07v-1z"/><path id="path13_stroke" d="M.5 0a.5.5 0 0 0-1 0h1zm-1 5.785a.5.5 0 1 0 1 0h-1zM-.5 0v5.785h1V0h-1z"/><path id="path14_stroke" d="M.5 0a.5.5 0 0 0-1 0h1zm-1 5.815a.5.5 0 0 0 1 0h-1zM-.5 0v5.815h1V0h-1z"/></defs></svg>