<svg width="173" height="104" xmlns="http://www.w3.org/2000/svg" xmlns:xlink="http://www.w3.org/1999/xlink"><use xlink:href="#path0_stroke" transform="translate(1 92.34)" fill="#18A29B"/><use xlink:href="#path1_stroke" transform="translate(1.1 98.58)" fill="#18A29B"/><use xlink:href="#path2_stroke" transform="translate(29.2 80.95)" fill="#18A29B"/><use xlink:href="#path3_stroke" transform="matrix(.70787 -.70633 .70787 .70633 44.3 19.3)" fill="#18A29B"/><use xlink:href="#path4_stroke" transform="translate(59.9 6.33)" fill="#18A29B"/><use xlink:href="#path5_stroke" transform="translate(41 25.23)" fill="#18A29B"/><use xlink:href="#path6_stroke" transform="translate(59.9 25.23)" fill="#18A29B"/><use xlink:href="#path7_stroke" transform="translate(54 27.71)" fill="#18A29B"/><use xlink:href="#path8_stroke" transform="translate(54 1)" fill="#18A29B"/><use xlink:href="#path9_stroke" transform="translate(62.4 19.29)" fill="#18A29B"/><use xlink:href="#path10_stroke" transform="translate(35.7 19.29)" fill="#18A29B"/><use xlink:href="#path11_stroke" transform="translate(41 6.33)" fill="#18A29B"/><use xlink:href="#path12_stroke" transform="translate(60.5 71.2)" fill="#18A29B"/><use xlink:href="#path13_stroke" transform="translate(62.7 75.86)" fill="#18A29B"/><use xlink:href="#path14_stroke" transform="translate(65.3 75.86)" fill="#18A29B"/><g fill="#18A29B"><use xlink:href="#path15_stroke" transform="translate(108.6 75.86)"/><use xlink:href="#path16_stroke" transform="translate(103.8 75.86)"/></g><use xlink:href="#path17_stroke" transform="translate(61.8 66.84)" fill="#18A29B"/><use xlink:href="#path18_stroke" transform="translate(62.2 63.57)" fill="#18A29B"/><use xlink:href="#path19_stroke" transform="translate(61 55.83)" fill="#18A29B"/><use xlink:href="#path20_stroke" transform="translate(76.9 86.86)" fill="#18A29B"/><use xlink:href="#path21_stroke" transform="translate(89.3 48.61)" fill="#18A29B"/><use xlink:href="#path22_stroke" transform="translate(103.6 25.29)" fill="#18A29B"/><use xlink:href="#path23_stroke" transform="translate(72.3 27.01)" fill="#18A29B"/><use xlink:href="#path24_stroke" transform="translate(87.7 27.95)" fill="#18A29B"/><use xlink:href="#path25_stroke" transform="translate(103.8 27.83)" fill="#18A29B"/><defs><path id="path0_stroke" d="M171.499 0a.5.5 0 0 0-1 0h1zm-13.112 0a.5.5 0 0 0-1 0h1zm-13.111 0a.5.5 0 0 0-1 0h1zm-13.112 0a.5.5 0 0 0-1 0h1zm-13.112 0a.5.5 0 0 0-1 0h1zM105.94 0a.5.5 0 0 0-1 0h1zM92.829 0a.5.5 0 0 0-1 0h1zM79.717 0a.5.5 0 1 0-1 0h1zM66.605 0a.5.5 0 0 0-1 0h1zM53.493 0a.5.5 0 1 0-1 0h1zM40.382 0a.5.5 0 0 0-1 0h1zM27.27 0a.5.5 0 1 0-1 0h1zM13.672 0a.5.5 0 0 0-1 0h1zM.5 0a.5.5 0 0 0-1 0h1zm169.999 0c0 1.024-.612 1.992-1.712 2.726-1.099.733-2.638 1.196-4.344 1.196v1c1.876 0 3.614-.507 4.899-1.364 1.282-.856 2.157-2.099 2.157-3.558h-1zm-6.056 3.922c-1.703 0-3.242-.477-4.341-1.217-1.105-.744-1.715-1.713-1.715-2.705h-1c0 1.431.878 2.673 2.156 3.534 1.283.864 3.021 1.388 4.9 1.388v-1zM157.387 0c0 1.024-.612 1.992-1.712 2.726-1.098.733-2.638 1.196-4.344 1.196v1c1.876 0 3.615-.507 4.899-1.364 1.282-.856 2.157-2.099 2.157-3.558h-1zm-6.056 3.922c-1.734 0-3.272-.477-4.363-1.216-1.094-.742-1.692-1.71-1.692-2.706h-1c0 1.427.858 2.67 2.131 3.533 1.277.866 3.017 1.389 4.924 1.389v-1zM144.276 0c0 1.024-.613 1.992-1.713 2.726-1.098.733-2.637 1.196-4.343 1.196v1c1.875 0 3.614-.507 4.898-1.364 1.283-.856 2.158-2.099 2.158-3.558h-1zm-6.056 3.922c-1.735 0-3.273-.477-4.363-1.216-1.094-.742-1.693-1.71-1.693-2.706h-1c0 1.427.858 2.67 2.131 3.533 1.277.866 3.017 1.389 4.925 1.389v-1zM131.164 0c0 1.024-.612 1.992-1.713 2.726-1.098.733-2.637 1.196-4.343 1.196v1c1.875 0 3.614-.507 4.898-1.364 1.283-.856 2.158-2.099 2.158-3.558h-1zm-6.056 3.922c-1.734 0-3.273-.477-4.363-1.216-1.094-.742-1.693-1.71-1.693-2.706h-1c0 1.427.858 2.67 2.132 3.533 1.277.866 3.016 1.389 4.924 1.389v-1zM118.052 0c0 1.024-.612 1.992-1.712 2.726-1.099.733-2.638 1.196-4.344 1.196v1c1.876 0 3.614-.507 4.899-1.364 1.282-.856 2.157-2.099 2.157-3.558h-1zm-6.056 3.922c-1.734 0-3.272-.477-4.363-1.216-1.094-.742-1.693-1.71-1.693-2.706h-1c0 1.427.858 2.67 2.132 3.533 1.277.866 3.016 1.389 4.924 1.389v-1zM104.94 0c0 1.024-.612 1.992-1.712 2.726-1.098.733-2.638 1.196-4.344 1.196v1c1.876 0 3.615-.507 4.899-1.364 1.282-.856 2.157-2.099 2.157-3.558h-1zm-6.056 3.922c-1.734 0-3.272-.477-4.363-1.216C93.427 1.964 92.83.996 92.83 0h-1c0 1.427.858 2.67 2.131 3.533 1.277.866 3.017 1.389 4.924 1.389v-1zM91.83 0c0 1.024-.613 1.992-1.713 2.726-1.098.733-2.637 1.196-4.343 1.196v1c1.875 0 3.614-.507 4.898-1.364C91.954 2.702 92.83 1.459 92.83 0h-1zm-6.056 3.922c-1.735 0-3.273-.477-4.364-1.216C80.316 1.964 79.718.996 79.718 0h-1c0 1.427.858 2.67 2.131 3.533 1.277.866 3.017 1.389 4.925 1.389v-1zM78.717 0c0 1.024-.612 1.992-1.713 2.726-1.098.733-2.637 1.196-4.343 1.196v1c1.875 0 3.614-.507 4.898-1.364 1.283-.856 2.158-2.099 2.158-3.558h-1zM72.66 3.922c-1.703 0-3.242-.477-4.342-1.217C67.215 1.96 66.605.992 66.605 0h-1c0 1.431.877 2.673 2.156 3.534 1.282.864 3.021 1.388 4.9 1.388v-1zM65.605 0c0 1.024-.612 1.992-1.712 2.726-1.099.733-2.638 1.196-4.344 1.196v1c1.876 0 3.614-.507 4.899-1.364C65.73 2.702 66.605 1.459 66.605 0h-1zM59.55 3.922c-1.734 0-3.273-.477-4.363-1.216C54.092 1.964 53.493.996 53.493 0h-1c0 1.427.858 2.67 2.132 3.533 1.277.866 3.016 1.389 4.924 1.389v-1zM52.493 0c0 1.024-.612 1.992-1.712 2.726-1.098.733-2.638 1.196-4.344 1.196v1c1.876 0 3.614-.507 4.899-1.364 1.282-.856 2.157-2.099 2.157-3.558h-1zm-6.056 3.922c-1.702 0-3.241-.477-4.341-1.217C40.992 1.96 40.382.992 40.382 0h-1c0 1.431.877 2.673 2.155 3.534 1.283.864 3.022 1.388 4.9 1.388v-1zM39.382 0c0 1.024-.613 1.992-1.713 2.726-1.098.733-2.637 1.196-4.343 1.196v1c1.875 0 3.614-.507 4.898-1.364 1.283-.856 2.158-2.099 2.158-3.558h-1zm-6.056 3.922c-1.703 0-3.242-.477-4.342-1.217C27.88 1.96 27.27.992 27.27 0h-1c0 1.431.877 2.673 2.155 3.534 1.283.864 3.022 1.388 4.9 1.388v-1zM26.27 0c0 1.024-.612 1.992-1.713 2.726-1.098.733-2.637 1.196-4.343 1.196v1c1.875 0 3.614-.507 4.899-1.364C26.395 2.702 27.27 1.459 27.27 0h-1zm-6.056 3.922c-1.708 0-3.377-.464-4.605-1.208C14.37 1.963 13.672.992 13.672 0h-1c0 1.491 1.035 2.731 2.42 3.57 1.397.846 3.248 1.352 5.122 1.352v-1zM12.673 0c0 1.024-.613 1.992-1.713 2.726-1.098.733-2.637 1.196-4.343 1.196v1c1.875 0 3.614-.507 4.898-1.364 1.282-.856 2.157-2.099 2.157-3.558h-1zM6.616 3.922c-1.707 0-3.262-.463-4.377-1.197C1.123 1.988.5 1.02.5 0h-1c0 1.463.895 2.706 2.19 3.56 1.299.855 3.051 1.362 4.927 1.362v-1z"/><path id="path1_stroke" d="M171.438 0a.5.5 0 0 0-1 0h1zm-13.111 0a.5.5 0 0 0-1 0h1zm-13.112 0a.5.5 0 0 0-1 0h1zm-13.112 0a.5.5 0 0 0-1 0h1zm-13.112 0a.5.5 0 1 0-1 0h1zM105.88 0a.5.5 0 0 0-1 0h1zM92.768 0a.5.5 0 0 0-1 0h1zM79.656 0a.5.5 0 1 0-1 0h1zM66.544 0a.5.5 0 0 0-1 0h1zM53.068 0a.5.5 0 0 0-1 0h1zM39.957 0a.5.5 0 1 0-1 0h1zM26.845 0a.5.5 0 0 0-1 0h1zM13.612 0a.5.5 0 1 0-1 0h1zM.5 0a.5.5 0 1 0-1 0h1zm169.938 0c0 1.024-.612 1.992-1.712 2.726-1.098.733-2.638 1.196-4.344 1.196v1c1.876 0 3.615-.507 4.899-1.364 1.282-.856 2.157-2.099 2.157-3.558h-1zm-6.056 3.922c-1.734 0-3.272-.477-4.363-1.216-1.094-.742-1.692-1.71-1.692-2.706h-1c0 1.427.858 2.67 2.131 3.533 1.277.866 3.017 1.389 4.924 1.389v-1zM157.327 0c0 1.024-.613 1.992-1.713 2.726-1.098.733-2.637 1.196-4.343 1.196v1c1.875 0 3.614-.507 4.898-1.364 1.283-.856 2.158-2.099 2.158-3.558h-1zm-6.056 3.922c-1.735 0-3.273-.477-4.363-1.216-1.094-.742-1.693-1.71-1.693-2.706h-1c0 1.427.858 2.67 2.131 3.533 1.277.866 3.017 1.389 4.925 1.389v-1zM144.215 0c0 1.024-.612 1.992-1.713 2.726-1.098.733-2.637 1.196-4.343 1.196v1c1.875 0 3.614-.507 4.899-1.364 1.282-.856 2.157-2.099 2.157-3.558h-1zm-6.056 3.922c-1.734 0-3.273-.477-4.363-1.216-1.094-.742-1.693-1.71-1.693-2.706h-1c0 1.427.858 2.67 2.132 3.533 1.277.866 3.016 1.389 4.924 1.389v-1zM131.103 0c0 1.024-.612 1.992-1.712 2.726-1.098.733-2.638 1.196-4.344 1.196v1c1.876 0 3.614-.507 4.899-1.364 1.282-.856 2.157-2.099 2.157-3.558h-1zm-6.056 3.922c-1.734 0-3.272-.477-4.363-1.216-1.094-.742-1.693-1.71-1.693-2.706h-1c0 1.427.858 2.67 2.132 3.533 1.277.866 3.016 1.389 4.924 1.389v-1zM117.991 0c0 1.024-.612 1.992-1.712 2.726-1.098.733-2.638 1.196-4.344 1.196v1c1.876 0 3.615-.507 4.899-1.364 1.282-.856 2.157-2.099 2.157-3.558h-1zm-6.056 3.922c-1.734 0-3.272-.477-4.363-1.216-1.093-.742-1.692-1.71-1.692-2.706h-1c0 1.427.858 2.67 2.131 3.533 1.277.866 3.017 1.389 4.924 1.389v-1zM104.88 0c0 1.024-.613 1.992-1.713 2.726-1.098.733-2.637 1.196-4.343 1.196v1c1.875 0 3.614-.507 4.898-1.364 1.283-.856 2.158-2.099 2.158-3.558h-1zm-6.056 3.922c-1.735 0-3.273-.477-4.363-1.216C93.367 1.964 92.768.996 92.768 0h-1c0 1.427.858 2.67 2.131 3.533 1.277.866 3.017 1.389 4.925 1.389v-1zM91.768 0c0 1.024-.612 1.992-1.713 2.726-1.098.733-2.637 1.196-4.343 1.196v1c1.876 0 3.614-.507 4.898-1.364 1.283-.856 2.158-2.099 2.158-3.558h-1zm-6.056 3.922c-1.734 0-3.273-.477-4.363-1.216C80.255 1.964 79.656.996 79.656 0h-1c0 1.427.858 2.67 2.132 3.533 1.277.866 3.016 1.389 4.924 1.389v-1zM78.656 0c0 1.024-.612 1.992-1.712 2.726-1.099.733-2.638 1.196-4.344 1.196v1c1.876 0 3.614-.507 4.899-1.364C78.78 2.702 79.656 1.459 79.656 0h-1zM72.6 3.922c-1.734 0-3.272-.477-4.363-1.216C67.143 1.964 66.544.996 66.544 0h-1c0 1.427.858 2.67 2.132 3.533 1.277.866 3.016 1.389 4.924 1.389v-1zM65.544 0c0 1.024-.612 1.992-1.712 2.726-1.098.733-2.638 1.196-4.343 1.196v1c1.875 0 3.614-.507 4.898-1.364 1.282-.856 2.157-2.099 2.157-3.558h-1zM59.49 3.922c-1.705 0-3.342-.477-4.538-1.226C53.74 1.938 53.068.967 53.068 0h-1c0 1.455.997 2.695 2.352 3.543 1.368.856 3.191 1.379 5.069 1.379v-1zM52.069 0c0 1.024-.613 1.992-1.713 2.726-1.098.733-2.638 1.196-4.343 1.196v1c1.875 0 3.614-.507 4.898-1.364 1.282-.856 2.157-2.099 2.157-3.558h-1zm-6.056 3.922c-1.703 0-3.242-.477-4.342-1.217C40.567 1.96 39.957.992 39.957 0h-1c0 1.431.877 2.673 2.155 3.534 1.283.864 3.022 1.388 4.9 1.388v-1zM38.957 0c0 1.024-.613 1.992-1.713 2.726-1.098.733-2.637 1.196-4.343 1.196v1c1.875 0 3.614-.507 4.898-1.364 1.283-.856 2.158-2.099 2.158-3.558h-1zM32.9 3.922c-1.703 0-3.242-.477-4.342-1.217C27.455 1.96 26.845.992 26.845 0h-1c0 1.431.877 2.673 2.155 3.534 1.283.864 3.022 1.388 4.9 1.388v-1zM25.845 0c0 1.024-.612 1.992-1.712 2.726-1.099.733-2.638 1.196-4.344 1.196v1c1.875 0 3.614-.507 4.898-1.364C25.97 2.702 26.846 1.459 26.846 0h-1zm-6.056 3.922c-1.703 0-3.275-.477-4.407-1.22-1.14-.749-1.77-1.719-1.77-2.702h-1c0 1.44.917 2.68 2.22 3.537 1.312.862 3.079 1.385 4.957 1.385v-1zM12.612 0c0 1.024-.613 1.992-1.713 2.726-1.098.733-2.637 1.196-4.343 1.196v1c1.875 0 3.614-.507 4.898-1.364 1.283-.856 2.158-2.099 2.158-3.558h-1zM6.556 3.922c-1.703 0-3.242-.477-4.342-1.217C1.11 1.96.5.992.5 0h-1c0 1.431.877 2.673 2.156 3.534 1.282.864 3.021 1.388 4.9 1.388v-1z"/><path id="path2_stroke" d="M-.277 14.06a.5.5 0 0 0 .554.833l-.554-.833zm114.608.833a.5.5 0 0 0 .551-.834l-.551.834zm-114.054 0C13.467 6.119 34.122.5 57.303.5v-1C33.986-.5 13.121 5.147-.277 14.06l.554.833zM57.303.5c23.18 0 43.837 5.679 57.028 14.393l.551-.834C101.485 5.21 80.622-.5 57.303-.5v1z"/><path id="path3_stroke" d="M13.204 6.852a6.352 6.352 0 0 1-6.352 6.352v1a7.352 7.352 0 0 0 7.352-7.352h-1zm-6.352 6.352A6.352 6.352 0 0 1 .5 6.852h-1a7.352 7.352 0 0 0 7.352 7.352v-1zM.5 6.852A6.352 6.352 0 0 1 6.852.5v-1A7.352 7.352 0 0 0-.5 6.852h1zM6.852.5a6.352 6.352 0 0 1 6.352 6.352h1A7.352 7.352 0 0 0 6.852-.5v1z"/><path id="path4_stroke" d="M-.353 6.672a.5.5 0 0 0 .706.708l-.706-.708zM7.395.354a.5.5 0 1 0-.707-.708l.707.708zM.353 7.38L7.395.354l-.707-.708-7.041 7.026.706.708z"/><path id="path5_stroke" d="M-.353 6.672a.5.5 0 0 0 .706.708l-.706-.708zM7.395.354a.5.5 0 1 0-.707-.708l.707.708zM.353 7.38L7.395.354l-.707-.708-7.041 7.026.706.708z"/><path id="path6_stroke" d="M.353-.354a.5.5 0 1 0-.706.708l.706-.708zM6.688 7.38a.5.5 0 1 0 .707-.708l-.707.708zM-.353.354L6.688 7.38l.707-.708L.353-.354l-.706.708z"/><path id="path7_stroke" d="M.5 0a.5.5 0 1 0-1 0h1zm-1 9.873a.5.5 0 1 0 1 0h-1zM-.5 0v9.873h1V0h-1z"/><path id="path8_stroke" d="M.5 0a.5.5 0 1 0-1 0h1zm-1 9.873a.5.5 0 1 0 1 0h-1zM-.5 0v9.873h1V0h-1z"/><path id="path9_stroke" d="M9.895.5a.5.5 0 1 0 0-1v1zM0-.5a.5.5 0 1 0 0 1v-1zm9.895 0H0v1h9.895v-1z"/><path id="path10_stroke" d="M9.895.5a.5.5 0 1 0 0-1v1zM0-.5a.5.5 0 1 0 0 1v-1zm9.895 0H0v1h9.895v-1z"/><path id="path11_stroke" d="M.353-.354a.5.5 0 1 0-.706.708l.706-.708zM6.688 7.38a.5.5 0 0 0 .707-.708l-.707.708zM-.353.354L6.688 7.38l.707-.708L.353-.354l-.706.708z"/><path id="path12_stroke" d="M0 0v-.5a.5.5 0 0 0-.5.5H0zm52.386 0h.5a.5.5 0 0 0-.5-.5V0zm0 4.603v.5a.5.5 0 0 0 .5-.5h-.5zM0 4.603h-.5a.5.5 0 0 0 .5.5v-.5zM0 .5h52.386v-1H0v1zM51.886 0v4.603h1V0h-1zm.5 4.103H0v1h52.386v-1zM.5 4.603V0h-1v4.603h1z"/><path id="path13_stroke" d="M2.604.142a.5.5 0 1 0-.959-.284l.959.284zM-.48 7.005a.5.5 0 0 0 .958.285l-.958-.285zM1.645-.142L-.479 7.005l.958.285L2.604.142l-.959-.284z"/><path id="path14_stroke" d="M4.67.269a.5.5 0 1 0-.842-.538L4.67.27zM-.421 6.394a.5.5 0 0 0 .844.538l-.844-.538zM3.828-.27l-4.25 6.663.844.538L4.67.269 3.828-.27z"/><path id="path15_stroke" d="M.478-.146a.5.5 0 0 0-.956.292l.956-.292zm1.23 7.44A.5.5 0 0 0 2.662 7l-.956.292zM-.479.145l2.185 7.147L2.662 7 .478-.146l-.956.292z"/><path id="path16_stroke" d="M.422-.269A.5.5 0 1 0-.422.27l.844-.54zm3.406 7.2a.5.5 0 1 0 .843-.537l-.843.538zM-.422.27l4.25 6.663.843-.538L.42-.27l-.841.54z"/><path id="path17_stroke" d="M-.379 4.034a.5.5 0 0 0 .758.654l-.758-.654zM4.142.327a.5.5 0 0 0-.757-.654l.757.654zM.38 4.687L4.142.328l-.757-.654-3.764 4.361.758.654z"/><path id="path18_stroke" d="M.349-.358a.5.5 0 1 0-.698.716l.698-.716zM7.482 7.99a.5.5 0 0 0 .698-.716l-.698.716zM-.35.358L7.48 7.99l.699-.716L.349-.358l-.698.716z"/><path id="path19_stroke" d="M10.691 13.25l-.354.354a.5.5 0 0 0 .354.147v-.5zm1.457-3.573l-.352.355a.5.5 0 0 0 .352.145v-.5zM2.861.47l-.353.354v.002L2.862.47zM.493.531L.14.177a.5.5 0 0 0-.015.016L.493.53zm.061 2.544l.354-.353v-.001l-.354.354zm10.138 10.676h35.571v-1H10.691v1zm35.571 0a2.26 2.26 0 0 0 2.26-2.257h-1a1.26 1.26 0 0 1-1.26 1.257v1zm2.26-2.257a2.286 2.286 0 0 0-2.32-2.317v1c.756 0 1.32.565 1.32 1.317h1zm-2.32-2.317H12.148v1h34.055v-1zM12.5 9.322L3.213.115l-.704.71 9.287 9.207.704-.71zM3.214.117C2.328-.768.979-.66.14.177l.707.708c.496-.496 1.211-.509 1.66-.06l.707-.708zM.125.193a2.308 2.308 0 0 0 .076 3.236l.706-.708A1.308 1.308 0 0 1 .862.869L.125.193zM.2 3.428l10.137 10.176.709-.706L.908 2.722.2 3.428z"/><path id="path20_stroke" d="M-.234 1.645a.5.5 0 0 0 .468.884l-.468-.884zM21.45 3.263a.5.5 0 0 0 .441-.898l-.44.898zM0 2.087l.234.442.004-.002a2.759 2.759 0 0 1 .094-.047 9.18 9.18 0 0 1 .313-.146 16.44 16.44 0 0 1 1.227-.488A23.362 23.362 0 0 1 6.421.742c3.843-.541 9.156-.365 15.03 2.52l.44-.897C15.806-.625 10.284-.812 6.281-.248c-2 .282-3.62.751-4.744 1.151-.562.2-1 .384-1.3.518a11.05 11.05 0 0 0-.46.219l-.008.004h-.002v.001L0 2.087z"/><path id="path21_stroke" d="M-.486 38.284a.5.5 0 0 0 .972.235l-.972-.235zM9.774.118a.5.5 0 0 0-.972-.236l.971.236zM.485 38.519L9.773.118l-.971-.236-9.288 38.402.972.235z"/><path id="path22_stroke" d="M-.486 2.428a.5.5 0 1 0 .972.232l-.972-.232zM1.094.116A.5.5 0 1 0 .12-.116l.972.232zM.485 2.66L1.093.116.121-.116l-.607 2.544.972.232z"/><path id="path23_stroke" d="M52.508 28.022l-.124.484a.5.5 0 0 0 .624-.494l-.5.01zM15.6 18.634l.123-.485h-.001l-.122.485zM0 14.696l-.427-.26a.5.5 0 0 0 .305.745L0 14.696zM31.444.886l-.126.484.126-.484zM52.63 27.537L15.724 18.15l-.247.97 36.907 9.387.247-.969zM15.723 18.15l-15.6-3.937-.245.97 15.6 3.936.245-.97zM0 14.696l.426.261.002-.002a1.269 1.269 0 0 1 .029-.046c.02-.034.053-.084.097-.151.087-.133.218-.33.393-.58a33.23 33.23 0 0 1 1.56-2.046c1.38-1.675 3.423-3.855 6.074-5.873 5.3-4.036 13.006-7.413 22.737-4.889l.252-.968c-10.118-2.624-18.135.904-23.595 5.061-2.728 2.077-4.825 4.315-6.24 6.034-.707.86-1.245 1.59-1.608 2.108a22.495 22.495 0 0 0-.55.826l-.003.003v.001l.426.261zM31.319 1.371c10.134 2.617 15.297 9.267 17.939 15.283a34.357 34.357 0 0 1 2.368 7.961c.178 1.049.274 1.908.325 2.502a19.765 19.765 0 0 1 .055.86l.002.043v.01a.02.02 0 0 1 0 .002l.5-.01.5-.01v-.019a8.519 8.519 0 0 0-.01-.243c-.01-.166-.024-.409-.05-.718a31.552 31.552 0 0 0-.336-2.584 35.36 35.36 0 0 0-2.439-8.196c-2.73-6.219-8.1-13.137-18.604-15.85l-.25.969z"/><path id="path24_stroke" d="M-.471 17.524a.5.5 0 0 0 .942.333l-.942-.333zM6.677 5.698l.379.326.002-.002-.38-.324zM16.044.502a.5.5 0 0 0 .085-.996l-.085.996zM0 17.691l.471.166.002-.004a8.415 8.415 0 0 1 .026-.073l.087-.232c.076-.203.19-.5.34-.87.3-.744.744-1.784 1.315-2.973 1.146-2.383 2.793-5.337 4.815-7.68l-.757-.654C4.193 7.812 2.5 10.855 1.34 13.272A52.642 52.642 0 0 0 0 16.302a40.26 40.26 0 0 0-.463 1.199l-.006.016a.179.179 0 0 1-.002.005v.001l.471.168zM7.058 6.022c2.53-2.971 4.817-4.343 6.44-4.977a8.072 8.072 0 0 1 1.906-.507 4.54 4.54 0 0 1 .615-.037.973.973 0 0 1 .027.002h-.001l.041-.499.042-.498a.185.185 0 0 0-.008 0 1.105 1.105 0 0 0-.065-.004 5.533 5.533 0 0 0-.777.044 9.067 9.067 0 0 0-2.143.568c-1.79.699-4.21 2.174-6.838 5.26l.76.648z"/><path id="path25_stroke" d="M5.091 23.177a.5.5 0 0 0 .987.164l-.987-.164zm.372-13.789l.488-.11-.488.11zM.202-.457a.5.5 0 0 0-.404.914l.404-.914zm5.383 23.716l.493.081v-.001l.001-.005.003-.018a13.041 13.041 0 0 0 .05-.328 51.973 51.973 0 0 0 .415-4.32c.145-2.715.117-6.235-.596-9.39l-.975.22c.683 3.024.715 6.439.572 9.116a50.97 50.97 0 0 1-.282 3.287 39.02 39.02 0 0 1-.171 1.256l-.003.016v.004l.493.082zM5.95 9.278c-.896-3.945-2.294-6.366-3.495-7.81A8.863 8.863 0 0 0 .902-.028a5.24 5.24 0 0 0-.635-.4 1.869 1.869 0 0 0-.064-.03L0 0l-.203.457a.43.43 0 0 0-.002 0h.002l.02.01A4.247 4.247 0 0 1 .31.78c.343.251.831.67 1.377 1.326C2.777 3.418 4.111 5.691 4.976 9.5l.975-.221z"/></defs></svg>