<svg width="39" height="48" xmlns="http://www.w3.org/2000/svg" xmlns:xlink="http://www.w3.org/1999/xlink"><use xlink:href="#path0_fill" transform="translate(10.4 20)" fill="#00998F"/><use xlink:href="#path1_fill" transform="translate(10.4 13.6)" fill="#00998F"/><use xlink:href="#path2_fill" transform="translate(10.4 26.4)" fill="#00998F"/><use xlink:href="#path3_fill" transform="translate(10.4 32.8)" fill="#00998F"/><use xlink:href="#path4_fill" transform="translate(10.4 39.2)" fill="#00998F"/><use xlink:href="#path5_fill" fill="#00998F"/><defs><path id="path0_fill" d="M20.8 0H.8C.4 0 0 .4 0 .8s.4.8.8.8h20c.4 0 .8-.4.8-.8s-.4-.8-.8-.8z"/><path id="path1_fill" d="M.8 1.6h8c.4 0 .8-.4.8-.8S9.2 0 8.8 0h-8C.4 0 0 .4 0 .8s.4.8.8.8z"/><path id="path2_fill" d="M20.8 0H.8C.4 0 0 .4 0 .8s.4.8.8.8h20c.4 0 .8-.4.8-.8s-.4-.8-.8-.8z"/><path id="path3_fill" d="M20.8 0H.8C.4 0 0 .4 0 .8s.4.8.8.8h20c.4 0 .8-.4.8-.8s-.4-.8-.8-.8z"/><path id="path4_fill" d="M20.8 0H.8C.4 0 0 .4 0 .8s.4.8.8.8h20c.4 0 .8-.4.8-.8s-.4-.8-.8-.8z"/><path id="path5_fill" d="M34.4 11.7V0H0v44h4v4h34.4V15.7l-4-4zm-7.2-5l8.5 8.5h-8.5V6.7zM1.6 42.4V1.6h31.2v8.5L26.7 4H4v38.4H1.6zm4 4V5.6h20v11.2h11.2v29.6H5.6z"/></defs></svg>