<svg width="387" height="113" xmlns="http://www.w3.org/2000/svg" xmlns:xlink="http://www.w3.org/1999/xlink"><use xlink:href="#path0_stroke" transform="matrix(.70714 -.70706 .70714 .70706 160.2 60.512)" fill="#0D918B"/><use xlink:href="#path1_stroke" transform="translate(204.2 24.007)" fill="#0D918B"/><use xlink:href="#path2_stroke" transform="translate(151 77.212)" fill="#0D918B"/><use xlink:href="#path3_stroke" transform="translate(204.2 77.212)" fill="#0D918B"/><use xlink:href="#path4_stroke" transform="translate(187.5 84.204)" fill="#0D918B"/><use xlink:href="#path5_stroke" transform="translate(187.5 9)" fill="#0D918B"/><use xlink:href="#path6_stroke" transform="translate(211.2 60.5)" fill="#0D918B"/><use xlink:href="#path7_stroke" transform="translate(136 60.5)" fill="#0D918B"/><use xlink:href="#path8_stroke" transform="translate(151 24.007)" fill="#0D918B"/><use xlink:href="#path9_stroke" transform="matrix(-1 0 0 1 98 20)" fill="#0D918B"/><use xlink:href="#path10_stroke" transform="matrix(-1 0 0 1 295 1)" fill="#0D918B"/><use xlink:href="#path11_stroke" transform="matrix(-1 0 0 1 332.6 60)" fill="#0D918B"/><use xlink:href="#path12_stroke" transform="matrix(-1 0 0 1 386 31)" fill="#0D918B"/><use xlink:href="#path13_stroke" transform="translate(53 75)" fill="#0D918B"/><use xlink:href="#path13_stroke" transform="translate(1 98)" fill="#0D918B"/><defs><path id="path0_stroke" d="M37.542 19.271c0 10.09-8.18 18.27-18.271 18.27v2c11.195 0 20.27-9.075 20.27-20.27h-2zM19.27 37.541C9.181 37.542 1 29.362 1 19.272h-2c0 11.195 9.076 20.27 20.271 20.27v-2zM1 19.272C1 9.181 9.18 1 19.271 1v-2C8.076-1-1 8.076-1 19.271h2zM19.271 1c10.09 0 18.27 8.18 18.27 18.271h2C39.542 8.076 30.467-1 19.272-1v2z"/><path id="path1_stroke" d="M-.707 19.074A1 1 0 1 0 .707 20.49l-1.414-1.415zM20.49.707a1 1 0 0 0-1.414-1.414L20.49.707zM.707 20.49L20.491.707 19.077-.707-.707 19.074.707 20.49z"/><path id="path2_stroke" d="M-.707 19.074A1 1 0 1 0 .707 20.49l-1.414-1.415zM20.49.707a1 1 0 0 0-1.414-1.414L20.49.707zM.707 20.49L20.491.707 19.077-.707-.707 19.074.707 20.49z"/><path id="path3_stroke" d="M.707-.707A1 1 0 1 0-.707.707L.707-.707zm18.37 21.196a1 1 0 1 0 1.414-1.415l-1.414 1.415zM-.707.707L19.077 20.49l1.414-1.415L.707-.707-.707.707z"/><path id="path4_stroke" d="M1 0a1 1 0 1 0-2 0h2zm-2 27.796a1 1 0 1 0 2 0h-2zM-1 0v27.796h2V0h-2z"/><path id="path5_stroke" d="M1 0a1 1 0 1 0-2 0h2zm-2 27.796a1 1 0 1 0 2 0h-2zM-1 0v27.796h2V0h-2z"/><path id="path6_stroke" d="M27.8 1a1 1 0 1 0 0-2v2zM0-1a1 1 0 1 0 0 2v-2zm27.8 0H0v2h27.8v-2z"/><path id="path7_stroke" d="M27.8 1a1 1 0 1 0 0-2v2zM0-1a1 1 0 1 0 0 2v-2zm27.8 0H0v2h27.8v-2z"/><path id="path8_stroke" d="M.707-.707A1 1 0 0 0-.707.707L.707-.707zm18.37 21.196a1 1 0 1 0 1.414-1.415l-1.414 1.415zM-.707.707L19.077 20.49l1.414-1.415L.707-.707-.707.707z"/><path id="path9_stroke" d="M31.068 11.583h-1v1.619l1.447-.725-.447-.894zM9.822 6.993l-.287.958.882.265.336-.857-.93-.366zM0 14.351h-1v.017l1-.017zm38.998 2.185l-1-.023v.023h1zM33.542 10a6.622 6.622 0 0 0-2.922.689l.895 1.788A4.622 4.622 0 0 1 33.542 12v-2zm-1.474 1.583V11h-2v.582h2zm0-.583c0-6.597-5.394-12-11.987-12v2c5.486 0 9.987 4.505 9.987 10h2zM20.08-1C15-1 10.637 2.179 8.891 6.628l1.862.73C12.21 3.649 15.85 1 20.081 1v-2zm-9.97 7.036c-.846-.255-1.676-.334-2.47-.334v2c.66 0 1.286.066 1.895.25l.575-1.916zm-2.47-.334C2.866 5.702-1 9.575-1 14.351h2a6.643 6.643 0 0 1 6.64-6.649v-2zM-1 14.368C-.918 19.128 2.936 23 7.712 23v-2C4.05 21 1.063 18.025 1 14.334l-2 .034zM7.712 23h25.83v-2H7.712v2zm25.83 0c3.617 0 6.456-2.934 6.456-6.464h-2A4.453 4.453 0 0 1 33.542 21v2zm6.456-6.44c.087-3.634-2.852-6.56-6.456-6.56v2c2.507 0 4.516 2.027 4.457 4.513l2 .047z"/><path id="path10_stroke" d="M30.271 11.056h-1v1.605l1.44-.707-.44-.898zm-20.7-4.38l-.283.959.873.257.338-.845-.928-.371zM0 13.698h-1v.019l1-.018zm37.998 2.086l-1-.024v.024h1zM32.682 9.5a6.57 6.57 0 0 0-2.851.659l.88 1.795a4.571 4.571 0 0 1 1.97-.454v-2zm-1.41 1.556V10.5h-2v.556h2zm0-.556c0-6.342-5.287-11.5-11.706-11.5v2c5.35 0 9.705 4.299 9.705 9.5h2zM19.565-1c-4.95 0-9.214 3.034-10.924 7.304l1.857.743C11.909 3.53 15.442 1 19.566 1v-2zM9.853 5.716c-.826-.243-1.635-.319-2.41-.319v2c.645 0 1.253.064 1.845.238l.565-1.919zm-2.41-.319C2.799 5.397-1 9.095-1 13.7h2c0-3.463 2.866-6.302 6.444-6.302v-2zM-1 13.717C-.92 18.301 2.865 22 7.515 22v-2C3.94 20 1.06 17.161 1 13.681l-2 .035zM7.515 22H32.68v-2H7.515v2zm25.166 0C36.202 22 39 19.198 39 15.785h-2C37 18.074 35.117 20 32.682 20v2zm6.317-6.191c.086-3.515-2.81-6.309-6.316-6.309v2c2.448 0 4.373 1.934 4.317 4.26l2 .049z"/><path id="path11_stroke" d="M42.7 15.9h-1v1.618l1.447-.724-.447-.894zM13.5 9.6l-.287.958.881.264.337-.856L13.5 9.6zM0 19.7h-1v.017l1-.017zm53.6 3l-1-.024v.024h1zm-7.5-8.6c-1.36 0-2.712.338-3.847.906l.894 1.788A6.736 6.736 0 0 1 46.1 16.1v-2zm-2.4 1.8v-.8h-2v.8h2zm0-.8C43.7 6.248 36.452-1 27.6-1v2c7.748 0 14.1 6.352 14.1 14.1h2zM27.6-1C20.775-1 14.915 3.264 12.57 9.234l1.86.732C16.486 4.736 21.626 1 27.6 1v-2zM13.787 8.642C12.67 8.307 11.567 8.2 10.5 8.2v2c.934 0 1.831.094 2.713.358l.574-1.916zM10.5 8.2C4.148 8.2-1 13.348-1 19.7h2c0-5.248 4.252-9.5 9.5-9.5v-2zM-1 19.717C-.89 26.053 4.244 31.2 10.6 31.2v-2c-5.244 0-9.51-4.253-9.6-9.517l-2 .034zM10.6 31.2h35.5v-2H10.6v2zm35.5 0c4.761 0 8.5-3.856 8.5-8.5h-2a6.49 6.49 0 0 1-6.5 6.5v2zm8.5-8.476c.113-4.776-3.752-8.624-8.5-8.624v2c3.652 0 6.587 2.952 6.5 6.576l2 .048z"/><path id="path12_stroke" d="M27.085 10.003h-1v1.613l1.444-.717-.444-.896zM8.563 6.04l-.285.958.878.261.337-.851-.93-.368zM0 12.394h-1v.017l1-.017zm33.999 1.887l-1-.024v.024h1zM29.24 8.5a5.94 5.94 0 0 0-2.6.607l.888 1.792a3.94 3.94 0 0 1 1.712-.399v-2zm-1.156 1.503V9.5h-2v.503h2zm0-.503c0-5.782-4.769-10.5-10.578-10.5v2c4.72 0 8.578 3.838 8.578 8.5h2zM17.507-1c-4.48 0-8.33 2.776-9.874 6.671l1.86.737C10.74 3.258 13.867 1 17.507 1v-2zM8.848 5.081a7.593 7.593 0 0 0-2.188-.293v2c.569 0 1.102.057 1.618.21l.57-1.917zM6.66 4.788C2.437 4.788-1 8.185-1 12.394h2c0-3.089 2.526-5.606 5.66-5.606v-2zM-1 12.411C-.927 16.603 2.497 20 6.724 20v-2A5.728 5.728 0 0 1 1 12.377l-2 .034zM6.724 20H29.24v-2H6.724v2zm22.517 0C32.46 20 35 17.412 35 14.281h-2C33 16.31 31.353 18 29.242 18v2zm5.757-5.694c.078-3.226-2.553-5.806-5.757-5.806v2c2.125 0 3.807 1.698 3.758 3.758l2 .048z"/><path id="path13_stroke" d="M.37 4.958a1 1 0 1 0-.74 1.858l.74-1.858zM8.46 13l-.808.589.963 1.323.738-1.462L8.46 13zM27.088.996a1 1 0 1 0-.176-1.992l.176 1.992zM-.37 6.816c2.12.844 4.12 2.508 5.623 4.022a29.083 29.083 0 0 1 2.241 2.543 14.876 14.876 0 0 1 .157.206v.002L8.46 13l.808-.589-.001-.002a.32.32 0 0 0-.003-.004l-.01-.014a10.867 10.867 0 0 0-.176-.232 31.087 31.087 0 0 0-2.406-2.73C5.1 7.845 2.87 5.953.37 4.958l-.74 1.858zM8.46 13l.893.45v.001l.001-.004.01-.02.047-.087a22.94 22.94 0 0 1 1.013-1.66 28.222 28.222 0 0 1 3.316-4.064c2.965-3.008 7.392-6.096 13.348-6.62l-.176-1.992c-6.584.58-11.427 3.992-14.597 7.208a30.228 30.228 0 0 0-3.552 4.356 24.97 24.97 0 0 0-.887 1.42 16.101 16.101 0 0 0-.285.516l-.017.031a1.615 1.615 0 0 0-.006.013c0 .001 0 .002.892.452z"/></defs></svg>