<svg height="640" viewBox="-12 0 480 480" width="640" xmlns="http://www.w3.org/2000/svg"><path d="M114.344 117.656a8 8 0 0 0 11.312-11.312l-48-48a8 8 0 0 0-11.312 11.312zM72 248a8 8 0 0 0 0-16H8a8 8 0 0 0 0 16zm42.344 114.344l-48 48a8 8 0 1 0 11.312 11.312l48-48a8 8 0 0 0-11.312-11.312zM232 374.977V105.023C163.57 113.098 112.012 171.098 112.012 240S163.57 366.902 232 374.977zm200-68.383a109.649 109.649 0 0 1-37.406 5.957c-61.352-.703-110.559-50.93-110-112.278a116.787 116.787 0 0 1 51.558-95.632c-6.543-.52-13.129-.641-19.297-.641A129.918 129.918 0 0 0 248 123.777v232.446a130.039 130.039 0 0 0 102.812 15.316A130.067 130.067 0 0 0 432 306.625zm23.398-128.371l-17.773-2.72a7.99 7.99 0 0 1-6.031-4.503L424 154.832 416.406 171a7.99 7.99 0 0 1-6.031 4.504l-17.773 2.719 13.125 13.457a7.988 7.988 0 0 1 2.168 6.87l-3.016 18.481 15.258-8.43a7.99 7.99 0 0 1 7.726 0l15.258 8.43-3.016-18.48a7.988 7.988 0 0 1 2.168-6.871zM240 480a8 8 0 0 0 8-8v-80a154.198 154.198 0 0 1-16-.855V472a8 8 0 0 0 8 8zm8-472a8 8 0 0 0-16 0v80.855A154.198 154.198 0 0 1 248 88zm0 0"/></svg>