<svg width="55" height="60" xmlns="http://www.w3.org/2000/svg" xmlns:xlink="http://www.w3.org/1999/xlink"><use xlink:href="#path0_fill"/><defs><path id="path0_fill" d="M39.548 48.522l-4.19-2.087-4.191 2.087c-1.048.522-2.096-.261-1.834-1.305l.786-4.695-3.405-3.392c-.785-.782-.523-2.087.786-2.347 0 0 4.714-.783 4.714-.522l2.096-4.174c.523-1.044 1.833-1.044 2.357 0l2.095 4.174 4.714.782c1.31.261 1.572 1.305.786 2.348 0 0-3.405 3.392-3.405 3.13l.786 4.696c0 1.044-1.048 1.827-2.095 1.305zm10.214-8.087c0-7.826-6.548-14.348-14.405-14.348-7.857 0-14.405 6.522-14.405 14.348 0 7.826 6.548 14.348 14.405 14.348 7.857 0 14.405-6.522 14.405-14.348zM5.238 5.217v41.74h11.524c-.524-2.087-1.048-4.174-1.048-6.522 0-7.305 3.929-13.565 9.953-16.957h-4.715c-1.571 0-2.619-1.043-2.619-2.608V5.217H5.238zm31.429 13.044L23.57 5.217v13.044h13.096zm5.238-.783v4.435C49.5 24.522 55 31.826 55 40.435 55 51.13 46.095 60 35.357 60c-6.547 0-12.047-3.13-15.714-7.826H5.238C2.358 52.174 0 49.826 0 46.956V5.218C0 2.347 2.357 0 5.238 0h19.12c.785 0 1.832.522 2.356 1.043L41.12 15.391c.262.261.786 1.305.786 2.087z"/></defs></svg>