<svg width="38" height="48" xmlns="http://www.w3.org/2000/svg" xmlns:xlink="http://www.w3.org/1999/xlink"><use xlink:href="#path0_fill" fill="#FFF"/><defs><path id="path0_fill" d="M7.125 28.8c0-1.44 1.188-2.4 2.375-2.4H19c1.425 0 2.375.96 2.375 2.4S20.187 31.2 19 31.2H9.5c-1.425 0-2.375-.96-2.375-2.4zm0 7.2c0-1.44.95-2.4 2.375-2.4h19c1.188 0 2.375.96 2.375 2.4s-.95 2.4-2.375 2.4h-19c-1.425 0-2.375-.96-2.375-2.4zM4.75 0h17.337c.713 0 1.663.48 2.138.96l13.063 13.2c.237.24.712 1.2.712 1.92V43.2c0 2.64-2.138 4.8-4.75 4.8H4.75C2.138 48 0 45.84 0 43.2V4.8C0 2.16 2.138 0 4.75 0zm16.625 16.8H33.25l-11.875-12v12zm-4.75-12H4.75v38.4h28.5V21.6H19c-1.425 0-2.375-.96-2.375-2.4V4.8z"/></defs></svg>