<svg xmlns="http://www.w3.org/2000/svg" width="570" height="728" viewBox="0 0 570 728.192" shape-rendering="geometricPrecision" text-rendering="geometricPrecision" image-rendering="optimizeQuality" fill-rule="evenodd" clip-rule="evenodd"><defs><style>.fil0{fill:#fff}</style></defs><g id="Слой_x0020_1"><g id="_665042328"><path class="fil0" d="M203.902 202.053l-121.546.573L203.116 80.75l.786 121.303zM222.73 0h27.143c2.659.103 5.548.174 8.713.18C362.521.394 466.535 0 570 0l-.517 651.171h-45.546l-.044-605.159H249.399l2.001 203.253-203.536-.199-.518 402.105H1.334C-.128 553.423.706 455.536.837 357.752c.03-21.822-3.179-131.859 2.777-143.601C6.474 208.512 142.84 74.096 159.601 57.24c12.516-12.587 27.363-26.117 39.123-38.957C209.461 6.559 215.789 1.755 222.73 0z"/><path class="fil0" d="M199.386 572.151H92.358l192.715 156.041h.865L479.46 572.151H372.432l-.164-108.239c-49.876-2.428-120.867-.816-172.882-.79v109.029z"/></g></g></svg>