<svg width="1440" height="540" xmlns="http://www.w3.org/2000/svg" xmlns:xlink="http://www.w3.org/1999/xlink"><use xlink:href="#path0_fill" transform="translate(-293 -121)" fill="#0BACA2"/><defs><path id="path0_fill" d="M2108 660.092c-9.9 3.1-11-3.9-21.4-3.9-10.4 0-10.4 4-20.8 4s-10.4-4-20.8-4-10.4 4-20.8 4-10.4-4-20.8-4-10.4 4-20.8 4-10.4-4-20.8-4-10.4 4-20.8 4-10.4-4-20.8-4-10.4 4-20.8 4-10.4-4-20.8-4-10.4 4-20.8 4-10.4-4-20.8-4-10.4 4-20.8 4-10.4-4-20.8-4-10.4 4-20.8 4-10.4-4-20.8-4-10.4 4-20.8 4-10.4-4-20.8-4-10.4 4-20.8 4-10.4-4-20.8-4-10.4 4-20.8 4-10.4-4-20.8-4-10.4 4-20.8 4-10.4-4-20.8-4-10.4 4-20.8 4-10.4-4-20.8-4-10.4 4-20.8 4-10.4-4-20.8-4-10.4 4-20.8 4-10.4-4-20.8-4-10.4 4-20.8 4-10.4-4-20.8-4-10.4 4-20.8 4-10.4-4-20.8-4-10.4 4-20.8 4-10.4-4-20.8-4-10.4 4-20.8 4-10.4-4-20.8-4-10.4 4-20.8 4-10.4-4-20.8-4-10.4 4-20.8 4-10.4-4-20.8-4-10.4 4-20.8 4-10.4-4-20.8-4-10.4 4-20.8 4-10.4-4-20.8-4-10.4 4-20.8 4-10.4-4-20.8-4-10.4 4-20.8 4-10.4-4-20.8-4-10.4 4-20.8 4-10.4-4-20.8-4-10.4 4-20.8 4-10.4-4-20.8-4-10.4 4-20.8 4-10.4-4-20.8-4-10.4 4-20.8 4-10.4-4-20.8-4-10.4 4-20.8 4-10.4-4-20.8-4-10.4 4-20.8 4-10.4-4-20.8-4-10.4 4-20.8 4-10.4-4-20.8-4-10.4 4-20.8 4-10.4-4-20.8-4-10.4 4-20.8 4-10.4-4-20.8-4-10.4 4-20.8 4-10.4-4-20.8-4-10.4 4-20.8 4-10.4-4-20.8-4-10.4 4-20.8 4-10.4-4-20.8-4-10.4 4-20.8 4-10.4-4-20.8-4-10.4 4-20.8 4-10.4-4-20.8-4-10.4 4-20.8 4-10.4-4-20.8-4-10.4 4-20.8 4-10.4-4-20.8-4-10.4 4-20.8 4-10.4-4-20.8-4-10.4 4-20.9 4c-10.4 0-10.4-4-20.8-4s-10.4 4-20.8 4-10.4-4-20.8-4-10.4 4-20.8 4-10.4-4-20.8-4-10.4 4-20.9 4c-10.4 0-10.4-4-20.8-4s-10.4 4-20.8 4-10.4-4-20.8-4-10.4 4-20.9 4c-10.4 0-10.4-4-20.9-4-10.4 0-10.4 4-20.9 4-10.4 0-10.4-4-20.9-4-10.4 0-10.4 4-20.9 4-10.5 0-10.3-.8-20.3-3.9-3.1-1-2.6-1.3-2.6-4.6 0-3.2 4-3.2 4-6.5 0-3.2-4-3.2-4-6.5 0-3.2 4-3.2 4-6.5 0-3.2-4-3.2-4-6.5 0-3.2 4-3.2 4-6.5 0-3.2-4-3.2-4-6.5 0-3.2 4-3.2 4-6.5 0-3.2-4-3.2-4-6.5 0-3.2 4-3.2 4-6.5 0-3.2-4-3.2-4-6.5 0-3.2 4-3.2 4-6.5 0-3.2-4-3.2-4-6.5 0-3.2 4-3.2 4-6.5 0-3.2-4-3.2-4-6.5 0-3.2 4-3.2 4-6.5 0-3.2-4-3.2-4-6.5 0-3.2 4-3.2 4-6.5 0-3.2-4-3.2-4-6.5 0-3.2 4-3.2 4-6.5 0-3.2-4-3.2-4-6.5 0-3.2 4-3.2 4-6.5 0-3.2-4-3.2-4-6.5 0-3.2 4-3.2 4-6.5 0-3.2-4-3.2-4-6.5 0-3.2 4-3.2 4-6.5 0-3.2-4-3.2-4-6.5 0-3.2 4-3.2 4-6.5 0-3.2-4-3.2-4-6.5 0-3.2 4-3.2 4-6.5 0-3.2-4-3.2-4-6.5 0-3.2 4-3.2 4-6.5 0-3.2-4-3.2-4-6.5 0-3.2 4-3.2 4-6.5 0-3.2-4-3.2-4-6.5 0-3.2 4-3.2 4-6.5 0-3.2-4-3.2-4-6.5 0-3.2 4-3.2 4-6.5 0-3.2-4-3.2-4-6.5 0-3.2 4-3.2 4-6.5 0-3.2-4-3.2-4-6.5 0-3.2 4-3.2 4-6.5 0-3.2-4-3.2-4-6.5 0-3.2 4-3.2 4-6.5 0-3.2-4-3.2-4-6.5 0-3.2 4-3.2 4-6.5 0-3.2-4-3.2-4-6.5 0-3.2 4-3.2 4-6.5 0-3.2-4-3.2-4-6.5 0-3.2 4-3.2 4-6.5 0-3.2-4-3.2-4-6.5 0-3.2 4-3.2 4-6.5 0-3.2-4-3.2-4-6.5 0-3.2 4-3.2 4-6.5 0-3.2-4-3.2-4-6.5 0-3.2 4-3.2 4-6.5 0-3.2-4-3.2-4-6.5 0-3.2 4-3.2 4-6.5 0-3.2-4-3.2-4-6.5 0-3.2 4-3.2 4-6.5 0-3.2-4-3.2-4-6.5 0-3.2 4-3.2 4-6.5 0-3.2-4-3.2-4-6.5 0-3.2 4-3.2 4-6.5 0-3.2-4-3.2-4-6.5 0-3.2 4-3.2 4-6.5 0-3.2-4-3.2-4-6.5 0-3.2 4-3.2 4-6.5 0-3.2-4-3.2-4-6.5 0-3.2 4-3.2 4-6.5 0-3.2-4-3.2-4-6.5 0-3.2 4-3.2 4-6.5 0-3.2-4-3.2-4-6.5 0-3.2 4-3.2 4-6.5 0-3.2-4-3.2-4-6.5 0-3.2 4-3.2 4-6.5 0-3.2-4-3.2-4-6.5 0-3.2 4-3.2 4-6.5 0-3.2-4-3.2-4-6.5 0-3.2 4-3.2 4-6.5 0-3.2-4-3.2-4-6.5 0-3.2 4-3.2 4-6.5 0-3.2-4-3.2-4-6.5 0-3.2 4-3.2 4-6.5 0-3.2-4-3.2-4-6.5 0-3.2 4-3.2 4-6.5 0-3.2-4-3.2-4-6.5 0-3.2 4-3.2 4-6.5 0-3.2-4-3.2-4-6.5 0-3.2 4-3.2 4-6.5 0-3.2-4-3.2-4-6.5 0-3.2 4-3.2 4-6.5 0-3.2-4-3.2-4-6.5 0-3.2 4-3.2 4-6.5 0-3.2-4-3.2-4-6.5 0-3.2 4-3.2 4-6.5 0-3.2-4-3.2-4-6.5 0-3.2 4-3.2 4-6.5-3.8-2.2-7.8-2.2-7.8-5.5s4-3.3 4-6.5-5.7-7.4-2.6-8.4c9.9-3.1 11 3.9 21.4 3.9 10.4 0 10.4-4 20.8-4s10.4 4 20.8 4 10.4-4 20.8-4 10.4 4 20.8 4 10.4-4 20.8-4 10.4 4 20.8 4 10.4-4 20.8-4 10.4 4 20.8 4 10.4-4 20.8-4 10.4 4 20.8 4 10.4-4 20.8-4 10.4 4 20.8 4 10.4-4 20.8-4 10.4 4 20.8 4 10.4-4 20.8-4 10.4 4 20.8 4 10.4-4 20.8-4 10.4 4 20.8 4 10.4-4 20.8-4 10.4 4 20.8 4 10.4-4 20.8-4 10.4 4 20.8 4 10.4-4 20.8-4 10.4 4 20.8 4 10.4-4 20.8-4 10.4 4 20.8 4 10.4-4 20.8-4 10.4 4 20.8 4 10.4-4 20.8-4 10.4 4 20.8 4 10.4-4 20.8-4 10.4 4 20.8 4 10.4-4 20.8-4 10.4 4 20.8 4 10.4-4 20.8-4 10.4 4 20.8 4 10.4-4 20.8-4 10.4 4 20.8 4 10.4-4 20.8-4 10.4 4 20.8 4 10.4-4 20.8-4 10.4 4 20.8 4 10.4-4 20.8-4 10.4 4 20.8 4 10.4-4 20.8-4 10.4 4 20.8 4 10.4-4 20.8-4 10.4 4 20.8 4 10.4-4 20.8-4 10.4 4 20.8 4 10.4-4 20.8-4 10.4 4 20.8 4 10.4-4 20.8-4 10.4 4 20.8 4 10.4-4 20.8-4 10.4 4 20.8 4 10.4-4 20.8-4 10.4 4 20.8 4 10.4-4 20.8-4 10.4 4 20.8 4 10.4-4 20.8-4 10.4 4 20.8 4 10.4-4 20.8-4 10.4 4 20.8 4 10.4-4 20.8-4 10.4 4 20.8 4 10.4-4 20.8-4 10.4 4 20.8 4 10.4-4 20.8-4 10.4 4 20.8 4 10.4-4 20.8-4 10.4 4 20.8 4 10.4-4 20.8-4 10.4 4 20.8 4 10.4-4 20.8-4 10.4 4 20.8 4 10.4-4 20.8-4 10.4 4 20.8 4 10.4-4 20.8-4 10.4 4 20.8 4 10.4-4 20.8-4 10.4 4 20.8 4 10.4-4 20.8-4 10.4 4 20.8 4 10.4-4 20.8-4 10.4 4 20.8 4 10.4-4 20.8-4 10.4 4 20.8 4 10.4-4 20.8-4 10.4 4 20.8 4 10.4-4 20.9-4c10.4 0 10.4 4 20.8 4s10.4-4 20.8-4 10.4 4 20.8 4 10.4-4 20.9-4c10.4 0 10.4 4 20.9 4 10.4 0 10.4-4 20.9-4 10.4 0 10.4 4 20.9 4 10.4 0 10.4-4 20.9-4 10.5 0 10.3.8 20.3 3.9 3.1 1 2.6 1.3 2.6 4.6 0 3.2-4 3.2-4 6.5 0 3.2 4 3.2 4 6.5 0 3.2-4 3.2-4 6.5 0 3.2 4 3.2 4 6.5 0 3.2-4 3.2-4 6.5 0 3.2 4 3.2 4 6.5 0 3.2-4 3.2-4 6.5 0 3.2 4 3.2 4 6.5 0 3.2-4 3.2-4 6.5 0 3.2 4 3.2 4 6.5 0 3.2-4 3.2-4 6.5 0 3.2 4 3.2 4 6.5 0 3.2-4 3.2-4 6.5 0 3.2 4 3.2 4 6.5 0 3.2-4 3.2-4 6.5 0 3.2 4 3.2 4 6.5 0 3.2-4 3.2-4 6.5 0 3.2 4 3.2 4 6.5 0 3.2-4 3.2-4 6.5 0 3.2 4 3.2 4 6.5 0 3.2-4 3.2-4 6.5 0 3.2 4 3.2 4 6.5 0 3.2-4 3.2-4 6.5 0 3.2 4 3.2 4 6.5 0 3.2-4 3.2-4 6.5 0 3.2 4 3.2 4 6.5 0 3.2-4 3.2-4 6.5 0 3.2 4 3.2 4 6.5 0 3.2-4 3.2-4 6.5 0 3.2 4 3.2 4 6.5 0 3.2-4 3.2-4 6.5 0 3.2 4 3.2 4 6.5 0 3.2-4 3.2-4 6.5 0 3.2 4 3.2 4 6.5 0 3.2-4 3.2-4 6.5 0 3.2 4 3.2 4 6.5 0 3.2-4 3.2-4 6.5 0 3.2 4 3.2 4 6.5 0 3.2-4 3.2-4 6.5 0 3.2 4 3.2 4 6.5 0 3.2-4 3.2-4 6.5 0 3.2 4 3.2 4 6.5 0 3.2-4 3.2-4 6.5 0 3.2 4 3.2 4 6.5 0 3.2-4 3.2-4 6.5 0 3.2 4 3.2 4 6.5 0 3.2-4 3.2-4 6.5 0 3.2 4 3.2 4 6.5 0 3.2-4 3.2-4 6.5 0 3.2 4 3.2 4 6.5 0 3.2-4 3.2-4 6.5 0 3.2 4 3.2 4 6.5 0 3.2-4 3.2-4 6.5 0 3.2 4 3.2 4 6.5 0 3.2-4 3.2-4 6.5 0 3.2 4 3.2 4 6.5 0 3.2-4 3.2-4 6.5 0 3.2 4 3.2 4 6.5 0 3.2-4 3.2-4 6.5 0 3.2 4 3.2 4 6.5 0 3.2-4 3.2-4 6.5 0 3.2 4 3.2 4 6.5 0 3.2-4 3.2-4 6.5 0 3.2 4 3.2 4 6.5 0 3.2-4 3.2-4 6.5 0 3.2 4 3.2 4 6.5 0 3.2-4 3.2-4 6.5 0 3.2 4 3.2 4 6.5 0 3.2-4 3.2-4 6.5 0 3.2 4 3.2 4 6.5 0 3.2-4 3.2-4 6.5 0 3.2 4 3.2 4 6.5 0 3.2-4 3.2-4 6.5 0 3.2 4 3.2 4 6.5 0 3.2-4 3.2-4 6.5 0 3.2 4 3.2 4 6.5 0 3.2-4 3.2-4 6.5 0 3.2 4 3.2 4 6.5 0 3.2-4 3.2-4 6.5 0 3.2 4 3.2 4 6.5 0 3.2-4 3.2-4 6.5 0 3.2 4 3.2 4 6.5 0 3.2-4 3.2-4 6.5 0 3.2 4 3.2 4 6.5 0 3.2-4 3.2-4 6.5 0 3.2 4 3.2 4 6.5 0 3.2-4 3.2-4 6.5 0 3.2 4 3.2 4 6.5 0 3.2-4 3.2-4 6.5 0 3.2 4 3.2 4 6.5 0 3.2-4 3.2-4 6.5 0 3.2 4 3.2 4 6.5 0 3.2-4 3.2-4 6.5s4 3.2 4 6.5-4 3.2-4 6.5c0 3.2 4 3.2 4 6.5 0 3.2-4 3.2-4 6.5 0 3.2 4 3.2 4 6.5s-4.8 3.9-3.9 7c5.1 3.4 9.5 5.9 6.4 6.9z"/></defs></svg>