<svg width="64" height="54" xmlns="http://www.w3.org/2000/svg" xmlns:xlink="http://www.w3.org/1999/xlink"><use xlink:href="#path0_fill"/><defs><path id="path0_fill" d="M32 10.8c1.6 0 2.667-1.08 2.667-2.7S33.6 5.4 32 5.4c-1.6 0-2.667 1.08-2.667 2.7S30.4 10.8 32 10.8zm0 5.4c-4.533 0-8-3.51-8-8.1S27.467 0 32 0c4.533 0 8 3.51 8 8.1s-3.467 8.1-8 8.1zm18.667 5.4c1.6 0 2.666-1.08 2.666-2.7s-1.066-2.7-2.666-2.7c-1.6 0-2.667 1.08-2.667 2.7s1.067 2.7 2.667 2.7zm0 5.4c-4.534 0-8-3.51-8-8.1s3.466-8.1 8-8.1c4.533 0 8 3.51 8 8.1s-3.467 8.1-8 8.1zm-40-2.7H5.333v21.6h5.334V24.3zm22.666 24.3c14.667 0 24.8-8.91 24.8-9.72 0-.81-2.933-2.43-6.133-2.43h-6.133c.266.81.533 1.35.533 2.16.533 1.62-.8 3.24-2.667 3.24H22.4c-1.6 0-2.667-1.08-2.667-2.7s1.067-2.7 2.667-2.7H40s-1.867-5.4-5.333-5.4h-9.334c-.533 0-1.066-.27-1.6-.54 0 0-3.733-2.43-7.733-3.24v16.47c2.933 3.51 10.667 4.86 17.333 4.86zM12 51.3H4c-2.133 0-4-1.89-4-4.05v-24.3c0-2.16 1.867-4.05 4-4.05h8c1.867 0 3.467 1.35 3.733 2.97 2.4.27 6.667 1.62 10.4 3.78h8.534c3.733 0 6.4 2.16 8.533 5.4H52c6.667 0 12 4.05 12 8.1 0 2.43-4 5.94-9.067 8.91-6.4 3.78-13.6 5.94-21.6 5.94C25.6 54 19.2 52.65 15.2 49.95c-.8.81-1.867 1.35-3.2 1.35z"/></defs></svg>