<svg width="20" height="16" xmlns="http://www.w3.org/2000/svg" xmlns:xlink="http://www.w3.org/1999/xlink"><g transform="translate(-20694 7598)"><mask id="a"><use xlink:href="#path0_fill" fill="#fff" transform="translate(20694 -7598)"/></mask><g mask="url(#a)"><use xlink:href="#path1_stroke_2x" transform="translate(20694 -7598)" fill="#18A29B"/></g></g><defs><path id="path0_fill" d="M19.2 5.018C19.2 2.247 16.927 0 14.125 0A5.076 5.076 0 0 0 9.6 2.753 5.077 5.077 0 0 0 5.075 0C2.272 0 0 2.247 0 5.018 0 10.26 8.515 16 9.6 16c1.086 0 9.6-5.715 9.6-10.982z"/><path id="path1_stroke_2x" d="M9.6 2.753l-.89.457.89 1.734.89-1.734-.89-.457zM5.075 0v1-1zM20.2 5.018C20.2 1.684 17.469-1 14.125-1v2C16.386 1 18.2 2.81 18.2 5.018h2zM14.125-1A6.076 6.076 0 0 0 8.71 2.297l1.78.913A4.076 4.076 0 0 1 14.125 1v-2zM10.49 2.297A6.077 6.077 0 0 0 5.075-1v2c1.591 0 2.964.9 3.635 2.21l1.78-.913zM5.075-1C1.731-1-1 1.684-1 5.018h2C1 2.81 2.814 1 5.075 1v-2zM-1 5.018c0 3.086 2.441 6.093 4.715 8.191a26.878 26.878 0 0 0 3.381 2.65c.497.324.97.598 1.335.78.19.094.393.182.548.238A1.9 1.9 0 0 0 9.6 17v-2c.11 0 .145.026.048-.008a2.718 2.718 0 0 1-.327-.145 11.265 11.265 0 0 1-1.133-.663 24.024 24.024 0 0 1-3.117-2.444C2.816 9.658 1 7.174 1 5.018h-2zM9.6 17a1.9 1.9 0 0 0 .62-.123c.155-.055.357-.143.548-.236a14.27 14.27 0 0 0 1.335-.778 26.739 26.739 0 0 0 3.382-2.644C17.76 11.123 20.2 8.116 20.2 5.018h-2c0 2.169-1.817 4.653-4.07 6.73a23.819 23.819 0 0 1-3.117 2.438c-.453.295-.824.51-1.132.662a2.73 2.73 0 0 1-.328.144c-.096.034-.061.008.047.008v2z"/></defs></svg>