<svg width="15" height="15" xmlns="http://www.w3.org/2000/svg" xmlns:xlink="http://www.w3.org/1999/xlink"><use xlink:href="#path0_fill" fill="#0baca2"/><defs><path id="path0_fill" d="M14.167 10.417a9.486 9.486 0 0 1-2.975-.475.836.836 0 0 0-.846.204l-1.834 1.837a12.571 12.571 0 0 1-5.491-5.487l1.833-1.842a.836.836 0 0 0 .204-.846A9.486 9.486 0 0 1 4.583.833.83.83 0 0 0 3.75 0H.833A.833.833 0 0 0 0 .833C0 8.658 6.342 15 14.167 15a.83.83 0 0 0 .833-.833V11.25a.83.83 0 0 0-.833-.833zM7.5 0v8.333l2.5-2.5h5V0H7.5z"/></defs></svg>