<svg width="61" height="54" xmlns="http://www.w3.org/2000/svg" xmlns:xlink="http://www.w3.org/1999/xlink"><g transform="translate(-34582 15906)"><mask id="a"><use xlink:href="#path0_fill" fill="#fff" transform="translate(34582 -15906)"/></mask><g mask="url(#a)"><use xlink:href="#path1_stroke_2x" transform="translate(34582 -15906)"/></g></g><defs><path id="path0_fill" d="M43.059 3.6V18H32.294V7.2L17.941 18V7.2L3.588 18C1.998 19.197 0 19.8 0 23.4v27C0 52.394 1.6 54 3.588 54h53.824A3.586 3.586 0 0 0 61 50.4V21.6c0-1.994-1.6-3.6-3.588-3.6h-7.177V3.6c0-1.8-1.896-3.6-3.588-3.6-1.691 0-3.588 1.8-3.588 3.6z"/><path id="path1_stroke_2x" d="M43.059 18v6h6v-6h-6zm-10.765 0h-6v6h6v-6zm0-10.8h6V-4.824l-9.607 7.23L32.294 7.2zM17.941 18h-6v12.024l9.608-7.23L17.94 18zm0-10.8h6V-4.824l-9.607 7.23L17.94 7.2zM3.588 18l3.608 4.794L3.588 18zm46.647 0h-6v6h6v-6zM37.06 3.6V18h12V3.6h-12zm6 8.4H32.294v12H43.06V12zm-4.765 6V7.2h-12V18h12zM28.687 2.406l-14.353 10.8 7.215 9.588 14.353-10.8-7.215-9.588zM23.94 18V7.2h-12V18h12zM14.334 2.406L-.02 13.206l7.215 9.588 14.353-10.8-7.215-9.588zM-.02 13.206c-.177.14-.488.328-1.012.684a16.03 16.03 0 0 0-2.164 1.821C-5.067 17.724-6 20.304-6 23.4H6c0-.346.048-.341-.026-.138a1.934 1.934 0 0 1-.384.624c-.102.11-.133.105.154-.091.15-.103.33-.22.564-.377.235-.156.58-.394.888-.624L-.02 13.206zM-6 23.4v27H6v-27H-6zm0 27c0 5.29 4.268 9.6 9.588 9.6V48C4.933 48 6 49.1 6 50.4H-6zM3.588 60h53.824V48H3.588v12zm53.824 0C62.732 60 67 55.69 67 50.4H55c0-1.3 1.067-2.4 2.412-2.4v12zM67 50.4V21.6H55v28.8h12zm0-28.8c0-5.29-4.268-9.6-9.588-9.6v12A2.414 2.414 0 0 1 55 21.6h12zM57.412 12h-7.177v12h7.177V12zm-7.177 6h6V3.6h-12V18h6zm6-14.4c0-2.948-1.476-5.3-2.95-6.75C51.828-4.586 49.5-6 46.647-6V6c-.627 0-1.067-.16-1.294-.268a1.737 1.737 0 0 1-.487-.331c-.103-.102-.63-.653-.63-1.801h12zM46.647-6c-2.853 0-5.18 1.415-6.638 2.85C38.535-1.7 37.06.651 37.06 3.6h12c0 1.148-.528 1.7-.631 1.8-.101.1-.252.22-.487.332A3.022 3.022 0 0 1 46.647 6V-6z"/></defs></svg>