<svg width="166" height="33" xmlns="http://www.w3.org/2000/svg" xmlns:xlink="http://www.w3.org/1999/xlink"><use xlink:href="#path0_fill" transform="translate(20.6 4.55)" fill="#FFF"/><use xlink:href="#path1_fill" transform="translate(.5)" fill="#FFF"/><g fill="#FFF"><use xlink:href="#path2_fill" transform="translate(7 16.33)"/><use xlink:href="#path3_fill" transform="translate(45.4 5.4)"/><use xlink:href="#path4_fill" transform="translate(69 22.6)"/><use xlink:href="#path5_fill" transform="translate(74.9 22.75)"/><use xlink:href="#path6_fill" transform="translate(81.7 22.6)"/><use xlink:href="#path7_fill" transform="translate(87.7 22.6)"/><use xlink:href="#path8_fill" transform="translate(95.2 22.75)"/><use xlink:href="#path9_fill" transform="translate(102.4 22.75)"/><use xlink:href="#path10_fill" transform="translate(114.2 22.75)"/><use xlink:href="#path11_fill" transform="translate(121 22.6)"/><use xlink:href="#path12_fill" transform="translate(127.2 22.75)"/><use xlink:href="#path13_fill" transform="translate(135.9 22.75)"/></g><defs><path id="path0_fill" fill-rule="evenodd" d="M.073 7.8L20.105 0s.508.459.508 1.223c0 .842.073 18.659.073 18.659s.072.994-.872 1.529c-.943.535-5.08 2.83-5.08 2.83s-.436.305-1.089.305V12.311s-.072-.611-.653-.688c-.29 0-.436.153-.58.306-.073.153-10.162 15.217-10.162 15.217s-.798 1.223-2.177 1.223H0L.073 7.8z"/><path id="path1_fill" fill-rule="evenodd" d="M0 4.554s.363-.382 1.089-.535C1.742 3.942 17.782.272 17.782.272s2.032-.612 4.718 0 16.984 3.9 16.984 3.9.508.153.726.382l-20.033 7.8L0 4.554z"/><path id="path2_fill" fill-rule="evenodd" d="M8.056 10.476L1.161.229S1.016 0 .653 0 0 .23 0 .688v12.235s.435.076 1.234-.23c.798-.229 6.822-2.217 6.822-2.217z"/><path id="path3_fill" fill-rule="evenodd" d="M62.202 3.441h6.387v5.888h-6.387V3.441zm-32.88 0h6.388v5.888h-6.387V3.441zM107.565.306v3.44h4.355v9.024h4.355V3.747h4.355V.306h-13.065zm-16.403 0V12.77h4.21l6.387-7.417v7.417h4.355V.306h-4.5L95.516 7.34V.306h-4.355zm-6.314 3.44H79.91V9.33c0 1.912-.943 3.441-3.266 3.441H73.96V9.176h1.596v-5.43c0-1.91.944-3.44 3.267-3.44h10.379V12.77h-4.355V3.747zM69.677 0h-8.564c-2.323 0-3.266 1.53-3.266 3.441v5.888c0 1.912.943 3.441 3.266 3.441h8.564c2.323 0 3.266-1.53 3.266-3.441V3.441C72.944 1.453 72 0 69.677 0zM41.952.306V12.77h4.354V8.03h5.299v4.74h4.355V.306h-4.355v3.9h-5.299v-3.9h-4.354zM36.798 0h-8.564c-2.395 0-3.266 1.53-3.266 3.441v5.888c0 1.912.943 3.441 3.266 3.441h8.564c2.395 0 3.267-1.53 3.267-3.441V3.441C40.065 1.453 39.12 0 36.797 0zM17.056.153h6.025V12.77h-4.355V5.123L11.54 15.6 4.355 5.123v7.647H0V.153h6.024l5.444 8.335L17.056.153z"/><path id="path4_fill" fill-rule="evenodd" d="M4.935 6.5c-.217.153-.508.23-.798.306-.363.076-.653.076-1.016.076-.436 0-.798-.076-1.161-.153-.363-.153-.726-.306-1.016-.612-.29-.305-.509-.611-.654-1.07C.145 4.588 0 4.053 0 3.44c0-.612.073-1.223.29-1.606a3.84 3.84 0 0 1 .726-1.07c.29-.306.653-.46 1.016-.612C2.395 0 2.758 0 3.121 0s.726 0 1.016.076c.29.077.508.077.653.153L4.5 1.3a1.312 1.312 0 0 0-.58-.153c-.218 0-.436-.076-.799-.076-.58 0-1.016.152-1.306.535-.363.382-.509.917-.509 1.759 0 .305.073.688.146.917a1.5 1.5 0 0 0 .363.688c.145.23.362.383.58.46.218.076.508.152.871.152.29 0 .58 0 .726-.076a3.42 3.42 0 0 0 .508-.23L4.935 6.5z"/><path id="path5_fill" fill-rule="evenodd" d="M5.444 1.147H3.41v5.43H2.032v-5.43H0V0h5.444v1.147z"/><path id="path6_fill" fill-rule="evenodd" d="M2.032 1.147H1.38v2.141h.581c.145 0 .363 0 .508-.076.145 0 .363-.077.508-.153.145-.077.218-.23.363-.383a1.51 1.51 0 0 0 .145-.611c0-.23-.073-.383-.145-.536-.073-.153-.218-.229-.29-.306-.146-.076-.29-.152-.436-.152-.218.076-.363.076-.58.076zM0 .229C.29.153.58.153.944.076 1.306.076 1.597 0 1.96 0s.725 0 1.016.076c.363.077.653.153.943.306.29.153.508.383.654.689.145.305.29.688.29 1.147 0 .382-.073.764-.218 1.07a1.777 1.777 0 0 1-.58.688 2.359 2.359 0 0 1-.871.383c-.29.076-.654.153-1.017.153h-.725v2.294H.072V.229H0z"/><path id="path7_fill" fill-rule="evenodd" d="M1.379 3.441c0 .306 0 .612.073.918.072.306.145.535.29.688.145.23.29.382.508.459.218.076.435.153.653.153.508 0 .871-.153 1.162-.536.29-.382.435-.917.435-1.758 0-.306 0-.612-.073-.918-.072-.306-.145-.535-.29-.688-.145-.23-.29-.383-.435-.459-.218-.153-.436-.153-.726-.153-.508 0-.871.153-1.161.535-.29.383-.436.994-.436 1.759zM0 3.441C0 2.371.29 1.529.798.918 1.306.306 2.032 0 2.976 0c.508 0 .943.076 1.306.23.363.152.653.382.944.688.218.305.435.688.58 1.07.146.459.146.918.146 1.377 0 1.07-.29 1.988-.799 2.523-.508.612-1.234.918-2.177.918-.508 0-.944-.077-1.307-.23-.363-.153-.653-.382-.943-.688a4.948 4.948 0 0 1-.58-1.07A7.21 7.21 0 0 1 0 3.44z"/><path id="path8_fill" fill-rule="evenodd" d="M4.065 2.906l.072-.841-.508.917-2.613 3.594H0V0h1.379v3.594l-.073.918h.073l.436-.918L4.427 0h1.017v6.576h-1.38v-3.67z"/><path id="path9_fill" fill-rule="evenodd" d="M5.444 3.212l.145-1.377h-.073l-.435 1.07-1.452 2.448h-.435L1.597 2.906l-.436-1.07H1.09l.217 1.3v3.44H0V0h1.234L3.12 2.982l.363.765.29-.765L5.59 0h1.234v6.576h-1.38V3.212z"/><path id="path10_fill" fill-rule="evenodd" d="M1.742 3.747h-.363v2.83H0V0h1.379v2.906l.29-.153L3.63 0h1.524L3.121 2.753l-.508.382.508.383 2.323 3.058h-1.67l-2.032-2.83z"/><path id="path11_fill" fill-rule="evenodd" d="M2.032 1.147H1.38v2.141h.581c.145 0 .363 0 .508-.076.145 0 .363-.077.508-.153.145-.077.218-.23.363-.383a1.51 1.51 0 0 0 .145-.611c0-.23-.073-.383-.145-.536-.073-.153-.218-.229-.29-.306-.146-.076-.29-.152-.436-.152-.29.076-.436.076-.58.076zM0 .229C.29.153.58.153.944.076 1.306.076 1.597 0 1.96 0s.725 0 1.016.076c.29.077.653.153.943.306.29.153.508.383.654.689.145.305.29.688.29 1.147 0 .382-.073.764-.218 1.07a1.777 1.777 0 0 1-.58.688 2.359 2.359 0 0 1-.871.383c-.29.076-.654.153-1.017.153h-.725v2.294H.072V.229H0z"/><path id="path12_fill" fill-rule="evenodd" d="M5.444 0h1.379v6.576h-1.38V0zM2.032 5.582c.363 0 .653-.076.944-.23.218-.152.363-.458.363-.84 0-.23 0-.383-.073-.536a.583.583 0 0 0-.29-.306c-.145-.076-.218-.152-.436-.152-.145 0-.29-.077-.508-.077H1.67c-.145 0-.217 0-.29.077v1.988c.073 0 .145 0 .29.076h.363zM.072 0h1.38v2.37c.072 0 .217 0 .363-.076h.435c.363 0 .653 0 .944.076.29.077.58.153.798.306.218.153.435.383.508.689.145.305.218.611.218 1.07 0 .765-.218 1.377-.726 1.759-.508.382-1.161.535-2.105.535h-.871c-.145 0-.363 0-.508-.076-.145 0-.363-.077-.508-.077V0h.073z"/><path id="path13_fill" fill-rule="evenodd" d="M5.444 3.212l.145-1.377h-.073l-.435 1.07-1.525 2.448h-.435L1.597 2.906l-.436-1.07H1.09l.217 1.3v3.44H0V0h1.234L3.12 2.982l.29.765h.073l.29-.765L5.516 0H6.75v6.576H5.444V3.212z"/></defs></svg>