<svg width="204" height="40" xmlns="http://www.w3.org/2000/svg" xmlns:xlink="http://www.w3.org/1999/xlink"><use xlink:href="#path0_fill" transform="translate(25.3 5.5)" fill="#00090A"/><use xlink:href="#path1_fill" transform="translate(0 5.5)" fill="#FFFAF7"/><use xlink:href="#path2_fill" transform="translate(.6)" fill="#7D7E6C"/><use xlink:href="#path3_fill" transform="translate(8.6 19.8)" fill="#00090A"/><use xlink:href="#path4_fill" transform="translate(32.2 19.8)" fill="#28967F"/><use xlink:href="#path5_fill" transform="translate(55.8 6.5)" fill="#28967F"/><use xlink:href="#path6_fill" transform="translate(84.8 27.4)" fill="#00090A"/><use xlink:href="#path7_fill" transform="translate(92.1 27.6)" fill="#00090A"/><use xlink:href="#path8_fill" transform="translate(100.4 27.4)" fill="#00090A"/><use xlink:href="#path9_fill" transform="translate(107.8 27.4)" fill="#00090A"/><use xlink:href="#path10_fill" transform="translate(116.9 27.6)" fill="#00090A"/><use xlink:href="#path11_fill" transform="translate(125.9 27.6)" fill="#00090A"/><use xlink:href="#path12_fill" transform="translate(140.3 27.6)" fill="#00090A"/><use xlink:href="#path13_fill" transform="translate(148.7 27.4)" fill="#00090A"/><use xlink:href="#path14_fill" transform="translate(156.4 27.6)" fill="#00090A"/><use xlink:href="#path15_fill" transform="translate(167 27.6)" fill="#00090A"/><defs><path id="path0_fill" fill-rule="evenodd" d="M.09 9.454L24.706 0s.624.556.624 1.483c0 1.02.09 22.616.09 22.616s.089 1.205-1.07 1.854c-1.16.648-6.244 3.43-6.244 3.43s-.535.37-1.338.37v-14.83s-.09-.742-.803-.834c-.357 0-.535.185-.714.37-.089.186-12.487 18.445-12.487 18.445s-.98 1.483-2.674 1.483H0L.09 9.454z"/><path id="path1_fill" fill-rule="evenodd" d="M25.43 9.454L.635 0S.01.556.01 1.483v22.708s-.179 1.206.981 1.854c1.16.65 6.244 3.43 6.244 3.43s.713.37 1.427.37v-14.83s0-.741.713-.834c.357 0 .625.186.714.278.09.186 12.487 18.445 12.487 18.445s.982 1.483 2.676 1.576h.09l.089-25.026z"/><path id="path2_fill" fill-rule="evenodd" d="M0 5.52s.446-.463 1.338-.649C2.14 4.78 21.853.33 21.853.33s2.497-.742 5.798 0c3.3.741 20.871 4.727 20.871 4.727s.625.185.892.463l-24.618 9.454L0 5.52z"/><path id="path3_fill" fill-rule="evenodd" d="M9.9 12.698L1.428.278S1.25 0 .803 0 0 .278 0 .834v14.83s.535.093 1.516-.278c.981-.278 8.385-2.688 8.385-2.688z"/><path id="path4_fill" fill-rule="evenodd" d="M0 12.698L8.384.371S8.563 0 9.098 0c.446 0 .803.37.803.834v14.83s-.714.093-1.16-.092C8.295 15.386 0 12.698 0 12.698z"/><path id="path5_fill" fill-rule="evenodd" d="M76.44 4.171h7.85v7.137h-7.85V4.17zm-40.405 0h7.85v7.137h-7.85V4.17zm96.153-3.8v4.17h5.351V15.48h5.352V4.542h5.352V.37h-16.055zm-20.158 0v15.108h5.173l7.849-8.99v8.99h5.352V.37h-5.53l-7.493 8.527V.371h-5.351zm-7.76 4.17h-6.066v6.767c0 2.317-1.16 4.17-4.014 4.17h-3.3v-4.355h1.963V4.542c0-2.317 1.16-4.171 4.013-4.171h12.755v15.108h-5.351V4.542zM85.628 0H75.103c-2.855 0-4.014 1.854-4.014 4.171v7.137c0 2.317 1.16 4.17 4.014 4.17h10.525c2.854 0 4.013-1.853 4.013-4.17V4.17c0-2.41-1.16-4.171-4.013-4.171zM51.555.37v15.11h5.352V9.732h6.511v5.747h5.352V.37h-5.352v4.727h-6.511V.37h-5.352zM45.222 0H34.697c-2.943 0-4.014 1.854-4.014 4.171v7.137c0 2.317 1.16 4.17 4.014 4.17h10.525c2.944 0 4.014-1.853 4.014-4.17V4.17c0-2.41-1.16-4.171-4.014-4.171zM20.961.185h7.403V15.48h-5.352V6.21l-8.83 12.698L5.352 6.21v9.269H0V.185h7.403l6.69 10.103L20.96.185z"/><path id="path6_fill" fill-rule="evenodd" d="M6.065 7.878c-.267.186-.624.279-.98.371-.447.093-.804.093-1.25.093-.535 0-.98-.093-1.427-.185-.446-.186-.892-.371-1.248-.742-.357-.37-.625-.741-.803-1.298C.178 5.561 0 4.912 0 4.171c0-.742.09-1.483.357-1.946.267-.557.535-.927.892-1.298.357-.37.802-.556 1.248-.742C2.943 0 3.39 0 3.835 0c.446 0 .892 0 1.25.093.356.092.624.092.802.185L5.53 1.576a1.63 1.63 0 0 0-.713-.186c-.268 0-.536-.092-.982-.092-.713 0-1.248.185-1.605.648-.446.464-.624 1.113-.624 2.132 0 .371.089.834.178 1.113.09.37.267.648.446.834.178.278.446.463.713.556.268.093.625.185 1.07.185.358 0 .714 0 .893-.092a4.26 4.26 0 0 0 .624-.279l.535 1.483z"/><path id="path7_fill" fill-rule="evenodd" d="M6.69 1.39H4.192v6.581H2.497v-6.58H0V0h6.69v1.39z"/><path id="path8_fill" fill-rule="evenodd" d="M2.497 1.39h-.802v2.596h.713c.179 0 .446 0 .625-.093.178 0 .446-.093.624-.185.178-.093.268-.279.446-.464a1.8 1.8 0 0 0 .178-.741c0-.278-.089-.464-.178-.65-.09-.185-.268-.277-.357-.37-.178-.093-.357-.185-.535-.185-.268.092-.446.092-.714.092zM0 .278C.357.185.714.185 1.16.093 1.606.093 1.962 0 2.408 0c.446 0 .892 0 1.249.093.446.092.803.185 1.16.37.356.186.624.464.802.835.179.37.357.834.357 1.39 0 .463-.09.927-.267 1.298-.179.37-.446.648-.714.834a2.93 2.93 0 0 1-1.07.463c-.357.093-.803.186-1.25.186h-.891v2.78H.089V.28H0z"/><path id="path9_fill" fill-rule="evenodd" d="M1.695 4.171c0 .37 0 .741.089 1.112.09.371.178.649.357.834.178.278.356.464.624.557.268.092.535.185.803.185.624 0 1.07-.185 1.427-.649.357-.463.535-1.112.535-2.132 0-.37 0-.741-.09-1.112-.088-.37-.177-.649-.356-.834-.178-.278-.357-.464-.535-.556-.268-.186-.535-.186-.892-.186-.624 0-1.07.186-1.427.65-.357.463-.535 1.204-.535 2.131zM0 4.171c0-1.298.357-2.317.981-3.059C1.606.371 2.497 0 3.657 0c.624 0 1.16.093 1.606.278.446.185.802.464 1.16.834.267.371.534.834.713 1.298.178.556.178 1.112.178 1.668 0 1.298-.357 2.41-.981 3.059-.624.741-1.516 1.112-2.676 1.112-.624 0-1.16-.092-1.606-.278-.445-.185-.802-.463-1.159-.834a5.973 5.973 0 0 1-.714-1.298A8.625 8.625 0 0 1 0 4.171z"/><path id="path10_fill" fill-rule="evenodd" d="M4.995 3.522l.09-1.02-.625 1.113L1.249 7.97H0V0h1.695v4.356l-.09 1.113h.09l.535-1.113L5.44 0h1.25v7.971H4.995V3.522z"/><path id="path11_fill" fill-rule="evenodd" d="M6.69 3.893l.178-1.668h-.09l-.534 1.297L4.46 6.488h-.535L1.962 3.522l-.535-1.297h-.09l.27 1.575v4.171H0V0h1.516l2.32 3.615.445.927.357-.927L6.868 0h1.516v7.971H6.69V3.893z"/><path id="path12_fill" fill-rule="evenodd" d="M2.14 4.542h-.445v3.43H0V0h1.695v3.522l.356-.185L4.46 0h1.873L3.835 3.337l-.624.463.624.464L6.69 7.97H4.638L2.141 4.54z"/><path id="path13_fill" fill-rule="evenodd" d="M2.497 1.39h-.802v2.596h.713c.179 0 .446 0 .625-.093.178 0 .446-.093.624-.185.178-.093.268-.279.446-.464a1.8 1.8 0 0 0 .178-.741c0-.278-.089-.464-.178-.65-.09-.185-.268-.277-.357-.37-.178-.093-.357-.185-.535-.185-.357.092-.535.092-.714.092zM0 .278C.357.185.714.185 1.16.093 1.606.093 1.962 0 2.408 0c.446 0 .892 0 1.249.093.357.092.803.185 1.16.37.356.186.624.464.802.835.179.37.357.834.357 1.39 0 .463-.09.927-.267 1.298-.179.37-.446.648-.714.834a2.93 2.93 0 0 1-1.07.463c-.357.093-.803.186-1.25.186h-.891v2.78H.089V.28H0z"/><path id="path14_fill" fill-rule="evenodd" d="M6.69 0h1.694v7.971H6.69V0zM2.497 6.766c.446 0 .803-.092 1.16-.278.268-.185.446-.556.446-1.02 0-.277 0-.463-.09-.648a.71.71 0 0 0-.356-.371c-.178-.093-.268-.185-.535-.185-.179 0-.357-.093-.625-.093h-.446c-.178 0-.267 0-.356.093v2.41c.089 0 .178 0 .356.092h.446zM.09 0h1.695v2.873c.09 0 .267 0 .446-.092h.535c.446 0 .803 0 1.16.092.356.093.713.186.98.371.268.185.536.464.625.834.179.371.268.742.268 1.298 0 .927-.268 1.668-.892 2.132-.625.463-1.427.649-2.587.649H1.25c-.179 0-.446 0-.625-.093-.178 0-.446-.093-.624-.093V0h.09z"/><path id="path15_fill" fill-rule="evenodd" d="M6.69 3.893l.178-1.668h-.09l-.534 1.297L4.37 6.488h-.536L1.962 3.522l-.535-1.297h-.09l.27 1.575v4.171H0V0h1.516l2.32 3.615.356.927h.09l.356-.927L6.778 0h1.517v7.971H6.69V3.893z"/></defs></svg>