<svg width="59" height="60" xmlns="http://www.w3.org/2000/svg" xmlns:xlink="http://www.w3.org/1999/xlink"><use xlink:href="#path0_fill" transform="translate(39 40.691)" fill="#FFF"/><use xlink:href="#path1_fill" transform="translate(38 40.386)" fill="#00998F"/><use xlink:href="#path2_fill" transform="translate(38 40.691)" fill="#0096E6"/><use xlink:href="#path3_fill" transform="translate(56 40.691)" fill="#0096E6"/><use xlink:href="#path4_fill" transform="translate(39 33.574)" fill="#FFF"/><use xlink:href="#path5_fill" transform="translate(38 32.589)" fill="#0096E6"/><use xlink:href="#path6_fill" transform="translate(39 36.681)" fill="#FFF"/><use xlink:href="#path7_fill" transform="translate(38 36.388)" fill="#00998F"/><use xlink:href="#path8_fill" transform="translate(38 36.681)" fill="#0096E6"/><use xlink:href="#path9_fill" transform="translate(56 36.681)" fill="#00998F"/><use xlink:href="#path10_fill" transform="translate(17 12.987)" fill="#00998F"/><use xlink:href="#path11_fill" transform="translate(13.1)" fill="#00998F"/><use xlink:href="#path12_fill" transform="translate(29 12.987)" fill="#00998F"/><use xlink:href="#path4_fill" transform="translate(39 33.574)" fill="#FFF"/><use xlink:href="#path5_fill" transform="translate(38 32.589)" fill="#00998F"/><use xlink:href="#path13_fill" transform="translate(40.1 52.696)" fill="#FFF"/><use xlink:href="#path14_fill" transform="translate(38.1 52.508)" fill="#00998F"/><use xlink:href="#path15_fill" transform="translate(39 44.688)" fill="#FFF"/><use xlink:href="#path16_fill" transform="translate(38 44.372)" fill="#00998F"/><use xlink:href="#path17_fill" transform="translate(42.6 48.698)" fill="#FFF"/><use xlink:href="#path18_fill" transform="translate(41.3 48.299)" fill="#00998F"/><use xlink:href="#path19_fill" transform="translate(1 19.88)" fill="#FFF"/><use xlink:href="#path20_fill" transform="translate(0 18.954)" fill="#00998F"/><g fill="#00998F"><use xlink:href="#path21_fill" transform="translate(28 43.985)"/><use xlink:href="#path22_fill" transform="translate(7.1 25.989)"/></g><defs><path id="path0_fill" d="M8.99 1.9C3.992 1.9 0 .996 0 0v3.998c0 1.102 3.992 1.9 8.99 1.9s8.99-.904 8.99-1.9V0c0 .997-3.992 1.9-8.99 1.9z"/><path id="path1_fill" d="M9.985 7.199C.69 7.199 0 4.994 0 4.303V.305h2.002c0-.2-.106-.305-.106-.305.398.399 3.301 1.196 8.089 1.196 4.787 0 7.69-.797 8.088-1.196 0 0-.105.106-.105.305h2.002v3.998c.011.703-.691 2.896-9.985 2.896zM2.002 4.103c.597.399 3.5 1.102 7.994 1.102 4.495 0 7.387-.703 7.995-1.102V2.204c-1.393.504-3.898.997-7.995.997-4.096 0-6.59-.399-7.994-.997v1.9z"/><path id="path2_fill" d="M2.002 0H0h2.002z"/><path id="path3_fill" d="M2.002 0H0h2.002z"/><path id="path4_fill" d="M17.98 3.107c0 1.102-3.992 1.9-8.99 1.9S0 4.102 0 3.106C0 2.005 3.992 0 8.99 0s8.99 2.005 8.99 3.107z"/><path id="path5_fill" d="M9.985 7C.69 7 0 4.794 0 4.102 0 2.1 4.998 0 9.985 0c4.986 0 9.985 2.099 9.985 4.103C19.98 4.795 19.279 7 9.985 7zm-7.69-3.002c.994.399 3.593.996 7.69.996s6.789-.597 7.69-.996c-.901-.704-3.792-2.005-7.69-2.005-3.898 0-6.79 1.301-7.69 2.005z"/><path id="path6_fill" d="M8.99 1.9C3.992 1.9 0 .996 0 0v3.998c0 1.102 3.992 1.9 8.99 1.9s8.99-.904 8.99-1.9V0c0 1.008-3.992 1.9-8.99 1.9z"/><path id="path7_fill" d="M9.985 7.199C.69 7.199 0 4.994 0 4.303V.305h2.002c0-.2-.106-.305-.106-.305.398.399 3.301 1.196 8.089 1.196 4.787 0 7.69-.797 8.088-1.196 0 0-.105.106-.105.305h2.002v3.998c.011.691-.691 2.896-9.985 2.896zM2.002 4.103c.597.399 3.5 1.102 7.994 1.102 4.495 0 7.387-.703 7.995-1.102V2.204c-1.393.504-3.898.997-7.995.997-4.096 0-6.59-.399-7.994-.997v1.9z"/><path id="path8_fill" d="M2.002 0H0h2.002z"/><path id="path9_fill" d="M2.002 0H0h2.002z"/><path id="path10_fill" d="M12.981 4.994H.995C.398 4.994 0 4.596 0 3.998S.398 3 .995 3h11.986c.597 0 .995.399.995.997.012.586-.386.996-.995.996zm0-3H.995c-.597 0-.995-.4-.995-.997C0 .399.398 0 .995 0h11.986c.597 0 .995.399.995.997 0 .597-.386.996-.995.996z"/><path id="path11_fill" d="M14.12 11.978H6.736c-1.194 0-2.295-.797-2.693-2.004-.304-.798-1.896-3.506-2.996-4.397C.25 4.874-.148 3.772.05 2.775.25 1.78.94.97 1.935.571c2.997-.997 5.69-.703 7.69.996.399.305.902.305 1.195 0 2-1.606 4.694-2.004 7.69-.996.995.305 1.697 1.102 1.896 2.204.2 1.102-.198 2.099-.994 2.802-.902.797-2.201 3.306-2.6 4.397-.385 1.195-1.486 2.004-2.691 2.004zM5.13 1.966c-.795 0-1.696.2-2.598.504-.398.106-.597.399-.597.598-.105.305.106.704.305.903 1.299 1.102 3.195 4.103 3.593 5.3.2.503.504.703.902.703h7.386c.398 0 .702-.2.796-.598.304-.704 1.603-3.998 3.101-5.3.305-.199.398-.597.305-.902 0-.2-.2-.504-.597-.704-2.4-.797-4.296-.598-5.794.598-.995.903-2.494.903-3.594 0a5.16 5.16 0 0 0-3.207-1.102z"/><path id="path12_fill" d="M4.097 6.19C2.903 6.19 1.803 5.792.9 4.994.398 4.89 0 4.49 0 3.998V.997C0 .399.398 0 .995 0s.995.399.995.997v2.297c1.1 1.103 3.102 1.103 4.19 0a.96.96 0 0 1 1.393 0 .964.964 0 0 1 0 1.396c-.877.996-2.177 1.5-3.476 1.5z"/><path id="path13_fill" d="M7.89 1.9c-2.002 0-3.898-.106-5.397-.4C1.99 2.897 1.194 4.104 0 4.9c1.498.599 4.495.997 7.796.997 4.998 0 8.99-.903 8.99-1.9V0c.093.997-3.898 1.9-8.897 1.9z"/><path id="path14_fill" d="M9.891 7.081c-3.394 0-6.496-.398-8.194-.996L0 5.487l1.498-1.102c.995-.704 1.698-1.7 2.096-2.896l.304-.797.796.105c1.498.2 3.3.399 5.197.399 4.8 0 7.69-.797 8.089-1.196 0 0-.106.106-.106.305h2.002v3.998c.011.586-.69 2.778-9.985 2.778zM4.003 4.584c1.604.305 3.594.504 5.888.504 4.495 0 7.386-.703 7.995-1.102v-1.9c-1.393.505-3.898.997-7.995.997-1.697 0-3.3-.105-4.694-.304a5.519 5.519 0 0 1-1.194 1.805z"/><path id="path15_fill" d="M8.99 1.9C3.992 1.9 0 .996 0 0v.997c1.803.902 3.196 2.497 3.793 4.607 1.498.2 3.3.399 5.197.399 4.998 0 8.99-.903 8.99-1.9V.093c0 .904-3.992 1.806-8.99 1.806z"/><path id="path16_fill" d="M9.985 7.222c-1.897 0-3.793-.106-5.396-.399l-.597-.105-.2-.598C3.396 4.42 2.19 3.013.598 2.216L0 1.91V.305h2.002c0-.2-.106-.305-.106-.305.398.399 3.301 1.196 8.089 1.196 4.787 0 7.69-.797 8.088-1.196 0 0-.105.106-.105.305h2.002v3.998c.011.715-.691 2.919-9.985 2.919zM5.49 4.912c1.3.2 2.891.305 4.495.305 4.6 0 7.386-.703 7.995-1.102v-1.9c-1.393.505-3.898.997-7.995.997-2.4 0-4.19-.105-5.595-.398.503.703.9 1.407 1.1 2.098z"/><path id="path17_fill" d="M5.396 1.888c-2.001 0-3.792-.106-5.197-.399.105.598.199 1.196.199 1.805C.398 4.092.293 4.795 0 5.5c1.498.199 3.3.398 5.396.398 4.998 0 8.99-.903 8.99-1.9V0c0 .997-3.992 1.888-8.99 1.888z"/><path id="path18_fill" d="M6.684 7.292c-2.002 0-3.898-.105-5.49-.398L0 6.694l.398-1.102a6.313 6.313 0 0 0 .304-1.899c0-.504-.105-.996-.199-1.5L.105.691 1.604.89c1.498.2 3.3.305 5.092.305 4.892 0 7.69-.797 8.088-1.196 0 0-.105.106-.105.305h2.001v3.998c0 .785-.702 2.99-9.996 2.99zM2.599 5.088c1.299.106 2.692.2 4.097.2 4.494 0 7.386-.704 7.994-1.103V2.286c-1.393.504-3.898.997-7.994.997-1.393 0-2.798-.106-3.992-.2v.598c-.012.516-.012.915-.105 1.407z"/><path id="path19_fill" d="M28.108 31.01c.398-2.802 2.692-5.205 5.49-5.803 1.604-.305 3.102-.106 4.39.504v-9.004c0-.798 2.598-2.298 6.192-2.896-1.3-2.697-3.196-5.206-5.69-7.105l-7.186-4.9C30.004.809 28.307 0 26.704 0h-7.796a7.78 7.78 0 0 0-4.694 1.606l-6.988 5.1c-6.895 5.499-9.283 15.1-5.291 22.909 1.697 3.306 3.991 5.698 6.695 5.897h20.38c-.807-1.102-1.205-2.802-.9-4.502z"/><path id="path20_fill" d="M31.827 37.634H9.55c-2.891-.2-5.49-2.497-7.491-6.507C-2.13 22.921.257 12.814 7.55 7.011l7.093-5.205C16.141.61 18.038 0 19.933 0h7.797c2.2 0 4.097 1.102 5.197 2.005l7.187 4.9c2.599 2.005 4.6 4.608 5.993 7.504l.597 1.22-1.299.198c-3.102.505-4.998 1.607-5.396 2.005v10.4l-1.393-.704c-1.194-.598-2.493-.703-3.793-.504-2.4.504-4.296 2.497-4.694 4.9a6.248 6.248 0 0 0 .796 3.998l.902 1.712zM19.946 2.028c-1.499 0-2.892.504-4.097 1.395L8.755 8.63C2.165 13.834.07 22.932 3.757 30.342c1.697 3.306 3.699 5.205 5.888 5.299h18.787a8.133 8.133 0 0 1-.304-3.799c.503-3.306 2.996-5.897 6.297-6.6 1.194-.305 2.494-.2 3.594.105v-7.609c0-1.606 2.797-2.895 5.689-3.599-1.194-2.204-2.798-4.103-4.8-5.604l-7.187-4.912c-.995-.798-2.493-1.606-4.097-1.606l-7.678.011z"/><path id="path21_fill" d="M7.995 16.015c-4.39 0-7.995-3.6-7.995-8.008C0 3.6 3.594 0 7.995 0s7.995 3.6 7.995 8.008c0 4.408-3.594 8.007-7.995 8.007zm0-14.01c-3.301 0-5.993 2.696-5.993 6.003 0 3.306 2.692 6.002 5.993 6.002 3.3 0 5.993-2.696 5.993-6.002 0-3.307-2.692-6.003-5.993-6.003z"/><path id="path22_fill" d="M.995 16.003c-.597 0-.995-.398-.995-.996C0 8.1 7.597 0 13.988 0c.597 0 .995.399.995.997 0 .597-.398.996-.995.996-5.29 0-11.986 7.304-11.986 13.002-.012.598-.41 1.008-1.007 1.008z"/></defs></svg>