<svg width="60" height="60" xmlns="http://www.w3.org/2000/svg" xmlns:xlink="http://www.w3.org/1999/xlink"><use xlink:href="#path0_fill" fill="#231F20"/><defs><path id="path0_fill" d="M24 40.5c3.6 0 7.5-8.4 7.5-16.5 0-4.2-3.3-7.5-7.5-7.5s-7.5 3.3-7.5 7.5c0 8.1 3.9 16.5 7.5 16.5zM9.3 44.4c-1.5 1.8-2.7 4.2-3.3 6 1.2.3 2.4.9 3.9 1.2C14.4 53.1 19.2 54 24 54c4.8 0 9.6-.9 14.1-2.1 1.5-.3 2.7-.9 3.9-1.2-.6-1.8-1.5-4.2-3.3-6-1.5-1.5-3.3-3-5.4-3.9-2.1 3.3-5.1 5.7-9 5.7-3.9 0-6.9-2.4-9-5.7-2.7.9-4.5 2.1-6 3.6zm28.2-18.9c2.7 0 6-6.9 6-13.8 0-3.3-2.7-5.7-6-5.7s-6 2.7-6 5.7v.9c3.6 2.4 6 6.6 6 11.1v1.8zm-1.8 9.6c2.7 1.2 5.1 3 7.2 5.1 2.7-.3 5.4-.9 7.8-1.8 1.2-.3 2.4-.9 3.3-1.2-.3-2.1-.9-4.5-2.4-6.3-1.5-1.8-3.3-3.3-6-4.2-1.8 3-4.5 5.1-8.1 5.1h-.9c-.3.9-.6 2.1-.9 3.3zM37.5 0c6.6 0 12 5.4 12 11.7 0 2.4-.6 6-1.5 9.3 3.6 1.2 6.3 3.6 8.4 6.3C58.8 30.9 60 35.1 60 39c0 1.2-.6 2.1-1.5 2.7-1.2.6-3.3 1.5-6 2.4-2.1.6-4.2 1.2-6.3 1.5 1.2 2.4 1.5 4.8 1.5 6.9 0 1.2-.6 2.1-1.8 2.7-1.2.6-3.6 1.5-6.6 2.4C34.5 59.1 29.4 60 24 60s-10.5-.9-15.6-2.4c-3-.9-5.4-1.8-6.6-2.4C.6 54.6 0 53.7 0 52.5c0-3.6 1.8-8.4 4.8-12 2.1-2.4 4.5-4.2 7.5-5.4-1.2-3.9-1.8-8.1-1.8-11.1 0-7.5 6-13.5 13.5-13.5h1.5c.6-6 5.7-10.5 12-10.5z"/></defs></svg>