<svg width="68" height="58" xmlns="http://www.w3.org/2000/svg" xmlns:xlink="http://www.w3.org/1999/xlink"><use xlink:href="#path0_fill" transform="translate(33.5 41.861)" fill="#00998F"/><use xlink:href="#path1_fill" fill="#00998F"/><use xlink:href="#path2_fill" transform="translate(47.5 23.248)" fill="#00998F"/><defs><path id="path0_fill" d="M1.09 0C.49 0 0 .495 0 1.096v2.327c0 .602.491 1.096 1.09 1.096.597 0 1.088-.494 1.088-1.096V1.096A1.08 1.08 0 0 0 1.09 0z"/><path id="path1_fill" d="M67.35 26.243a2.201 2.201 0 0 0-1.581-.655h-2.776c-.04 0-.053-.04-.066-.08a23.385 23.385 0 0 0-4.954-10.282 22.96 22.96 0 0 0-8.886-6.512c-.557-2.34-1.713-4.76-4.01-6.579C42.845.357 40.6.022 40.507.01a1.128 1.128 0 0 0-.862.254 1.08 1.08 0 0 0-.372.83v5.883H35.34c-.97-3.357-4.05-5.817-7.69-5.817-3.718 0-6.853 2.567-7.756 6.03a22.904 22.904 0 0 0-13.932 7.408C2.112 18.863 0 24.385 0 30.161c0 12.944 6.68 23.467 8.726 26.395A3.417 3.417 0 0 0 11.488 58h4.609c1.872 0 3.387-1.538 3.387-3.41v-1.51a22.33 22.33 0 0 0 3.532.267h10.466v1.23c0 1.885 1.527 3.41 3.387 3.41h5.06a3.415 3.415 0 0 0 3.32-2.701l.571-2.608c7.12-1.738 12.843-6.766 15.659-13.29h4.29A2.244 2.244 0 0 0 68 37.14v-9.306c0-.602-.24-1.177-.65-1.592zM27.651 3.34c3.227 0 5.843 2.634 5.843 5.883a5.9 5.9 0 0 1-.504 2.393H22.313a5.906 5.906 0 0 1-.505-2.393c-.014-3.236 2.616-5.883 5.844-5.883zm38.183 33.789c0 .04-.026.066-.066.066h-3.48c.584-1.858.956-3.81 1.063-5.83a1.098 1.098 0 0 0-1.023-1.15 1.096 1.096 0 0 0-1.142 1.03c-.465 8.906-6.481 16.5-14.849 19.028l1.514-7.114a1.105 1.105 0 0 0-.836-1.297 1.097 1.097 0 0 0-1.289.842L43.15 54.819c-.12.561-.624.976-1.196.976h-5.06a1.223 1.223 0 0 1-1.222-1.23V49.91c0-.601-.491-1.096-1.089-1.096-.597 0-1.089.495-1.089 1.096v1.23H23.03c-1.182 0-2.378-.106-3.533-.307v-7.916c0-.601-.491-1.096-1.09-1.096-.597 0-1.088.495-1.088 1.096V54.55c0 .682-.545 1.23-1.222 1.23h-4.609a1.19 1.19 0 0 1-.996-.521C8.54 52.478 2.165 42.423 2.165 30.12c0-5.228 1.912-10.229 5.405-14.093 3.188-3.544 7.438-5.87 12.073-6.632a8.14 8.14 0 0 0 .359 2.193h-.439a1.098 1.098 0 0 0 0 2.192h16.164c.597 0 1.089-.494 1.089-1.096 0-.602-.492-1.056-1.09-1.056h-.438a8.103 8.103 0 0 0 .359-2.394v-.067h3.612v2.394c0 .602.492 1.096 1.09 1.096.597 0 1.089-.494 1.089-1.096v-9.04c2.058.79 5.923 3.183 5.923 10.203 0 .602.491 1.097 1.089 1.097s1.09-.495 1.09-1.097c0-.468-.014-.95-.054-1.457A21.003 21.003 0 0 1 60.815 25.95a2.248 2.248 0 0 0 2.191 1.818h2.776c.013 0 .027 0 .053.026.027.027.027.04.027.054v9.28h-.027z"/><path id="path2_fill" d="M4.492 0C2.513 0 .734 1.217.07 3.035c-.213.562.08 1.19.637 1.404a1.085 1.085 0 0 0 1.395-.642C2.46 2.835 3.416 2.18 4.505 2.18c1.09 0 2.046.656 2.404 1.618a1.07 1.07 0 0 0 1.382.642c.557-.214.85-.842.637-1.404C8.251 1.217 6.471 0 4.492 0z"/></defs></svg>