<svg width="190" height="163" xmlns="http://www.w3.org/2000/svg" xmlns:xlink="http://www.w3.org/1999/xlink"><use xlink:href="#path0_stroke" transform="translate(20 147.22)" fill="#18A29B"/><use xlink:href="#path1_stroke" transform="translate(139 139.48)" fill="#18A29B"/><use xlink:href="#path2_stroke" transform="translate(43.5 149)" fill="#18A29B"/><use xlink:href="#path3_stroke" transform="translate(68.3 149)" fill="#18A29B"/><use xlink:href="#path2_stroke" transform="translate(93.1 149)" fill="#18A29B"/><use xlink:href="#path4_stroke" transform="translate(30.3 149)" fill="#18A29B"/><use xlink:href="#path5_stroke" transform="translate(118 149)" fill="#18A29B"/><use xlink:href="#path6_stroke" transform="translate(1 59.83)" fill="#18A29B"/><use xlink:href="#path7_stroke" transform="translate(71.2 81.58)" fill="#18A29B"/><use xlink:href="#path8_stroke" transform="translate(21.8 6.46)" fill="#18A29B"/><use xlink:href="#path9_stroke" transform="translate(56 144.78)" fill="#18A29B"/><use xlink:href="#path10_stroke" transform="translate(56 1)" fill="#18A29B"/><use xlink:href="#path11_stroke" transform="translate(101 73.88)" fill="#18A29B"/><use xlink:href="#path12_stroke" transform="translate(101 144.63)" fill="#18A29B"/><use xlink:href="#path11_stroke" transform="translate(101 73.88)" fill="#18A29B"/><use xlink:href="#path13_stroke" transform="translate(101 32.52)" fill="#18A29B"/><use xlink:href="#path14_stroke" transform="translate(110.2 84.07)" fill="#18A29B"/><use xlink:href="#path15_stroke" transform="translate(69.3 45.06)" fill="#18A29B"/><use xlink:href="#path16_stroke" transform="translate(3.5 158.15)" fill="#18A29B"/><use xlink:href="#path17_stroke" transform="translate(167.2 131.93)" fill="#18A29B"/><use xlink:href="#path18_stroke" transform="translate(23.2 153.26)" fill="#18A29B"/><use xlink:href="#path19_stroke" transform="translate(102.3 75.13)" fill="#18A29B"/><defs><path id="path0_stroke" d="M12.011 15.225a.5.5 0 0 0 .464-.886l-.464.886zM5.24 8.852l.382-.323-.002-.001-.38.324zM0 .008v-.5a.5.5 0 0 0-.46.694L0 .008zm124.659 0v.5a.502.502 0 0 0 .278-.084l-.278-.416zm-8.819 5.566l.285.411h.001l-.286-.41zm-8.743 6.915a.5.5 0 1 0 .678.736l-.678-.736zm-94.854 2.293l.232-.443h-.001l-.006-.004a22.639 22.639 0 0 1-2.146-1.4 27.775 27.775 0 0 1-4.7-4.406l-.765.645a28.774 28.774 0 0 0 4.871 4.567c.674.497 1.24.865 1.64 1.11a15.284 15.284 0 0 0 .639.372l.002.001h.001l.233-.442zM5.62 8.528C4.15 6.8 2.86 4.626 1.934 2.87A47.681 47.681 0 0 1 .559.042a21.904 21.904 0 0 1-.097-.224v-.003H.46a528.929 528.929 0 0 1-.922.388l.002.004a8.042 8.042 0 0 0 .103.238A48.677 48.677 0 0 0 1.05 3.337c.94 1.781 2.27 4.03 3.81 5.839l.761-.648zM0 .508h124.659v-1H0v1zM124.937.424a.543.543 0 0 0 .074-.058l.039-.04a.982.982 0 0 0 .085-.141c.03-.118-.03-.43-.161-.582a.896.896 0 0 0-.354-.1.92.92 0 0 0-.129.03c-.026.01-.046.02-.049.021l-.018.01-.027.015-.163.095a265.975 265.975 0 0 0-3.042 1.853c-1.88 1.164-4.173 2.614-5.639 3.637l.573.82c1.44-1.005 3.712-2.442 5.592-3.606a266.242 266.242 0 0 1 3.025-1.843c.073-.043.121-.072.146-.085l.008-.005-.008.004a.47.47 0 0 1-.169.049.893.893 0 0 1-.354-.101c-.132-.151-.192-.464-.161-.581a.889.889 0 0 1 .085-.14.813.813 0 0 1 .07-.068c.015-.012.027-.02.021-.015l.556.831zm-9.382 4.74c-1.042.723-3.169 2.567-5.008 4.205a306.53 306.53 0 0 0-2.419 2.178l-.752.686-.206.19a4.536 4.536 0 0 0-.054.05l-.014.012-.004.003-.001.001.339.368.339.368.001-.001.003-.003.014-.013.053-.05.206-.188.749-.684c.629-.572 1.488-1.35 2.41-2.17 1.857-1.653 3.933-3.45 4.914-4.13l-.57-.822z"/><path id="path1_stroke" d="M5.698 7.75v.5a.5.5 0 0 0 .163-.026l-.163-.473zM28.16 0l.164.473A.5.5 0 0 0 28.16-.5V0zM23.5 0v-.5a.5.5 0 0 0-.157.025L23.5 0zM0 7.75l-.157-.474A.5.5 0 0 0 0 8.251v-.5zm5.861.474L28.324.473l-.327-.946L5.535 7.278l.326.946zM28.161-.5H23.5v1h4.66v-1zm-4.818.025l-23.5 7.751.314.95 23.5-7.751-.314-.95zM0 8.251h5.698v-1H0v1z"/><path id="path2_stroke" d="M0 0v-.5a.5.5 0 0 0-.5.5H0zm22.93 0h.5a.5.5 0 0 0-.5-.5V0zm0 2.445v.5a.5.5 0 0 0 .5-.5h-.5zM0 2.445h-.5a.5.5 0 0 0 .5.5v-.5zM0 .5h22.93v-1H0v1zM22.43 0v2.445h1V0h-1zm.5 1.945H0v1h22.93v-1zm-22.43.5V0h-1v2.445h1z"/><path id="path3_stroke" d="M0 0v-.5a.5.5 0 0 0-.5.5H0zm22.93 0h.5a.5.5 0 0 0-.5-.5V0zm0 2.445v.5a.5.5 0 0 0 .5-.5h-.5zM0 2.445h-.5a.5.5 0 0 0 .5.5v-.5zM0 .5h22.93v-1H0v1zM22.43 0v2.445h1V0h-1zm.5 1.945H0v1h22.93v-1zm-22.43.5V0h-1v2.445h1z"/><path id="path4_stroke" d="M0 0v-.5a.5.5 0 0 0-.5.5H0zm11.465 0h.5a.5.5 0 0 0-.5-.5V0zm0 2.445v.5a.5.5 0 0 0 .5-.5h-.5zM0 2.445h-.5a.5.5 0 0 0 .5.5v-.5zM0 .5h11.465v-1H0v1zM10.965 0v2.445h1V0h-1zm.5 1.945H0v1h11.465v-1zM.5 2.445V0h-1v2.445h1z"/><path id="path5_stroke" d="M0 0v-.5a.5.5 0 0 0-.5.5H0zm11.465 0h.5a.5.5 0 0 0-.5-.5V0zm0 2.445v.5a.5.5 0 0 0 .5-.5h-.5zM0 2.445h-.5a.5.5 0 0 0 .5.5v-.5zM0 .5h11.465v-1H0v1zM10.965 0v2.445h1V0h-1zm.5 1.945H0v1h11.465v-1zM.5 2.445V0h-1v2.445h1z"/><path id="path6_stroke" d="M17.12 0l.245-.436a.5.5 0 0 0-.746.42l.5.016zm38.75 21.848l.5-.03a.5.5 0 0 0-.254-.405l-.245.435zm3.788 62.944l-.113.487a.5.5 0 0 0 .612-.517l-.5.03zm-28.014-5.15l-.055.496.056-.496zM0 78.705l-.455-.206a.5.5 0 0 0 .481.706l-.026-.5zm13.228-36.31l-.49-.099.49.1zM16.874.436l38.751 21.849.491-.871L17.365-.436l-.491.872zm38.498 21.443l3.787 62.944.998-.06-3.787-62.944-.998.06zm4.286 62.914l.112-.488h-.003l-.01-.003-.037-.008a88.28 88.28 0 0 0-.712-.161 442.808 442.808 0 0 0-9.193-1.956c-5.65-1.14-12.671-2.43-18.116-3.031l-.11.994c5.398.595 12.383 1.879 18.03 3.017a441.017 441.017 0 0 1 9.732 2.078l.145.034.037.008.01.002h.002l.113-.486zM31.7 79.145c-7.884-.887-15.815-1.122-21.771-1.135-2.98-.006-5.466.043-7.21.093a164.823 164.823 0 0 0-2.56.094l-.138.007-.035.001h-.009l-.002.001.025.5.026.499h.011a4.654 4.654 0 0 1 .17-.01l.529-.022c.464-.02 1.145-.045 2.013-.07 1.734-.05 4.21-.1 7.178-.093 5.936.013 13.827.247 21.662 1.128l.111-.993zM0 78.705a49.581 49.581 0 0 0 .456.206l.001-.004.006-.013.023-.05a92.351 92.351 0 0 0 .433-.969 370.391 370.391 0 0 0 5.187-12.32c2.983-7.471 6.306-16.587 7.613-23.06l-.98-.198C11.45 48.672 8.16 57.712 5.176 65.183A369.386 369.386 0 0 1 .005 77.47a202.256 202.256 0 0 1-.459 1.026l-.001.003.455.207zm13.718-36.21c1.486-7.292 2.46-17.92 3.064-26.705a529.201 529.201 0 0 0 .79-14.544c.017-.396.028-.703.036-.911l.008-.237.002-.06v-.02L17.12 0l-.5-.016v.019a18.932 18.932 0 0 0-.01.295l-.035.909a527.126 527.126 0 0 1-.79 14.514c-.603 8.785-1.574 19.354-3.046 26.575l.98.2z"/><path id="path7_stroke" d="M7.366 0l.226-.446a.5.5 0 0 0-.726.445l.5.001zm24.642 12.485l.497-.048a.5.5 0 0 0-.271-.398l-.226.446zm4.876 51.343l-.112.487a.5.5 0 0 0 .61-.534l-.498.047zm-17.327-3.173l-.055.496h.001l.054-.496zM0 60.082l-.477-.151a.5.5 0 0 0 .503.65L0 60.083zM6.277 31.94l.498.044v-.003l-.498-.041zM7.14.446l24.642 12.485.452-.892L7.592-.446 7.14.446zm24.37 12.086l4.876 51.343.996-.094-4.877-51.344-.995.095zm5.374 51.296l.112-.488h-.002l-.006-.001-.023-.006-.091-.02-.35-.08c-.305-.068-.748-.167-1.3-.287a272.19 272.19 0 0 0-4.395-.922c-3.498-.703-7.848-1.5-11.218-1.866l-.108.994c3.323.361 7.636 1.15 11.129 1.852a270.594 270.594 0 0 1 6.02 1.284l.09.02.023.005.005.002a.01.01 0 0 1 .002 0l.112-.487zm-17.271-3.67c-4.901-.55-9.81-.693-13.49-.7-1.842-.002-3.377.029-4.453.06a100.073 100.073 0 0 0-1.667.064h-.022l-.005.001h-.002l.026.5.027.499h.006l.02-.002.083-.004.325-.014c.286-.012.705-.028 1.238-.044a144.55 144.55 0 0 1 4.422-.06c3.66.007 8.529.15 13.38.694l.112-.994zM0 60.082l.477.152v-.003l.004-.01.01-.036a56.049 56.049 0 0 0 .214-.687c.146-.476.355-1.167.61-2.033a220.94 220.94 0 0 0 1.919-6.96c1.44-5.585 3.019-12.653 3.541-18.52l-.996-.09c-.515 5.785-2.076 12.788-3.514 18.36a219.998 219.998 0 0 1-2.516 8.95 107.069 107.069 0 0 1-.21.68l-.012.035-.003.008v.002l.476.152zm6.775-28.101c.52-6.31.793-14.307.936-20.72A691.685 691.685 0 0 0 7.866.057V.016a5.61 5.61 0 0 1 0-.014L7.366 0l-.5-.001v.055a219.773 219.773 0 0 1-.004.799 690.647 690.647 0 0 1-.151 10.385c-.143 6.41-.415 14.382-.932 20.66l.996.083z"/><path id="path8_stroke" d="M0 49.73l-.345-.361a.5.5 0 0 0 .067.777L0 49.73zm34.913 23.41l-.279.415a.5.5 0 0 0 .778-.448l-.5.032zM30.243 0l.5-.032a.5.5 0 0 0-.977-.114l.478.146zM17.172 29.651l-.424-.265-.002.003.426.262zM-.279 50.146l34.913 23.409.557-.831L.278 49.315l-.556.83zm35.69 22.961L30.744-.032l-.998.064 4.669 73.14.998-.065zM30.245 0l-.478-.146-.001.003a1.276 1.276 0 0 0-.014.045 82.736 82.736 0 0 1-.222.7c-.156.488-.389 1.2-.692 2.092A172.09 172.09 0 0 1 26.2 9.903c-2.278 5.82-5.533 13.2-9.452 19.483l.848.53c3.966-6.358 7.248-13.804 9.535-19.649a172.808 172.808 0 0 0 2.654-7.25 130.37 130.37 0 0 0 .922-2.82l.012-.038.003-.01V.147h.001L30.244 0zM16.746 29.389c-2.75 4.456-7.015 9.447-10.61 13.337A176.21 176.21 0 0 1 .162 48.88a91.432 91.432 0 0 1-.498.482l-.006.006-.002.001.345.362.345.362.002-.002a177.175 177.175 0 0 0 6.524-6.685c3.604-3.9 7.924-8.949 10.726-13.492l-.852-.524z"/><path id="path9_stroke" d="M.5 0a.5.5 0 0 0-1 0h1zm-1 1.717a.5.5 0 1 0 1 0h-1zM-.5 0v1.717h1V0h-1z"/><path id="path10_stroke" d="M.5 0a.5.5 0 0 0-1 0h1zm-1 50.199a.5.5 0 1 0 1 0h-1zM-.5 0v50.199h1V0h-1z"/><path id="path11_stroke" d="M.5 0a.5.5 0 0 0-1 0h1zm-1 17.375a.5.5 0 0 0 1 0h-1zM-.5 0v17.375h1V0h-1z"/><path id="path12_stroke" d="M.5 0a.5.5 0 0 0-1 0h1zm-1 1.873a.5.5 0 0 0 1 0h-1zM-.5 0v1.873h1V0h-1z"/><path id="path13_stroke" d="M.5 0a.5.5 0 0 0-1 0h1zm-1 13.369a.5.5 0 0 0 1 0h-1zM-.5 0v13.369h1V0h-1z"/><path id="path14_stroke" d="M0 0l.364-.343a.5.5 0 0 0-.849.465L0 0zm5.706 30.171l.498-.047-.498.047zm-1.66 26.634l-.49-.094a.5.5 0 0 0 .645.57l-.155-.476zm17.275-3.433l.047.498-.047-.498zm29.48.553l-.196.46a.5.5 0 0 0 .56-.803l-.364.343zM0 0l-.485.122v.003l.003.01a51.116 51.116 0 0 1 .048.192l.147.595a352.089 352.089 0 0 1 2.223 9.761C3.22 16.721 4.641 24.24 5.21 30.22l.995-.095C5.631 24.086 4.2 16.52 2.914 10.476A353.048 353.048 0 0 0 .684.684a178.776 178.776 0 0 0-.196-.793l-.002-.01v-.003H.484L0 0zm5.209 30.218c.566 5.986.154 12.606-.402 17.742a132.947 132.947 0 0 1-.835 6.303 101.092 101.092 0 0 1-.409 2.407l-.006.031-.001.008v.001l.49.095.491.094.001-.002c0-.002 0-.005.002-.009 0-.007.003-.018.006-.032a33.763 33.763 0 0 0 .11-.614c.076-.424.181-1.043.304-1.823.246-1.56.562-3.767.841-6.351.56-5.164.978-11.86.403-17.944l-.995.094zM4.046 56.805l.155.476h.001l.004-.002.016-.005.065-.021.261-.081c.23-.07.57-.173 1.008-.298a85.431 85.431 0 0 1 3.703-.968c3.123-.744 7.418-1.597 12.109-2.036l-.093-.996c-4.751.445-9.094 1.308-12.248 2.06a87.71 87.71 0 0 0-3.747.978 58.275 58.275 0 0 0-1.364.41l-.018.006a.085.085 0 0 0-.004.001h-.002l.154.476zM21.37 53.87c5.16-.492 11.899-.614 17.655-.482 2.877.066 5.502.195 7.556.371 1.027.089 1.906.188 2.6.297.709.111 1.182.226 1.425.33l.391-.921c-.367-.156-.95-.285-1.66-.397a39.948 39.948 0 0 0-2.67-.305c-2.082-.179-4.729-.309-7.62-.375-5.778-.132-12.558-.01-17.772.486l.095.996zm29.796-.288L.364-.343l-.728.686 50.8 53.925.729-.686z"/><path id="path15_stroke" d="M7.263 4.682l-.049-.498a.5.5 0 0 0-.447.429l.496.069zM55.61 0l.458-.203a.5.5 0 0 0-.506-.295L55.61 0zm7.522 14.773l-.427.26.001.002.426-.261zm8.82 13.578l-.104.489a.5.5 0 0 0 .516-.772l-.413.283zm-38.493-1.3l-.064-.497.064.496zM0 39.013l-.482-.134a.5.5 0 0 0 .722.573L0 39.014zm4.41-17.166l-.49-.106v.002l.49.104zM7.31 5.18L55.66.498l-.097-.996L7.214 4.184l.097.995zM55.612 0l-.457.203.001.001.002.005.009.02.034.076a122.022 122.022 0 0 0 .629 1.386c.427.928 1.033 2.226 1.751 3.71 1.435 2.962 3.324 6.673 5.126 9.633l.854-.52c-1.777-2.919-3.649-6.595-5.08-9.55A204.587 204.587 0 0 1 56.244.188l-.131-.29-.033-.076a2.17 2.17 0 0 0-.01-.023l-.001-.001L55.61 0zm7.096 15.035a336.995 336.995 0 0 0 5.975 9.339 396.832 396.832 0 0 0 2.804 4.18l.04.06.01.014.003.004v.001l.413-.282.413-.283v-.001l-.003-.004-.01-.014-.04-.059-.155-.227c-.135-.199-.334-.49-.584-.863a397.222 397.222 0 0 1-2.057-3.078 336.129 336.129 0 0 1-5.956-9.31l-.853.523zm9.245 13.316l.104-.49h-.004l-.01-.003L72 27.85a34.284 34.284 0 0 0-.786-.154 90.62 90.62 0 0 0-2.374-.408c-2.05-.327-4.99-.735-8.56-1.061-7.136-.652-16.798-.98-26.884.327l.128.992c9.99-1.294 19.575-.971 26.665-.323 3.544.324 6.463.729 8.494 1.052a88.61 88.61 0 0 1 2.96.523 30.464 30.464 0 0 1 .194.04l.01.001h.001l.104-.488zm-38.556-1.797c-7.668.998-16.083 4.01-22.561 6.76a149.93 149.93 0 0 0-7.967 3.661 119.018 119.018 0 0 0-3.053 1.571l-.04.022-.011.006-.003.001.239.44.24.438.003-.001a2.138 2.138 0 0 0 .048-.026 48.028 48.028 0 0 1 .755-.401 117.31 117.31 0 0 1 2.267-1.154 148.84 148.84 0 0 1 7.912-3.637c6.452-2.739 14.768-5.709 22.3-6.688l-.13-.992zM0 39.014l.482.134v-.002l.002-.006.007-.025.027-.098c.024-.086.06-.213.104-.377.09-.327.221-.8.381-1.386.32-1.171.76-2.791 1.238-4.587.953-3.59 2.058-7.892 2.658-10.715l-.979-.208C3.327 24.54 2.227 28.82 1.274 32.41A647.688 647.688 0 0 1-.48 38.878v.002l.481.134zm4.898-17.06c.652-3.007 1.367-7.311 1.918-10.856a471.452 471.452 0 0 0 .937-6.315l.004-.024v-.008a144.023 144.023 0 0 0-.99-.138v.008a30.873 30.873 0 0 0-.017.118 260.913 260.913 0 0 1-.246 1.712c-.166 1.14-.4 2.724-.676 4.494-.55 3.543-1.262 7.822-1.907 10.797l.977.212z"/><path id="path16_stroke" d="M146.169 0a.5.5 0 0 0-1 0h1zm-11.206 0a.5.5 0 0 0-1 0h1zm-11.205 0a.5.5 0 0 0-1 0h1zm-11.205 0a.5.5 0 0 0-1 0h1zm-11.206 0a.5.5 0 1 0-1 0h1zM90.142 0a.5.5 0 0 0-1 0h1zM78.937 0a.5.5 0 1 0-1 0h1zM67.732 0a.5.5 0 0 0-1 0h1zM56.526 0a.5.5 0 0 0-1 0h1zM45.321 0a.5.5 0 0 0-1 0h1zM34.116 0a.5.5 0 1 0-1 0h1zM22.91 0a.5.5 0 1 0-1 0h1zM11.705 0a.5.5 0 0 0-1 0h1zM.5 0a.5.5 0 0 0-1 0h1zm144.669 0c0 .85-.506 1.662-1.432 2.283-.925.62-2.226 1.014-3.671 1.014v1c1.616 0 3.116-.438 4.228-1.183 1.109-.744 1.875-1.831 1.875-3.114h-1zm-5.103 3.297c-1.442 0-2.742-.405-3.669-1.032-.931-.63-1.434-1.443-1.434-2.265h-1c0 1.259.768 2.345 1.874 3.093 1.109.751 2.61 1.204 4.229 1.204v-1zM133.963 0c0 .85-.505 1.662-1.432 2.283-.925.62-2.225 1.014-3.67 1.014v1c1.615 0 3.116-.438 4.227-1.183 1.11-.744 1.875-1.831 1.875-3.114h-1zm-5.102 3.297c-1.469 0-2.769-.406-3.687-1.031-.922-.628-1.416-1.44-1.416-2.266h-1c0 1.255.751 2.342 1.853 3.092 1.104.753 2.606 1.205 4.25 1.205v-1zM122.758 0c0 .85-.505 1.662-1.432 2.283-.925.62-2.225 1.014-3.671 1.014v1c1.616 0 3.117-.438 4.228-1.183 1.109-.744 1.875-1.831 1.875-3.114h-1zm-5.103 3.297c-1.469 0-2.768-.406-3.687-1.031-.921-.628-1.415-1.44-1.415-2.266h-1c0 1.255.751 2.342 1.852 3.092 1.105.753 2.607 1.205 4.25 1.205v-1zM111.553 0c0 .85-.506 1.662-1.432 2.283-.925.62-2.226 1.014-3.671 1.014v1c1.616 0 3.116-.438 4.228-1.183 1.109-.744 1.875-1.831 1.875-3.114h-1zm-5.103 3.297c-1.469 0-2.769-.406-3.687-1.031-.921-.628-1.416-1.44-1.416-2.266h-1c0 1.255.751 2.342 1.853 3.092 1.105.753 2.607 1.205 4.25 1.205v-1zM100.347 0c0 .85-.505 1.662-1.432 2.283-.924.62-2.225 1.014-3.67 1.014v1c1.615 0 3.116-.438 4.227-1.183 1.11-.744 1.875-1.831 1.875-3.114h-1zm-5.102 3.297c-1.47 0-2.769-.406-3.687-1.031-.922-.628-1.416-1.44-1.416-2.266h-1c0 1.255.751 2.342 1.853 3.092 1.105.753 2.606 1.205 4.25 1.205v-1zM89.142 0c0 .85-.505 1.662-1.432 2.283-.925.62-2.225 1.014-3.67 1.014v1c1.615 0 3.116-.438 4.227-1.183 1.11-.744 1.875-1.831 1.875-3.114h-1zM84.04 3.297c-1.47 0-2.77-.406-3.687-1.031C79.43 1.638 78.937.826 78.937 0h-1c0 1.255.75 2.342 1.853 3.092 1.104.753 2.606 1.205 4.25 1.205v-1zM77.937 0c0 .85-.505 1.662-1.432 2.283-.925.62-2.226 1.014-3.67 1.014v1c1.615 0 3.116-.438 4.227-1.183 1.11-.744 1.875-1.831 1.875-3.114h-1zm-5.103 3.297c-1.469 0-2.768-.406-3.687-1.031-.921-.628-1.415-1.44-1.415-2.266h-1c0 1.255.75 2.342 1.852 3.092 1.105.753 2.607 1.205 4.25 1.205v-1zM66.732 0c0 .85-.506 1.662-1.432 2.283-.925.62-2.226 1.014-3.671 1.014v1c1.616 0 3.116-.438 4.228-1.183 1.11-.744 1.875-1.831 1.875-3.114h-1zm-5.103 3.297c-1.442 0-2.742-.405-3.669-1.032-.93-.63-1.434-1.443-1.434-2.265h-1c0 1.259.768 2.345 1.874 3.093 1.11.751 2.61 1.204 4.229 1.204v-1zM55.526 0c0 .85-.505 1.662-1.432 2.283-.925.62-2.225 1.014-3.67 1.014v1c1.615 0 3.116-.438 4.227-1.183 1.11-.744 1.875-1.831 1.875-3.114h-1zm-5.102 3.297c-1.442 0-2.743-.405-3.669-1.032-.93-.63-1.434-1.443-1.434-2.265h-1c0 1.259.768 2.345 1.873 3.093 1.11.751 2.61 1.204 4.23 1.204v-1zM44.32 0c0 .85-.505 1.662-1.432 2.283-.925.62-2.225 1.014-3.67 1.014v1c1.615 0 3.116-.438 4.227-1.183C44.555 2.37 45.32 1.283 45.32 0h-1zm-5.1 3.297c-1.47 0-2.77-.406-3.688-1.031C34.61 1.638 34.117.826 34.117 0h-1c0 1.255.75 2.342 1.852 3.092 1.105.753 2.607 1.205 4.25 1.205v-1zM33.115 0c0 .85-.506 1.662-1.432 2.283-.925.62-2.226 1.014-3.67 1.014v1c1.615 0 3.115-.438 4.227-1.183C33.35 2.37 34.116 1.283 34.116 0h-1zm-5.103 3.297c-1.442 0-2.742-.405-3.669-1.032C23.414 1.635 22.91.822 22.91 0h-1c0 1.259.768 2.345 1.874 3.093 1.11.751 2.61 1.204 4.23 1.204v-1zM21.91 0c0 .85-.505 1.662-1.431 2.283-.925.62-2.226 1.014-3.671 1.014v1c1.616 0 3.116-.438 4.227-1.183C22.145 2.37 22.91 1.283 22.91 0h-1zm-5.102 3.297c-1.442 0-2.742-.405-3.669-1.032-.93-.63-1.434-1.443-1.434-2.265h-1c0 1.259.768 2.345 1.873 3.093 1.11.751 2.611 1.204 4.23 1.204v-1zM10.705 0c0 .85-.505 1.662-1.432 2.283-.925.62-2.225 1.014-3.67 1.014v1c1.615 0 3.116-.438 4.227-1.183C10.94 2.37 11.705 1.283 11.705 0h-1zM5.603 3.297c-1.442 0-2.743-.405-3.67-1.032C1.004 1.635.5.822.5 0h-1c0 1.259.768 2.345 1.873 3.093 1.11.751 2.61 1.204 4.23 1.204v-1z"/><path id="path17_stroke" d="M-.163 7.07a.5.5 0 1 0 .326.945l-.326-.945zM22.003.473a.5.5 0 1 0-.326-.946l.326.946zM.163 8.015L22.003.473l-.326-.946L-.163 7.07l.326.945z"/><path id="path18_stroke" d="M0-.5a.5.5 0 1 0 0 1v-1zm112.053 1a.5.5 0 0 0 0-1v1zM0 .5h112.053v-1H0v1z"/><path id="path19_stroke" d="M.375-.331a.5.5 0 0 0-.75.662l.75-.662zm6.098 8.413a.5.5 0 1 0 .75-.662l-.75.662zM-.375.33l6.848 7.75.75-.661L.374-.331l-.75.662z"/></defs></svg>