<svg width="214" height="151" xmlns="http://www.w3.org/2000/svg" xmlns:xlink="http://www.w3.org/1999/xlink"><use xlink:href="#path0_stroke" transform="translate(1 146.06)" fill="#18A29B"/><use xlink:href="#path1_stroke" transform="translate(6 94.53)" fill="#18A29B"/><use xlink:href="#path2_stroke" transform="translate(143 112.43)" fill="#18A29B"/><use xlink:href="#path3_stroke" transform="translate(7.5 128.81)" fill="#18A29B"/><use xlink:href="#path4_stroke" transform="translate(29.6 135.01)" fill="#18A29B"/><use xlink:href="#path5_stroke" transform="translate(35.1 135.01)" fill="#18A29B"/><use xlink:href="#path6_stroke" transform="translate(40.6 135.01)" fill="#18A29B"/><use xlink:href="#path5_stroke" transform="translate(46.2 135.01)" fill="#18A29B"/><use xlink:href="#path6_stroke" transform="translate(51.7 135.01)" fill="#18A29B"/><use xlink:href="#path7_stroke" transform="translate(57.1 135.01)" fill="#18A29B"/><use xlink:href="#path8_stroke" transform="translate(62.6 135.01)" fill="#18A29B"/><use xlink:href="#path7_stroke" transform="translate(68.2 135.01)" fill="#18A29B"/><use xlink:href="#path9_stroke" transform="translate(73.7 135.01)" fill="#18A29B"/><use xlink:href="#path10_stroke" transform="translate(79.2 135.01)" fill="#18A29B"/><use xlink:href="#path11_stroke" transform="translate(84.7 135.01)" fill="#18A29B"/><use xlink:href="#path6_stroke" transform="translate(90.1 135.01)" fill="#18A29B"/><use xlink:href="#path11_stroke" transform="translate(95.7 135.01)" fill="#18A29B"/><use xlink:href="#path6_stroke" transform="translate(101.2 135.01)" fill="#18A29B"/><use xlink:href="#path7_stroke" transform="translate(106.7 135.01)" fill="#18A29B"/><use xlink:href="#path9_stroke" transform="translate(112.2 135.01)" fill="#18A29B"/><use xlink:href="#path10_stroke" transform="translate(117.7 135.01)" fill="#18A29B"/><use xlink:href="#path9_stroke" transform="translate(123.2 135.01)" fill="#18A29B"/><use xlink:href="#path10_stroke" transform="translate(128.7 135.01)" fill="#18A29B"/><use xlink:href="#path11_stroke" transform="translate(134.2 135.01)" fill="#18A29B"/><use xlink:href="#path12_stroke" transform="translate(40.5 95.07)" fill="#18A29B"/><use xlink:href="#path13_stroke" transform="translate(40.5 65.47)" fill="#18A29B"/><use xlink:href="#path14_stroke" transform="translate(40.5 40.3)" fill="#18A29B"/><use xlink:href="#path15_stroke" transform="translate(40.5 26.71)" fill="#18A29B"/><use xlink:href="#path16_stroke" transform="translate(75.1 122.67)" fill="#18A29B"/><use xlink:href="#path17_stroke" transform="translate(75.1 82.94)" fill="#18A29B"/><use xlink:href="#path18_stroke" transform="translate(75.1 45.9)" fill="#18A29B"/><use xlink:href="#path19_stroke" transform="translate(75.1 18.57)" fill="#18A29B"/><use xlink:href="#path20_stroke" transform="translate(75.1 1)" fill="#18A29B"/><use xlink:href="#path21_stroke" transform="translate(127 124.72)" fill="#18A29B"/><use xlink:href="#path22_stroke" transform="translate(127 93.4)" fill="#18A29B"/><use xlink:href="#path23_stroke" transform="translate(127 57.33)" fill="#18A29B"/><use xlink:href="#path24_stroke" transform="translate(127 29.46)" fill="#18A29B"/><use xlink:href="#path25_stroke" transform="translate(127 13.56)" fill="#18A29B"/><use xlink:href="#path26_stroke" transform="translate(1.3 82.94)" fill="#18A29B"/><use xlink:href="#path27_stroke" transform="translate(27.9 69.84)" fill="#18A29B"/><use xlink:href="#path28_stroke" transform="translate(30.9 43.48)" fill="#18A29B"/><use xlink:href="#path29_stroke" transform="translate(62.6 20.68)" fill="#18A29B"/><use xlink:href="#path30_stroke" transform="translate(61.8 49.25)" fill="#18A29B"/><use xlink:href="#path31_stroke" transform="translate(54.5 92.1)" fill="#18A29B"/><use xlink:href="#path32_stroke" transform="translate(112.2 62.99)" fill="#18A29B"/><use xlink:href="#path33_stroke" transform="translate(108.1 100.24)" fill="#18A29B"/><use xlink:href="#path34_stroke" transform="translate(113.6 32.27)" fill="#18A29B"/><use xlink:href="#path35_stroke" transform="translate(119.2 16.36)" fill="#18A29B"/><use xlink:href="#path36_stroke" transform="translate(67.6 5.85)" fill="#18A29B"/><use xlink:href="#path37_stroke" transform="translate(76.1 1)" fill="#18A29B"/><use xlink:href="#path38_stroke" transform="translate(143 35.23)" fill="#18A29B"/><use xlink:href="#path39_stroke" transform="translate(89 9.79)" fill="#18A29B"/><use xlink:href="#path40_stroke" transform="translate(42.9 8.28)" fill="#18A29B"/><use xlink:href="#path41_stroke" transform="translate(32.6 30.11)" fill="#18A29B"/><use xlink:href="#path42_stroke" transform="translate(51 18.79)" fill="#18A29B"/><use xlink:href="#path43_stroke" transform="translate(92 24.99)" fill="#18A29B"/><use xlink:href="#path44_stroke" transform="translate(152.4 72.86)" fill="#18A29B"/><use xlink:href="#path45_stroke" transform="translate(9.2 53.24)" fill="#18A29B"/><defs><path id="path0_stroke" d="M163.297 0a.5.5 0 0 0-1 0h1zm-11.628 0a.5.5 0 0 0-1 0h1zM140.04 0a.5.5 0 1 0-1 0h1zm-11.628 0a.5.5 0 0 0-1 0h1zm-11.628 0a.5.5 0 0 0-1 0h1zm-11.629 0a.5.5 0 0 0-1 0h1zM93.527 0a.5.5 0 1 0-1 0h1zM81.899 0a.5.5 0 0 0-1 0h1zM70.27 0a.5.5 0 0 0-1 0h1zM58.642 0a.5.5 0 1 0-1 0h1zM47.013 0a.5.5 0 0 0-1 0h1zM35.386 0a.5.5 0 0 0-1 0h1zM23.757 0a.5.5 0 1 0-1 0h1zM12.128 0a.5.5 0 0 0-1 0h1zM.5 0a.5.5 0 0 0-1 0h1zm161.797 0c0 .888-.529 1.735-1.494 2.381-.963.645-2.317 1.054-3.82 1.054v1c1.673 0 3.227-.453 4.376-1.223 1.148-.769 1.938-1.89 1.938-3.212h-1zm-5.314 3.435c-1.5 0-2.853-.42-3.818-1.073-.97-.655-1.496-1.503-1.496-2.362h-1c0 1.297.792 2.417 1.936 3.19 1.148.777 2.701 1.245 4.378 1.245v-1zM150.669 0c0 .888-.529 1.735-1.494 2.381-.964.645-2.317 1.054-3.82 1.054v1c1.673 0 3.226-.453 4.376-1.223 1.148-.769 1.938-1.89 1.938-3.212h-1zm-5.314 3.435c-1.528 0-2.881-.421-3.838-1.072-.959-.653-1.477-1.5-1.477-2.363h-1c0 1.293.775 2.414 1.915 3.19 1.143.777 2.697 1.245 4.4 1.245v-1zM139.04 0c0 .888-.529 1.735-1.494 2.381-.963.645-2.317 1.054-3.82 1.054v1c1.673 0 3.227-.453 4.377-1.223 1.147-.769 1.937-1.89 1.937-3.212h-1zm-5.314 3.435c-1.528 0-2.88-.421-3.837-1.072-.96-.653-1.477-1.5-1.477-2.363h-1c0 1.293.775 2.414 1.915 3.19 1.143.777 2.697 1.245 4.399 1.245v-1zM127.412 0c0 .888-.529 1.735-1.494 2.381-.963.645-2.317 1.054-3.82 1.054v1c1.673 0 3.227-.453 4.376-1.223 1.148-.769 1.938-1.89 1.938-3.212h-1zm-5.314 3.435c-1.5 0-2.854-.42-3.818-1.073-.97-.655-1.496-1.503-1.496-2.362h-1c0 1.297.792 2.417 1.936 3.19 1.148.777 2.701 1.245 4.378 1.245v-1zM115.784 0c0 .888-.529 1.735-1.495 2.381-.963.645-2.316 1.054-3.82 1.054v1c1.674 0 3.227-.453 4.377-1.223 1.148-.769 1.938-1.89 1.938-3.212h-1zm-5.315 3.435c-1.528 0-2.88-.421-3.837-1.072-.959-.653-1.477-1.5-1.477-2.363h-1c0 1.293.775 2.414 1.915 3.19 1.143.777 2.697 1.245 4.399 1.245v-1zM104.155 0c0 .888-.529 1.735-1.494 2.381-.963.645-2.317 1.054-3.82 1.054v1c1.673 0 3.227-.453 4.377-1.223 1.147-.769 1.937-1.89 1.937-3.212h-1zm-5.314 3.435c-1.528 0-2.88-.421-3.837-1.072-.96-.653-1.477-1.5-1.477-2.363h-1c0 1.293.775 2.414 1.915 3.19 1.143.777 2.697 1.245 4.4 1.245v-1zM92.527 0c0 .888-.53 1.735-1.494 2.381-.964.645-2.317 1.054-3.82 1.054v1c1.673 0 3.226-.453 4.376-1.223 1.148-.769 1.938-1.89 1.938-3.212h-1zm-5.314 3.435c-1.5 0-2.854-.42-3.818-1.073-.97-.655-1.496-1.503-1.496-2.362h-1c0 1.297.792 2.417 1.936 3.19 1.148.777 2.701 1.245 4.378 1.245v-1zM80.899 0c0 .888-.53 1.735-1.495 2.381-.963.645-2.317 1.054-3.82 1.054v1c1.674 0 3.227-.453 4.377-1.223 1.148-.769 1.938-1.89 1.938-3.212h-1zm-5.315 3.435c-1.528 0-2.88-.421-3.837-1.072C70.787 1.71 70.27.863 70.27 0h-1c0 1.293.775 2.414 1.915 3.19 1.143.777 2.697 1.245 4.4 1.245v-1zM69.27 0c0 .888-.529 1.735-1.494 2.381-.963.645-2.317 1.054-3.82 1.054v1c1.673 0 3.227-.453 4.376-1.223C69.48 2.443 70.27 1.322 70.27 0h-1zm-5.314 3.435c-1.5 0-2.853-.42-3.818-1.073-.97-.655-1.496-1.503-1.496-2.362h-1c0 1.297.792 2.417 1.936 3.19 1.148.777 2.701 1.245 4.378 1.245v-1zM57.642 0c0 .888-.53 1.735-1.494 2.381-.964.645-2.317 1.054-3.82 1.054v1c1.673 0 3.226-.453 4.376-1.223 1.148-.769 1.938-1.89 1.938-3.212h-1zm-5.314 3.435c-1.5 0-2.854-.42-3.819-1.073C47.54 1.707 47.015.859 47.015 0h-1c0 1.297.792 2.417 1.935 3.19 1.149.777 2.702 1.245 4.379 1.245v-1zM46.013 0c0 .888-.529 1.735-1.494 2.381-.963.645-2.317 1.054-3.82 1.054v1c1.674 0 3.227-.453 4.377-1.223 1.148-.769 1.938-1.89 1.938-3.212h-1zM40.7 3.435c-1.5 0-2.853-.42-3.818-1.073-.97-.655-1.496-1.503-1.496-2.362h-1c0 1.297.792 2.417 1.936 3.19 1.148.777 2.702 1.245 4.378 1.245v-1zM34.385 0c0 .888-.529 1.735-1.494 2.381-.963.645-2.317 1.054-3.82 1.054v1c1.673 0 3.227-.453 4.376-1.223 1.148-.769 1.938-1.89 1.938-3.212h-1zm-5.314 3.435c-1.5 0-2.853-.42-3.818-1.073-.97-.655-1.496-1.503-1.496-2.362h-1c0 1.297.792 2.417 1.936 3.19 1.148.777 2.701 1.245 4.378 1.245v-1zM22.757 0c0 .888-.53 1.735-1.495 2.381-.963.645-2.316 1.054-3.82 1.054v1c1.674 0 3.227-.453 4.377-1.223 1.148-.769 1.938-1.89 1.938-3.212h-1zm-5.315 3.435c-1.5 0-2.853-.42-3.818-1.073C12.655 1.707 12.128.859 12.128 0h-1c0 1.297.793 2.417 1.936 3.19 1.149.777 2.702 1.245 4.378 1.245v-1zM11.128 0c0 .888-.529 1.735-1.494 2.381-.963.645-2.317 1.054-3.82 1.054v1c1.673 0 3.227-.453 4.377-1.223 1.147-.769 1.937-1.89 1.937-3.212h-1zM5.814 3.435c-1.5 0-2.853-.42-3.818-1.073C1.026 1.707.5.859.5 0h-1c0 1.297.792 2.417 1.936 3.19 1.148.777 2.702 1.245 4.378 1.245v-1z"/><path id="path1_stroke" d="M207.209.452a.5.5 0 1 0-.427-.904l.427.904zm-77.036 35.774v.5a.496.496 0 0 0 .213-.048l-.213-.452zm-30.847 0v-.5a.5.5 0 0 0-.5.5h.5zm0 1.886v.5a.5.5 0 0 0 .5-.5h-.5zm-29.34 0h-.5a.5.5 0 0 0 .5.5v-.5zm0-1.886h.5a.5.5 0 0 0-.5-.5v.5zm-27.726 0l-.388.315a.5.5 0 0 0 .389.185v-.5zm-3.499-4.313l.389-.315a.5.5 0 0 0-.389-.185v.5zM0 31.913v-.5a.5.5 0 0 0-.425.763L0 31.913zm4.791 7.763l.428-.259-.002-.004-.426.263zm5.007 6.307l.354-.353-.005-.005-.349.358zm.27.27h.5a.5.5 0 0 0-.147-.354l-.354.353zm-.5 8.948a.5.5 0 1 0 1 0h-1zM206.781-.452L129.96 35.773l.426.905L207.209.452l-.427-.904zm-76.609 36.178H99.326v1h30.847v-1zm-31.347.5v1.886h1v-1.886h-1zm.5 1.386h-29.34v1h29.34v-1zm-28.84.5v-1.886h-1v1.886h1zm-.5-2.386H42.26v1h27.726v-1zm-27.337.185l-3.5-4.313-.776.63 3.5 4.313.776-.63zm-3.888-4.498H0v1h38.761v-1zm-39.186.763l4.79 7.762.852-.525-4.792-7.762-.85.525zm4.788 7.758a31.967 31.967 0 0 0 5.086 6.407l.698-.716a30.965 30.965 0 0 1-4.928-6.208l-.856.517zm5.081 6.402l.27.27.707-.707-.27-.27-.707.707zm.123-.084v8.95h1v-8.95h-1z"/><path id="path2_stroke" d="M-.434 36.625a.5.5 0 1 0 .868.495l-.868-.495zm9.64-13.337l.366.34-.366-.34zm9.367-9.164l.344.362a.5.5 0 0 0 .156-.362h-.5zm0-5.23l-.237-.44a.5.5 0 0 0-.263.44h.5zm13.62-7.33l.237.44a.5.5 0 0 0 .263-.44h-.5zm.5-1.564a.5.5 0 1 0-1 0h1zM0 36.873a178.7 178.7 0 0 0 .435.246c0-.002.002-.003.003-.005l.012-.02.045-.08.178-.308a154.31 154.31 0 0 1 2.939-4.842c1.831-2.892 4.11-6.251 5.96-8.235l-.732-.682c-1.92 2.06-4.243 5.492-6.073 8.382a155.304 155.304 0 0 0-3.185 5.268l-.012.02a.484.484 0 0 1-.003.006l-.001.002.434.248zm9.572-13.244c1.093-1.175 3.424-3.456 5.492-5.453a689.706 689.706 0 0 1 3.833-3.67l.015-.015.004-.003v-.001h.001l-.344-.363-.344-.363-.001.001-.004.004-.016.015a89.966 89.966 0 0 0-.291.277 630.789 630.789 0 0 0-3.547 3.399c-2.063 1.991-4.416 4.293-5.53 5.49l.732.682zm9.501-9.505v-5.23h-1v5.23h1zm-.263-4.789l13.62-7.331-.474-.88-13.62 7.33.474.881zm13.883-7.772V0h-1v1.563h1z"/><path id="path3_stroke" d="M39.192.5a.5.5 0 0 0 0-1v1zM0-.5a.5.5 0 0 0 0 1v-1zm39.192 0H0v1h39.192v-1z"/><path id="path4_stroke" d="M0 0v-.5a.5.5 0 0 0-.5.5H0zm2.853 0h.5a.5.5 0 0 0-.5-.5V0zm0 2.857v.5a.5.5 0 0 0 .5-.5h-.5zM0 2.857h-.5a.5.5 0 0 0 .5.5v-.5zM0 .5h2.853v-1H0v1zM2.353 0v2.857h1V0h-1zm.5 2.357H0v1h2.853v-1zm-2.353.5V0h-1v2.857h1z"/><path id="path5_stroke" d="M0 0v-.5a.5.5 0 0 0-.5.5H0zm2.853 0h.5a.5.5 0 0 0-.5-.5V0zm0 2.857v.5a.5.5 0 0 0 .5-.5h-.5zM0 2.857h-.5a.5.5 0 0 0 .5.5v-.5zM0 .5h2.853v-1H0v1zM2.353 0v2.857h1V0h-1zm.5 2.357H0v1h2.853v-1zm-2.353.5V0h-1v2.857h1z"/><path id="path6_stroke" d="M0 0v-.5a.5.5 0 0 0-.5.5H0zm2.853 0h.5a.5.5 0 0 0-.5-.5V0zm0 2.857v.5a.5.5 0 0 0 .5-.5h-.5zM0 2.857h-.5a.5.5 0 0 0 .5.5v-.5zM0 .5h2.853v-1H0v1zM2.353 0v2.857h1V0h-1zm.5 2.357H0v1h2.853v-1zm-2.353.5V0h-1v2.857h1z"/><path id="path7_stroke" d="M0 0v-.5a.5.5 0 0 0-.5.5H0zm2.853 0h.5a.5.5 0 0 0-.5-.5V0zm0 2.857v.5a.5.5 0 0 0 .5-.5h-.5zM0 2.857h-.5a.5.5 0 0 0 .5.5v-.5zM0 .5h2.853v-1H0v1zM2.353 0v2.857h1V0h-1zm.5 2.357H0v1h2.853v-1zm-2.353.5V0h-1v2.857h1z"/><path id="path8_stroke" d="M0 0v-.5a.5.5 0 0 0-.5.5H0zm2.853 0h.5a.5.5 0 0 0-.5-.5V0zm0 2.857v.5a.5.5 0 0 0 .5-.5h-.5zM0 2.857h-.5a.5.5 0 0 0 .5.5v-.5zM0 .5h2.853v-1H0v1zM2.353 0v2.857h1V0h-1zm.5 2.357H0v1h2.853v-1zm-2.353.5V0h-1v2.857h1z"/><path id="path9_stroke" d="M0 0v-.5a.5.5 0 0 0-.5.5H0zm2.853 0h.5a.5.5 0 0 0-.5-.5V0zm0 2.857v.5a.5.5 0 0 0 .5-.5h-.5zM0 2.857h-.5a.5.5 0 0 0 .5.5v-.5zM0 .5h2.853v-1H0v1zM2.353 0v2.857h1V0h-1zm.5 2.357H0v1h2.853v-1zm-2.353.5V0h-1v2.857h1z"/><path id="path10_stroke" d="M0 0v-.5a.5.5 0 0 0-.5.5H0zm2.853 0h.5a.5.5 0 0 0-.5-.5V0zm0 2.857v.5a.5.5 0 0 0 .5-.5h-.5zM0 2.857h-.5a.5.5 0 0 0 .5.5v-.5zM0 .5h2.853v-1H0v1zM2.353 0v2.857h1V0h-1zm.5 2.357H0v1h2.853v-1zm-2.353.5V0h-1v2.857h1z"/><path id="path11_stroke" d="M0 0v-.5a.5.5 0 0 0-.5.5H0zm2.853 0h.5a.5.5 0 0 0-.5-.5V0zm0 2.857v.5a.5.5 0 0 0 .5-.5h-.5zM0 2.857h-.5a.5.5 0 0 0 .5.5v-.5zM0 .5h2.853v-1H0v1zM2.353 0v2.857h1V0h-1zm.5 2.357H0v1h2.853v-1zm-2.353.5V0h-1v2.857h1z"/><path id="path12_stroke" d="M.5 0a.5.5 0 0 0-1 0h1zm-1 30.296a.5.5 0 1 0 1 0h-1zM-.5 0v30.296h1V0h-1z"/><path id="path13_stroke" d="M.5 0a.5.5 0 0 0-1 0h1zm-1 3.396a.5.5 0 1 0 1 0h-1zM-.5 0v3.396h1V0h-1z"/><path id="path14_stroke" d="M.5 0a.5.5 0 1 0-1 0h1zm-1 2.641a.5.5 0 0 0 1 0h-1zM-.5 0v2.641h1V0h-1z"/><path id="path15_stroke" d="M.5 0a.5.5 0 0 0-1 0h1zm-1 3.288a.5.5 0 0 0 1 0h-1zM-.5 0v3.288h1V0h-1z"/><path id="path16_stroke" d="M.5 0a.5.5 0 0 0-1 0h1zm-1 7.331a.5.5 0 0 0 1 0h-1zM-.5 0v7.331h1V0h-1z"/><path id="path17_stroke" d="M.5 0a.5.5 0 0 0-1 0h1zm-1 9.164a.5.5 0 0 0 1 0h-1zM-.5 0v9.164h1V0h-1z"/><path id="path18_stroke" d="M.5 0a.5.5 0 0 0-1 0h1zm-1 3.342a.5.5 0 1 0 1 0h-1zM-.5 0v3.342h1V0h-1z"/><path id="path19_stroke" d="M.5 0a.5.5 0 0 0-1 0h1zm-1 1.294a.5.5 0 0 0 1 0h-1zM-.5 0v1.294h1V0h-1z"/><path id="path20_stroke" d="M.5 0a.5.5 0 0 0-1 0h1zm-1 4.528a.5.5 0 0 0 1 0h-1zM-.5 0v4.528h1V0h-1z"/><path id="path21_stroke" d="M.5 0a.5.5 0 0 0-1 0h1zm-1 5.283a.5.5 0 0 0 1 0h-1zM-.5 0v5.283h1V0h-1z"/><path id="path22_stroke" d="M.5 0a.5.5 0 0 0-1 0h1zm-1 6.038a.5.5 0 1 0 1 0h-1zM-.5 0v6.038h1V0h-1z"/><path id="path23_stroke" d="M.5 0a.5.5 0 0 0-1 0h1zm-1 4.798a.5.5 0 1 0 1 0h-1zM-.5 0v4.798h1V0h-1z"/><path id="path24_stroke" d="M.5 0a.5.5 0 0 0-1 0h1zm-1 1.779a.5.5 0 0 0 1 0h-1zM-.5 0v1.779h1V0h-1z"/><path id="path25_stroke" d="M.5 0a.5.5 0 0 0-1 0h1zm-1 2.264a.5.5 0 0 0 1 0h-1zM-.5 0v2.264h1V0h-1z"/><path id="path26_stroke" d="M6.191 0l.257-.43a.5.5 0 0 0-.754.486L6.191 0zm31.386 18.76h.5a.5.5 0 0 0-.244-.43l-.256.43zm0 18.867v.5a.5.5 0 0 0 .5-.5h-.5zM0 37.627l-.42-.27a.5.5 0 0 0 .42.77v-.5zm6.137-16.172l-.49-.094-.001.003.491.091zM5.935.43L37.32 19.19l.513-.858L6.448-.43l-.514.858zm31.142 18.33v18.868h1V18.76h-1zm.5 18.368H0v1h37.577v-1zM0 37.627l.42.271.001-.002.003-.004.01-.017.04-.062a32.175 32.175 0 0 0 .679-1.157 47.935 47.935 0 0 0 1.724-3.41c1.33-2.902 2.881-6.986 3.752-11.7l-.983-.182c-.852 4.612-2.37 8.615-3.678 11.466A46.947 46.947 0 0 1 .28 36.168a31.248 31.248 0 0 1-.69 1.171l-.008.014a.041.041 0 0 1-.002.003l.42.271zM6.628 21.55c.792-4.13.803-9.542.621-13.895A129.574 129.574 0 0 0 6.75.538a67.608 67.608 0 0 0-.061-.584v-.007l-.001-.002v-.001a93.76 93.76 0 0 0-.994.112v.002a1.365 1.365 0 0 0 .004.035 35.812 35.812 0 0 1 .057.545 128.564 128.564 0 0 1 .495 7.058c.181 4.34.165 9.655-.604 13.665l.982.188z"/><path id="path27_stroke" d="M0 0v-.5a.5.5 0 0 0-.487.614L0 0zm26.11 0l.428-.26a.5.5 0 0 0-.428-.24V0zm4.415 10.674l-.494.08v.003l.494-.083zm.538 12.452l.013.5a.5.5 0 0 0 .482-.432l-.495-.068zm-30.955.809l-.465-.184a.5.5 0 0 0 .478.684l-.013-.5zm1.615-11.968l-.5.024v.008l.5-.032zM0 .5h26.11v-1H0v1zM26.11 0l-.428.26.003.003.007.012.03.05.115.195a50.968 50.968 0 0 1 1.747 3.295c1.005 2.08 2.082 4.695 2.447 6.939l.987-.16c-.389-2.393-1.52-5.115-2.533-7.213A51.982 51.982 0 0 0 26.7.017a24.806 24.806 0 0 0-.16-.271l-.003-.004V-.26L26.11 0zm3.921 10.757c.614 3.632.747 6.715.727 8.888a37.254 37.254 0 0 1-.104 2.528 22.215 22.215 0 0 1-.08.833l-.005.041a.256.256 0 0 1-.002.011l.496.068.495.068v-.005l.003-.013.006-.048.02-.182c.018-.16.04-.393.064-.696a38.26 38.26 0 0 0 .107-2.596 51.992 51.992 0 0 0-.74-9.064l-.987.167zm1.019 11.87l-30.955.808.026 1 30.955-.809-.026-1zM.108 23.934l.465.183v-.001l.002-.004.005-.013a6.58 6.58 0 0 0 .086-.233c.057-.16.137-.395.232-.698.189-.604.435-1.478.668-2.566a32.16 32.16 0 0 0 .656-8.667l-.998.063a31.159 31.159 0 0 1-.636 8.395 27.788 27.788 0 0 1-.645 2.477 18.133 18.133 0 0 1-.296.869l-.004.01v.001l.465.184zm2.114-11.99c-.136-2.915-.57-5.93-.969-8.21A86.113 86.113 0 0 0 .551.169 37.614 37.614 0 0 0 .488-.11v-.004H.486v-.001L0 0l-.487.114a.19.19 0 0 1 .004.017 19.71 19.71 0 0 1 .058.255 85.106 85.106 0 0 1 .693 3.52c.395 2.262.822 5.23.955 8.085l1-.047z"/><path id="path28_stroke" d="M1.777.647l-.02-.5a.5.5 0 0 0-.459.646l.479-.146zM19.11 0l.44-.239a.5.5 0 0 0-.458-.26L19.11 0zm4.415 10.458l.485-.12v-.001l-.485.121zm1.023 9.757l.037.499a.5.5 0 0 0 .46-.453l-.497-.046zM0 22.048h-.5a.5.5 0 0 0 .537.499L0 22.048zM1.795 1.147L19.13.5l-.037-1L1.758.147l.037 1zM19.111 0l-.439.239.002.004a3.11 3.11 0 0 0 .035.063l.106.2a79.085 79.085 0 0 1 1.647 3.317c.966 2.07 2.053 4.649 2.579 6.756l.97-.242c-.55-2.205-1.672-4.856-2.643-6.937A80.093 80.093 0 0 0 19.59-.166l-.03-.054a4.08 4.08 0 0 1-.008-.014l-.001-.003-.001-.001-.44.238zm3.93 10.578c.69 2.793.942 5.2 1.022 6.905.04.852.036 1.528.023 1.99a16.346 16.346 0 0 1-.032.657l-.002.031-.001.007v.002l.498.045.498.046v-.005a.943.943 0 0 1 .004-.05l.01-.147c.008-.129.018-.316.025-.558a28.19 28.19 0 0 0-.024-2.065 36.985 36.985 0 0 0-1.05-7.098l-.971.24zm1.47 9.139L-.036 21.549l.074.998 24.549-1.833-.074-.997zM.5 22.048a.905.905 0 0 1-.015.123l-.007.023-.003.009.007-.02.039-.102.147-.4c.126-.348.301-.851.502-1.483a47.28 47.28 0 0 0 1.32-5.135C3.31 10.898 3.77 5.467 2.254.5l-.957.292c1.446 4.737 1.018 9.98.21 14.076a46.284 46.284 0 0 1-1.29 5.025 39.485 39.485 0 0 1-.634 1.836l-.04.105a2.268 2.268 0 0 0-.028.088.904.904 0 0 0-.016.125h1z"/><path id="path29_stroke" d="M4.2 0v-.5a.5.5 0 0 0-.5.532L4.2 0zm22.233 0l.46-.197a.5.5 0 0 0-.46-.303V0zm3.338 10.35l-.493.086.002.008.49-.094zm1.292 11.698l.06.497a.5.5 0 0 0 .44-.524l-.5.027zM0 25.822l-.454-.209a.5.5 0 0 0 .514.705L0 25.822zm4.2-13.8l.497.045v-.005l-.498-.04zM4.2.5h22.233v-1H4.199v1zM26.432 0l-.46.197.002.004.005.012.022.05a49.55 49.55 0 0 1 .383.934c.252.63.596 1.513.964 2.53.738 2.043 1.56 4.597 1.93 6.71l.984-.173c-.384-2.2-1.231-4.821-1.974-6.876a80.08 80.08 0 0 0-1.366-3.514L26.9-.178l-.006-.014a.056.056 0 0 1-.002-.003v-.001l-.46.196zm2.847 10.444c.453 2.374.774 5.279.982 7.599a140.43 140.43 0 0 1 .284 3.73l.013.225.003.058.001.015v.004l.5-.027.5-.027h-.001v-.006L31.56 22l-.003-.06-.014-.228a142.127 142.127 0 0 0-.286-3.758c-.209-2.33-.534-5.274-.996-7.697l-.982.187zm1.723 11.108L-.06 25.325l.12.993 31.063-3.774-.12-.992zM0 25.822l.455.208v-.002a.693.693 0 0 0 .01-.022l.032-.07a60.234 60.234 0 0 0 .544-1.259 73.23 73.23 0 0 0 1.327-3.402c.986-2.732 2.054-6.23 2.329-9.208l-.996-.092c-.263 2.846-1.294 6.247-2.274 8.96a72.268 72.268 0 0 1-1.726 4.33 38.585 38.585 0 0 1-.146.327l-.007.016a.25.25 0 0 1-.002.004v.001l.454.209zm4.697-13.76c.218-2.64.217-5.666.163-8.024a123.55 123.55 0 0 0-.16-4.05l-.002-.014v-.005L4.2 0l-.5.032v.004l.001.014a29.385 29.385 0 0 1 .017.28l.042.836c.034.716.074 1.724.1 2.895.054 2.346.054 5.33-.16 7.92l.997.081z"/><path id="path30_stroke" d="M0 2.048l-.03-.499a.5.5 0 0 0-.468.543L0 2.048zM33.916 0l.443-.233a.5.5 0 0 0-.473-.266l.03.499zm6.245 13.746l-.477.152.477-.152zm2.96 16.334l.043.498a.5.5 0 0 0 .456-.54l-.498.042zM0 33.692l-.493-.086a.5.5 0 0 0 .535.584L0 33.692zm1.292-15.094l-.5.03.001.004.499-.034zM.03 2.548L33.946.499l-.06-.998L-.03 1.549l.06.999zM33.916 0l-.442.233v.001l.003.005.01.02.04.075a123.166 123.166 0 0 1 .707 1.374c.467.916 1.105 2.186 1.789 3.604 1.373 2.845 2.92 6.252 3.661 8.586l.954-.303c-.766-2.41-2.342-5.876-3.715-8.718a192.257 192.257 0 0 0-2.55-5.083l-.01-.02-.004-.005v-.001L33.916 0zm5.769 13.899c1.064 3.33 1.8 7.38 2.27 10.613a114.226 114.226 0 0 1 .63 5.19l.03.313.006.08.002.02v.007l.499-.042.498-.042v-.007l-.002-.022-.008-.083-.03-.319a94.75 94.75 0 0 0-.12-1.185c-.11-1.01-.28-2.426-.516-4.054-.473-3.25-1.217-7.365-2.307-10.774l-.952.305zm3.395 15.683L-.042 33.194l.084.996 43.122-3.611-.084-.997zM0 33.692l.493.086v-.008l.005-.021a36.945 36.945 0 0 0 .066-.399 124.26 124.26 0 0 0 .72-5.084c.37-3.088.699-6.902.507-9.702l-.998.068c.185 2.699-.132 6.432-.502 9.515a123.275 123.275 0 0 1-.779 5.433l-.003.02-.001.005a.024.024 0 0 1 0 .001l.492.086zm1.791-15.124c-.162-2.675-.485-6.817-.768-10.287a1480.644 1480.644 0 0 0-.522-6.243l-.002-.024v-.008L0 2.048l-.498.044V2.1a121.459 121.459 0 0 1 .042.483 1299.237 1299.237 0 0 1 .483 5.78c.282 3.47.605 7.603.766 10.265l.998-.06z"/><path id="path31_stroke" d="M6.514 1.671l-.024-.5a.5.5 0 0 0-.475.527l.499-.027zM41.776 0l.435-.246a.5.5 0 0 0-.459-.253l.024.499zm4.845 11.428l.483-.129-.002-.008-.48.137zm1.454 15.58l-.013.5a.5.5 0 0 0 .51-.459l-.497-.041zM25.41 28.409l.085.493h.002l-.087-.493zM0 35.687l-.45-.217a.5.5 0 0 0 .62.687l-.17-.47zm5.491-15.418l-.49-.102v.003l.49.1zM6.538 2.171L41.8.499l-.048-.998L6.49 1.17l.048 1zM41.776 0l-.435.246v.001l.002.003.006.011.026.047.102.184a57.74 57.74 0 0 1 1.643 3.252c.997 2.117 2.196 4.947 3.02 7.822l.962-.275c-.845-2.947-2.068-5.831-3.077-7.973a66.898 66.898 0 0 0-1.67-3.306 24.192 24.192 0 0 0-.134-.24l-.007-.014-.002-.003v-.001L41.775 0zm4.362 11.557c1.037 3.887 1.397 7.742 1.498 10.63.05 1.442.034 2.64.007 3.477a35.543 35.543 0 0 1-.066 1.301l.498.043.498.041v-.007l.002-.018a24.925 24.925 0 0 0 .022-.333c.014-.23.032-.567.046-.994a53.08 53.08 0 0 0-.008-3.545c-.102-2.934-.468-6.869-1.53-10.853l-.967.258zm1.937 15.45l.012-.5h-.038l-.111-.003a131.533 131.533 0 0 0-2.026-.02c-1.363-.003-3.283.01-5.51.078-4.45.135-10.144.486-15.079 1.355l.174.985c4.864-.857 10.502-1.206 14.935-1.34a169 169 0 0 1 7.063-.065 69.516 69.516 0 0 1 .531.01h.036l.013-.5zm-22.75.91c-5.176.895-11.555 2.723-16.626 4.321a259.313 259.313 0 0 0-8.196 2.738l-.5.178-.13.047-.032.012c-.004 0-.007.002-.009.003H-.17l.17.47.17.47h.003l.008-.003.033-.012.127-.046.496-.177A257.996 257.996 0 0 1 9 33.192c5.063-1.596 11.39-3.407 16.496-4.29l-.17-.986zM0 35.686l.45.216h.001V35.9l.003-.005a4.36 4.36 0 0 0 .044-.093l.134-.285a102.124 102.124 0 0 0 2.053-4.767c1.201-3 2.587-6.888 3.296-10.382l-.98-.2c-.69 3.406-2.05 7.228-3.244 10.21a101.06 101.06 0 0 1-2.032 4.717 46.1 46.1 0 0 1-.13.28l-.035.07-.008.019-.002.004v.001l.45.217zm5.98-15.315c.818-3.902 1.074-8.59 1.128-12.285a113.363 113.363 0 0 0-.072-5.954 55.037 55.037 0 0 0-.023-.489l-.499.027-.5.027V1.7a.953.953 0 0 1 .002.028 33.045 33.045 0 0 1 .02.447c.014.31.03.763.046 1.331.03 1.136.053 2.731.026 4.566-.053 3.677-.309 8.288-1.106 12.095l.979.205z"/><path id="path32_stroke" d="M0 0v-.5a.5.5 0 0 0-.476.653L0 0zm33.916 0l.478-.147a.5.5 0 0 0-.478-.353V0zm3.176 12.83l-.492.084.492-.084zm.323 15.256l.036.498a.5.5 0 0 0 .462-.452l-.498-.046zM0 30.78l-.475-.156a.5.5 0 0 0 .51.655L0 30.78zm2.638-15.363l.5.013v-.001l-.5-.012zM0 .5h33.916v-1H0v1zM33.916 0l-.478.147v.001l.002.004.004.015.019.06a105.406 105.406 0 0 1 .333 1.122c.221.758.527 1.827.862 3.073.672 2.495 1.46 5.685 1.941 8.492l.986-.168c-.488-2.853-1.287-6.078-1.961-8.584a153.86 153.86 0 0 0-1.205-4.226l-.018-.062a3.396 3.396 0 0 0-.005-.016l-.002-.004v-.001L33.916 0zM36.6 12.915c.557 3.241.638 7.018.578 9.999a86.815 86.815 0 0 1-.229 4.746l-.023.284-.006.072-.002.018v.005l.497.047.498.046v-.007l.003-.02.006-.075.024-.29a87.755 87.755 0 0 0 .231-4.805c.061-3.004-.019-6.855-.592-10.19l-.985.17zm.78 14.672L-.037 30.282l.072.998 37.415-2.696-.072-.997zM0 30.781l.475.156v-.002l.002-.005.006-.017a16.451 16.451 0 0 0 .1-.318c.067-.221.164-.544.28-.957.233-.824.545-2.006.863-3.438.637-2.862 1.303-6.737 1.412-10.769l-1-.027c-.106 3.946-.76 7.753-1.388 10.579a62.827 62.827 0 0 1-.85 3.384 43.796 43.796 0 0 1-.374 1.254v.003l-.001.001.475.156zM3.138 15.43c.082-3.405-.588-7.307-1.27-10.338A74.037 74.037 0 0 0 .597.243 36.394 36.394 0 0 0 .478-.15v-.001L0 0l-.476.153a2.53 2.53 0 0 1 .03.096l.087.284c.076.25.184.613.313 1.071.258.917.6 2.209.938 3.708.677 3.006 1.325 6.813 1.246 10.093l1 .025z"/><path id="path33_stroke" d="M2.207.755l-.01-.5a.5.5 0 0 0-.488.537l.498-.037zM39.084 0l.46-.195a.5.5 0 0 0-.47-.305l.01.5zm3.176 10.08l.493-.086v-.002l-.492.089zm.862 10.35l.062.497a.5.5 0 0 0 .438-.505l-.5.009zM0 25.823l-.477-.151a.5.5 0 0 0 .539.647L0 25.822zm2.53-12.507l-.498-.04.498.04zm-.313-12.06L39.094.5l-.02-1L2.197.255l.02 1zM39.084 0l-.46.195.001.003.005.012c.004.01.01.026.02.046l.075.183a72.735 72.735 0 0 1 1.173 3.09c.69 1.953 1.474 4.443 1.87 6.64l.984-.177c-.41-2.277-1.215-4.827-1.911-6.796a73.846 73.846 0 0 0-1.289-3.373l-.005-.013-.002-.003v-.001l-.46.194zm2.684 10.168c.372 2.1.586 4.664.707 6.714a105.091 105.091 0 0 1 .147 3.554v.003l.5-.008.5-.01v-.017l-.002-.053-.004-.203a105.94 105.94 0 0 0-.143-3.325c-.122-2.06-.338-4.671-.72-6.83l-.985.175zm1.292 9.767l-43.122 5.39.124.993 43.122-5.391-.124-.992zM0 25.822l.477.15v-.001l.001-.004.005-.015a19.226 19.226 0 0 0 .085-.276A74.877 74.877 0 0 0 1.57 21.95c.574-2.383 1.213-5.538 1.459-8.594l-.997-.08c-.24 2.982-.866 6.08-1.435 8.44a73.89 73.89 0 0 1-.987 3.672 32.115 32.115 0 0 1-.081.267l-.004.013-.001.003.476.152zm3.029-12.466c.164-2.03.081-5.2-.04-7.84a189.53 189.53 0 0 0-.276-4.7L2.708.742A12.884 12.884 0 0 1 2.706.72V.718l-.499.037-.498.037v.006l.001.018a76.712 76.712 0 0 1 .026.35l.068 1.022c.056.864.126 2.057.186 3.374.122 2.644.2 5.754.042 7.713l.997.08z"/><path id="path34_stroke" d="M4.737 0v-.5a.5.5 0 0 0-.5.493l.5.007zm21.265 0l.446-.227a.5.5 0 0 0-.446-.273V0zm3.338 8.68l-.49.097.49-.098zm1.346 12.452l.084.493a.5.5 0 0 0 .416-.502l-.5.009zM0 26.36l-.468-.175a.5.5 0 0 0 .552.668L0 26.36zm3.876-14.61l-.493-.081-.001.007.494.075zM4.737.5h21.265v-1H4.737v1zM26.002 0l-.445.227c0 .001 0 .002.002.003 0 .003.002.006.005.01l.021.044.084.167a61.399 61.399 0 0 1 1.28 2.772c.745 1.727 1.562 3.857 1.9 5.554l.981-.196c-.36-1.807-1.213-4.017-1.962-5.753a62.565 62.565 0 0 0-1.39-2.994l-.022-.045a1.315 1.315 0 0 0-.006-.012l-.002-.003-.446.226zm2.848 8.778c.614 3.045.948 6.137 1.129 8.47a82.987 82.987 0 0 1 .2 3.615l.006.208v.052l.001.013v.004l.5-.008.5-.009v-.005a1.08 1.08 0 0 1-.002-.07c0-.049-.003-.12-.005-.214a83.722 83.722 0 0 0-.203-3.663c-.183-2.356-.521-5.49-1.146-8.59l-.98.197zm1.752 11.86l-30.686 5.23.168.986 30.686-5.23-.168-.985zM0 26.362l.468.174.001-.001.002-.005.006-.016.024-.066.092-.253a95.937 95.937 0 0 0 1.42-4.325c.838-2.773 1.814-6.451 2.357-10.042l-.988-.15c-.534 3.525-1.495 7.151-2.326 9.903a94.991 94.991 0 0 1-1.404 4.276l-.09.247-.023.062-.006.016-.001.004.468.176zm4.37-14.527c.381-2.294.597-5.255.719-7.63A139.08 139.08 0 0 0 5.237.028V.013a.75.75 0 0 0 0-.004V.008L4.737 0l-.5-.007v.004a5.369 5.369 0 0 1 0 .076 73.469 73.469 0 0 1-.028 1.112 138.13 138.13 0 0 1-.119 2.967c-.12 2.369-.335 5.283-.707 7.518l.986.164z"/><path id="path35_stroke" d="M3.23.97L3.195.472a.5.5 0 0 0-.463.46L3.23.97zM16.958 0l.428-.258a.5.5 0 0 0-.463-.24l.035.498zm2.369 5.121l-.481.137v.002l.48-.139zm.7 5.553l.072.495a.5.5 0 0 0 .427-.476l-.5-.02zM0 13.584l-.455-.206a.5.5 0 0 0 .527.701L0 13.585zm2.369-6.253l-.485-.12-.001.002.486.118zm.896-5.862L16.993.5l-.07-.998-13.728.97.07.998zM16.958 0l-.428.258V.26l.004.005.014.023.054.092a33.803 33.803 0 0 1 .853 1.56c.508.989 1.082 2.234 1.391 3.318l.962-.274c-.337-1.18-.947-2.495-1.463-3.5a34.919 34.919 0 0 0-.938-1.707l-.015-.026a.206.206 0 0 0-.006-.009L16.958 0zm1.888 5.26c.391 1.357.562 2.708.635 3.724a19.637 19.637 0 0 1 .049 1.558 6.953 6.953 0 0 1-.003.107v.005l.5.02.5.019v-.037l.003-.098a20.664 20.664 0 0 0-.051-1.645c-.076-1.06-.255-2.484-.672-3.93l-.96.277zm1.109 4.919l-20.027 2.91.144.99 20.027-2.91-.144-.99zM0 13.585l.456.206v-.001l.001-.002.004-.01.016-.035a37.548 37.548 0 0 0 .276-.625c.181-.416.428-.994.692-1.642.525-1.287 1.13-2.881 1.41-4.026l-.972-.237c-.26 1.065-.838 2.598-1.363 3.885a76.57 76.57 0 0 1-.955 2.236l-.016.034-.003.008-.001.002.455.207zm2.854-6.132c.278-1.114.496-2.734.644-4.055a80.453 80.453 0 0 0 .23-2.377v-.012L3.23.97 2.732.932v.003L2.73.943a24.18 24.18 0 0 1-.014.17l-.044.503a79.473 79.473 0 0 1-.169 1.67c-.148 1.321-.36 2.882-.62 3.924l.97.243z"/><path id="path36_stroke" d="M2.423 1.078L2.385.58a.5.5 0 0 0-.462.471l.5.027zM16.635 0l.411-.285a.5.5 0 0 0-.449-.214l.038.499zm2.853 4.798l.454-.21-.002-.005-.452.215zm1.292 5.714l.02.5a.5.5 0 0 0 .478-.545l-.498.045zm-9.475.593l.056.497.01-.001-.066-.496zM0 12.938l-.456-.205a.5.5 0 0 0 .544.697L0 12.938zm1.83-5.984l-.494-.074-.001.006.495.068zm.63-5.377L16.673.499 16.597-.5 2.385.58l.075.997zM16.635 0a486.08 486.08 0 0 1-.41.285v.001l.004.006a8.007 8.007 0 0 1 .073.107c.052.075.126.186.219.325.186.278.444.672.734 1.133.582.924 1.283 2.104 1.782 3.155l.903-.429c-.524-1.105-1.25-2.324-1.839-3.26a53.044 53.044 0 0 0-1.053-1.605l-.001-.002-.412.284zm2.4 5.007c.455.99.77 2.364.97 3.522a29.828 29.828 0 0 1 .277 2.019v.008l.498-.044.498-.045v-.012c-.002-.007-.002-.018-.004-.032l-.012-.122a30.866 30.866 0 0 0-.271-1.943c-.204-1.174-.535-2.656-1.049-3.77l-.908.419zm1.745 5.505l-.019-.5h-.005l-.015.001-.06.002-.227.01a279.283 279.283 0 0 0-3.509.163c-2.054.107-4.443.256-5.704.421l.13.992c1.214-.159 3.563-.307 5.627-.415a314.549 314.549 0 0 1 3.497-.162l.226-.01.059-.002h.019l-.019-.5zm-9.53.096c-1.47.164-4.312.624-6.771 1.042a534.265 534.265 0 0 0-4.2.73l-.272.048-.071.013-.018.003-.005.001h-.001l.088.493.089.492.005-.001.018-.003.071-.013.271-.049a538 538 0 0 1 4.192-.728c2.467-.419 5.278-.874 6.715-1.034l-.11-.994zM0 12.938l.456.205v-.001l.001-.002.004-.008a4.224 4.224 0 0 0 .061-.14 32.789 32.789 0 0 0 .723-1.847c.415-1.164.885-2.698 1.08-4.123l-.99-.136C1.154 8.21.709 9.67.303 10.81a31.737 31.737 0 0 1-.744 1.89l-.012.026-.002.006-.001.002.456.205zm2.325-5.91a64.56 64.56 0 0 0 .461-4.041A76.894 76.894 0 0 0 2.92 1.14l.001-.027v-.007a.106.106 0 0 0 0-.002l-.498-.027-.5-.027v.008a11.62 11.62 0 0 1-.007.125l-.024.377c-.022.325-.055.789-.102 1.341a63.574 63.574 0 0 1-.454 3.978l.989.149z"/><path id="path37_stroke" d="M0 0l.039-.499A.5.5 0 0 0-.5 0H0zm25.733 1.995l.01.5a.5.5 0 0 0 .029-.999l-.039.499zM0 2.534h-.5a.5.5 0 0 0 .51.5l-.01-.5zM-.039.499l25.733 1.994.078-.997L.039-.499-.04.5zm25.762.996L-.01 2.034l.02 1 25.734-.54-.021-1zM.5 2.534V0h-1v2.534h1z"/><path id="path38_stroke" d="M.34-.367a.5.5 0 0 0-.68.734l.68-.734zM19.973 18.49l-.34.367.34-.367zM63.31 58.543l-.012.5a.5.5 0 0 0 .351-.867l-.339.367zm-25.84-.593l-.468.178a.5.5 0 0 0 .456.322l.011-.5zM30.9 41.185l.46-.197-.002-.005-.458.202zM20.475 18.27a.5.5 0 0 0-.897.442l.897-.442zM-.34.367l19.973 18.49.68-.734L.34-.367l-.68.734zm19.973 18.49l43.338 40.054.678-.735-43.337-40.053-.679.734zm43.689 39.187L37.48 57.45l-.023 1 25.84.592.023-1zm-25.853-.094l.468-.178-.001-.002-.003-.007-.01-.027-.042-.11-.158-.415a1279.401 1279.401 0 0 0-2.446-6.368c-1.432-3.703-3.078-7.904-3.916-9.855l-.919.395c.83 1.93 2.468 6.112 3.903 9.82a1501.583 1501.583 0 0 1 2.443 6.364l.159.416.04.108.011.028.003.007v.002l.468-.178zm-6.11-16.967c-1.324-3.001-4.046-8.684-6.434-13.607a1780.535 1780.535 0 0 0-4.09-8.377l-.267-.54c-.03-.062-.053-.11-.07-.142l-.017-.036-.004-.009-.002-.002-.448.22-.449.222.002.002a.967.967 0 0 1 .022.045l.07.141.265.54a1776.377 1776.377 0 0 1 4.088 8.372c2.39 4.928 5.104 10.593 6.419 13.575l.915-.404z"/><path id="path39_stroke" d="M28.903 14.841a.5.5 0 1 0 .443-.896l-.443.896zM.222-.448a.5.5 0 1 0-.444.897l.444-.896zm29.124 14.394L.222-.448l-.444.896 29.125 14.393.443-.896z"/><path id="path40_stroke" d="M25.073.394a.5.5 0 1 0-.617-.788l.617.788zM-.308 19.014a.5.5 0 1 0 .616.786l-.616-.787zM24.456-.395L-.308 19.013l.616.787L25.073.394l-.617-.788z"/><path id="path41_stroke" d="M1.777 1.24L1.725.743a.5.5 0 0 0-.446.548l.498-.051zM13.62 0l.326-.38a.5.5 0 0 0-.378-.117L13.62 0zm2.638 3.935l-.46.197.46-.197zm1.077 4.205l.042.498a.5.5 0 0 0 .452-.577l-.494.079zm-8.075.755l-.057-.497-.012.001.069.496zM0 11.482l-.447-.223a.5.5 0 0 0 .613.695L0 11.482zm1.723-5.12l-.496-.066-.002.014.498.051zm.106-4.625L13.672.497l-.104-.994L1.725.743l.104.994zM13.62 0l-.326.38V.378h.001a3.953 3.953 0 0 1 .221.214c.148.151.36.383.607.695.495.624 1.13 1.57 1.676 2.844l.919-.393a13.513 13.513 0 0 0-1.81-3.073 9.944 9.944 0 0 0-.677-.772 6.17 6.17 0 0 0-.26-.252l-.017-.014-.005-.005a.235.235 0 0 1-.002-.002L13.62 0zm2.18 4.132c.303.708.564 1.72.751 2.578a32.336 32.336 0 0 1 .287 1.48l.003.022v.006h.001l.494-.078.494-.079v-.002l-.002-.007-.004-.024-.015-.09a33.51 33.51 0 0 0-.28-1.44c-.19-.868-.467-1.958-.81-2.76l-.92.394zm1.536 4.008l-.043-.498h-.004l-.012.001-.048.004a315.885 315.885 0 0 0-.865.075l-2.222.196a254.47 254.47 0 0 0-4.938.48l.113.994c1.178-.134 3.19-.323 4.914-.478a743.608 743.608 0 0 1 3.083-.27l.048-.004.012-.001h.004l-.042-.499zM9.19 8.4c-1.606.221-3.957.88-5.88 1.472a108.818 108.818 0 0 0-3.458 1.132l-.014.005-.003.001h-.001l.165.472.166.472.004-.001.013-.005.05-.018a64.289 64.289 0 0 1 .933-.317c.622-.208 1.483-.49 2.44-.785 1.927-.593 4.206-1.229 5.722-1.438L9.19 8.4zM0 11.481a163.037 163.037 0 0 0 .448.223v-.002l.004-.008.014-.027a15.139 15.139 0 0 0 .227-.482c.148-.322.347-.773.552-1.292.407-1.024.86-2.358.975-3.482l-.995-.102c-.1.979-.508 2.205-.91 3.216a26.482 26.482 0 0 1-.747 1.702l-.012.024-.003.005v.002l.447.223zm2.219-5.056c.166-1.276.179-2.585.152-3.57a28.47 28.47 0 0 0-.097-1.664V1.19l-.497.05-.498.05v.006a4.379 4.379 0 0 1 .01.106 27.476 27.476 0 0 1 .082 1.483c.026.956.013 2.208-.144 3.411l.992.13z"/><path id="path42_stroke" d="M15.23.263a.5.5 0 1 0-.85-.526l.85.526zM-.425 23.618a.5.5 0 1 0 .85.526l-.85-.526zM14.38-.264L-.425 23.617l.85.527L15.23.264l-.85-.527z"/><path id="path43_stroke" d="M.352-.355a.5.5 0 1 0-.704.71l.704-.71zm20.991 22.273a.5.5 0 0 0 .705-.71l-.705.71zM-.352.355l21.695 21.563.705-.71L.352-.355l-.704.71z"/><path id="path44_stroke" d="M0 0l.322-.383a.5.5 0 0 0-.773.598L0 0zm34.724 29.218l.018.5a.5.5 0 0 0 .303-.883l-.321.383zm-22.18.808l-.474.16a.5.5 0 0 0 .492.34l-.018-.5zM7.806 16.873l-.46.194v.003l.46-.197zM-.322.383L34.402 29.6l.643-.765L.322-.383l-.644.766zm35.027 28.335l-22.18.809.037 1 22.18-.81-.037-.999zm-22.161 1.308l.473-.16-.002-.006a3.545 3.545 0 0 1-.007-.021l-.028-.083-.107-.316a542.35 542.35 0 0 0-1.681-4.882C10.19 21.698 9 18.393 8.266 16.676l-.92.394c.72 1.68 1.898 4.95 2.902 7.819a525.8 525.8 0 0 1 1.678 4.872l.107.315.027.082.007.02.002.006v.002l.475-.16zM8.267 16.68c-.866-2.06-2.822-6.288-4.557-9.991a1370.385 1370.385 0 0 0-3.257-6.9L.452-.215 0 0l-.451.215a.226.226 0 0 1 .004.01 312.34 312.34 0 0 1 .26.546 1304.666 1304.666 0 0 1 2.991 6.341c1.738 3.71 3.685 7.918 4.541 9.955l.922-.388z"/><path id="path45_stroke" d="M23.808.313a.5.5 0 0 0-.78-.626l.78.626zM-.39 28.905a.5.5 0 1 0 .78.625l-.78-.625zM23.028-.313L-.39 28.905l.78.625L23.808.314l-.78-.626z"/></defs></svg>