<svg width="139" height="149" xmlns="http://www.w3.org/2000/svg" xmlns:xlink="http://www.w3.org/1999/xlink"><use xlink:href="#path0_stroke" transform="translate(16.4 134.68)" fill="#18A29B"/><use xlink:href="#path1_stroke" transform="translate(1 144.44)" fill="#18A29B"/><use xlink:href="#path2_stroke" transform="translate(79.7 1)" fill="#18A29B"/><use xlink:href="#path3_stroke" transform="translate(45.5 1)" fill="#18A29B"/><use xlink:href="#path4_stroke" transform="translate(82.1 15.98)" fill="#18A29B"/><use xlink:href="#path5_stroke" transform="translate(33.9 132.39)" fill="#18A29B"/><defs><path id="path0_stroke" d="M1.397 13.672a.5.5 0 1 0 .708-.706l-.708.706zM0 11.562l-.436-.245a.5.5 0 0 0 .082.599L0 11.563zM6.52 0v-.5a.5.5 0 0 0-.436.254L6.519 0zm103.09 0l.492.09a.503.503 0 0 0-.492-.59V0zm-3.065 5.757l.407.29.003-.004-.41-.286zm-5.791 5.06a.5.5 0 0 0 .586.81l-.586-.81zm-98.649 2.15L.355 11.21l-.71.706 1.752 1.756.708-.706zm-1.67-1.159L6.956.247l-.871-.492-6.52 11.563.872.492zM6.52.5h103.09v-1H6.52v1zM109.61 0l-.492-.09v-.003c.001 0 .001 0 0 0l-.001.009-.012.05a3.515 3.515 0 0 1-.068.233 9.657 9.657 0 0 1-.394 1.012c-.412.919-1.162 2.33-2.508 4.26l.82.572c1.377-1.974 2.16-3.44 2.6-4.424.22-.492.355-.863.436-1.117.04-.127.067-.225.084-.293l.019-.081.005-.024.001-.008.001-.003V.09L109.61 0zm-3.473 5.467c-1.064 1.494-2.408 2.832-3.495 3.802a30.132 30.132 0 0 1-1.749 1.444l-.105.078-.026.02a.074.074 0 0 0-.006.004l-.001.001h-.001l.293.405.293.405h.001l.002-.002a.213.213 0 0 1 .009-.006l.03-.022a17.446 17.446 0 0 0 .526-.404 30.85 30.85 0 0 0 1.4-1.177c1.115-.995 2.519-2.389 3.644-3.968l-.815-.58z"/><path id="path1_stroke" d="M137.5 0a.5.5 0 0 0-1 0h1zm-10.509 0a.5.5 0 1 0-1 0h1zm-10.508 0a.5.5 0 0 0-1 0h1zm-10.509 0a.5.5 0 1 0-1 0h1zM95.466 0a.5.5 0 1 0-1 0h1zM84.957 0a.5.5 0 0 0-1 0h1zM74.45 0a.5.5 0 0 0-1 0h1zM63.94 0a.5.5 0 1 0-1 0h1zM53.432 0a.5.5 0 1 0-1 0h1zm-10.8 0a.5.5 0 0 0-1 0h1zm-10.51 0a.5.5 0 0 0-1 0h1zM21.615 0a.5.5 0 1 0-1 0h1zM11.008 0a.5.5 0 1 0-1 0h1zM.5 0a.5.5 0 0 0-1 0h1zm136 0c0 .784-.466 1.537-1.329 2.116-.862.577-2.075.946-3.425.946v1c1.52 0 2.934-.413 3.982-1.116 1.046-.702 1.772-1.73 1.772-2.946h-1zm-4.754 3.062c-1.373 0-2.585-.38-3.44-.963-.859-.585-1.315-1.338-1.315-2.099h-1c0 1.19.713 2.218 1.751 2.926 1.042.71 2.457 1.136 4.004 1.136v-1zM125.991 0c0 .784-.465 1.537-1.329 2.116-.861.577-2.075.946-3.425.946v1c1.521 0 2.934-.413 3.982-1.116 1.046-.702 1.772-1.73 1.772-2.946h-1zm-4.754 3.062c-1.372 0-2.585-.38-3.44-.963-.859-.585-1.314-1.338-1.314-2.099h-1c0 1.19.712 2.218 1.751 2.926 1.042.71 2.456 1.136 4.003 1.136v-1zM115.483 0c0 .784-.466 1.537-1.329 2.116-.862.577-2.075.946-3.425.946v1c1.52 0 2.934-.413 3.982-1.116 1.046-.702 1.772-1.73 1.772-2.946h-1zm-4.754 3.062c-1.373 0-2.585-.38-3.441-.963-.858-.585-1.314-1.338-1.314-2.099h-1c0 1.19.713 2.218 1.751 2.926 1.042.71 2.457 1.136 4.004 1.136v-1zM104.974 0c0 .784-.465 1.537-1.329 2.116-.861.577-2.075.946-3.425.946v1c1.521 0 2.934-.413 3.982-1.116 1.046-.702 1.772-1.73 1.772-2.946h-1zm-4.754 3.062c-1.372 0-2.585-.38-3.44-.963C95.921 1.514 95.466.761 95.466 0h-1c0 1.19.712 2.218 1.75 2.926 1.043.71 2.457 1.136 4.004 1.136v-1zM94.466 0c0 .784-.466 1.537-1.33 2.116-.86.577-2.074.946-3.424.946v1c1.52 0 2.934-.413 3.982-1.116 1.046-.702 1.772-1.73 1.772-2.946h-1zm-4.754 3.062c-1.373 0-2.585-.38-3.44-.963-.86-.585-1.315-1.338-1.315-2.099h-1c0 1.19.713 2.218 1.751 2.926 1.042.71 2.457 1.136 4.004 1.136v-1zM83.957 0c0 .784-.465 1.537-1.329 2.116-.861.577-2.075.946-3.425.946v1c1.52 0 2.934-.413 3.982-1.116 1.046-.702 1.772-1.73 1.772-2.946h-1zm-4.754 3.062c-1.372 0-2.585-.38-3.44-.963C74.904 1.514 74.449.761 74.449 0h-1c0 1.19.712 2.218 1.75 2.926 1.043.71 2.457 1.136 4.004 1.136v-1zM73.45 0c0 .784-.466 1.537-1.33 2.116-.86.577-2.074.946-3.424.946v1c1.52 0 2.934-.413 3.982-1.116C73.724 2.244 74.45 1.216 74.45 0h-1zm-4.754 3.062c-1.373 0-2.585-.38-3.44-.963C64.394 1.514 63.94.761 63.94 0h-1c0 1.19.712 2.218 1.751 2.926 1.042.71 2.457 1.136 4.004 1.136v-1zM62.94 0c0 .784-.465 1.537-1.329 2.116-.861.577-2.075.946-3.425.946v1c1.52 0 2.934-.413 3.982-1.116C63.214 2.244 63.94 1.216 63.94 0h-1zm-4.754 3.062c-1.372 0-2.585-.38-3.44-.963C53.887 1.514 53.432.761 53.432 0h-1c0 1.19.712 2.218 1.75 2.926 1.043.71 2.457 1.136 4.004 1.136v-1zM52.432 0c0 .784-.466 1.537-1.33 2.116-.861.577-2.074.946-3.424.946v1c1.52 0 2.934-.413 3.982-1.116 1.046-.702 1.772-1.73 1.772-2.946h-1zm-4.754 3.062c-1.349 0-2.642-.38-3.584-.973C43.14 1.49 42.631.733 42.631 0h-1c0 1.219.83 2.243 1.93 2.936 1.114.7 2.595 1.126 4.117 1.126v-1zM41.63 0c0 .784-.465 1.537-1.329 2.116-.861.577-2.075.946-3.425.946v1c1.52 0 2.934-.413 3.982-1.116C41.904 2.244 42.63 1.216 42.63 0h-1zm-4.754 3.062c-1.347 0-2.56-.38-3.423-.963-.867-.589-1.33-1.342-1.33-2.099h-1c0 1.194.728 2.221 1.77 2.927 1.047.708 2.46 1.135 3.984 1.135v-1zM31.123 0c0 .784-.466 1.537-1.33 2.116-.86.577-2.074.946-3.424.946v1c1.52 0 2.934-.413 3.982-1.116 1.046-.702 1.772-1.73 1.772-2.946h-1zm-4.754 3.062c-1.347 0-2.56-.38-3.424-.963-.867-.588-1.33-1.342-1.33-2.099h-1c0 1.194.728 2.221 1.77 2.927 1.046.708 2.46 1.135 3.984 1.135v-1zM20.614 0c0 .784-.466 1.537-1.329 2.116-.861.577-2.075.946-3.425.946v1c1.52 0 2.934-.413 3.982-1.116 1.046-.702 1.772-1.73 1.772-2.946h-1zM15.86 3.062c-1.347 0-2.587-.38-3.477-.967C11.487 1.504 11.01.75 11.01 0h-1c0 1.203.762 2.229 1.823 2.93 1.07.706 2.505 1.132 4.028 1.132v-1zM10.01 0c0 .784-.466 1.537-1.33 2.116-.861.577-2.075.946-3.425.946v1c1.52 0 2.934-.413 3.982-1.116 1.046-.702 1.772-1.73 1.772-2.946h-1zM5.253 3.062c-1.346 0-2.56-.38-3.423-.963C.964 1.51.5.757.5 0h-1c0 1.194.728 2.221 1.77 2.927 1.047.708 2.46 1.135 3.984 1.135v-1z"/><path id="path2_stroke" d="M-.5 0v130.9h1V0h-1z"/><path id="path3_stroke" d="M31.915 0h.5a.5.5 0 0 0-.983-.128l.483.128zm0 120.166v.5a.5.5 0 0 0 .5-.5h-.5zm-31.915 0l-.483-.128a.5.5 0 0 0 .483.628v-.5zM31.415 0v120.166h1V0h-1zm.5 119.666H0v1h31.915v-1zm-31.432.629L32.398.128l-.967-.256L-.483 120.038l.966.257z"/><path id="path4_stroke" d="M0 0l.227-.446A.5.5 0 0 0-.5 0H0zm0 105.237h-.5a.5.5 0 0 0 .5.5v-.5zm50.937 0v.5a.5.5 0 0 0 .492-.413l-.492-.087zm-5.206-57.57l.463-.19a.427.427 0 0 0-.01-.022l-.453.211zM-.5 0v105.237h1V0h-1zM0 105.737h50.937v-1H0v1zm50.937-.5c.492.087.493.087.493.086v-.006l.004-.018.012-.07.044-.272c.039-.239.094-.592.16-1.049.13-.916.306-2.251.483-3.934.354-3.367.712-8.127.734-13.707.043-11.154-1.261-25.62-6.673-38.79l-.925.38c5.341 12.998 6.64 27.317 6.598 38.406a136.678 136.678 0 0 1-.728 13.606 103.86 103.86 0 0 1-.48 3.896 64.503 64.503 0 0 1-.2 1.298l-.01.066-.003.016-.001.004v.001l.492.087zm-4.753-57.782c-7.535-16.099-19.026-28.07-28.62-36.014a119.19 119.19 0 0 0-12.26-8.919A87.618 87.618 0 0 0 1.597.3 52.713 52.713 0 0 0 .229-.445H.227L0 0l-.227.446h.001a3.126 3.126 0 0 1 .083.043l.256.135c.226.121.56.303.992.546A86.629 86.629 0 0 1 4.77 3.368a118.204 118.204 0 0 1 12.155 8.843c9.524 7.885 20.9 19.746 28.353 35.667l.905-.423z"/><path id="path5_stroke" d="M60.216 2.293a.5.5 0 0 0 1 0h-1zm.5-2.293h.5a.5.5 0 0 0-.5-.5V0zM9.292 0v-.5a.5.5 0 0 0-.12.015l.12.485zM-.12 1.808a.5.5 0 0 0 .24.97l-.24-.97zm61.336.485V0h-1v2.293h1zm-.5-2.793H9.292v1h51.424v-1zM9.172-.485L-.12 1.808l.24.97L9.412.486l-.24-.97z"/></defs></svg>