<svg xmlns="http://www.w3.org/2000/svg" viewBox="0 0 149 149"><path d="M112.6 130.5c-1 0-2-.3-2.8-.9l-31.4-21.4-16.9 12.2c-2.2 1.6-5.3 1.1-6.9-1.1-.4-.5-.6-1-.8-1.6l-8.5-32.1L15.2 74c-2.6-1-3.8-3.9-2.8-6.4.5-1.3 1.5-2.3 2.8-2.8l115-45.8c.5-.2 1.1-.4 1.6-.4h.6c1.2.1 2.3.6 3.2 1.4l.3.3c.7.8 1.1 1.8 1.2 2.9v.8c0 .2 0 .4-.1.6l-19.4 102c-.6 2.2-2.6 3.9-5 3.9zM81.2 98.2l28 19 15.1-79.4-54.6 52.6L81 98.1c.1 0 .1.1.2.1zM57.9 94l3.7 14.2 8.1-5.8-10.6-7.2c-.5-.4-.9-.8-1.2-1.2zM30.6 69.2l20.8 8c1.5.6 2.6 1.8 3 3.4l2.6 10c.1-1.2.6-2.2 1.5-3.1l52-50.1-79.9 31.8z" fill="#fff"/></svg>