<svg width="26" height="16" xmlns="http://www.w3.org/2000/svg" xmlns:xlink="http://www.w3.org/1999/xlink"><g transform="translate(-29891 5007)"><use xlink:href="#path0_fill" transform="translate(29892 -5006)" fill="#FFF"/><mask id="a"><path fill="#fff" transform="translate(29892 -5006)" d="M-1-1h26v16H-1z"/><use xlink:href="#path0_fill" transform="translate(29892 -5006)"/></mask><g mask="url(#a)"><use xlink:href="#path1_stroke_2x" transform="translate(29892 -5006)" fill="#FFF"/></g></g><defs><path id="path0_fill" d="M22.789 14h-3.568a2.224 2.224 0 0 1-1.584-.656l-2.076-2.076a.915.915 0 0 0-1.56.646v.857A1.23 1.23 0 0 1 12.772 14H9.5C7.21 14 3.532 8.856.849 4.541A5.658 5.658 0 0 1 0 1.552v-.255C0 .582.582 0 1.297 0H4.5a.5.5 0 0 1 .446.274c.703 1.388 2.685 5.149 3.407 5.872.184.183.361.291.473.269A.313.313 0 0 0 9 6.324V2.527c0-.529-.206-1.025-.58-1.399L8.146.854A.499.499 0 0 1 8.5 0h4.406C13.509 0 14 .491 14 1.094v5.115c.277.128.773.274 1.165-.079.419-.38 1.464-2.463 2.66-5.308.21-.499.697-.822 1.241-.822h3.508C23.36 0 24 .64 24 1.427c0 .805-.277 1.595-.78 2.224L20 7.676v.618l3.644 3.644A1.206 1.206 0 1 1 22.789 14zm-7.875-4c.511 0 .992.199 1.354.561l2.076 2.076c.231.231.551.363.877.363h3.568a.199.199 0 0 0 .193-.129.2.2 0 0 0-.045-.228l-3.79-3.79A.496.496 0 0 1 19 8.5v-1c0-.114.039-.224.109-.313l3.33-4.162A2.562 2.562 0 0 0 23 1.427.427.427 0 0 0 22.573 1h-3.508a.344.344 0 0 0-.319.209c-.938 2.229-2.204 5.021-2.911 5.661-.927.839-2.122.391-2.623.038A.496.496 0 0 1 13 6.5V1.094A.094.094 0 0 0 12.906 1H9.581c.273.457.419.981.419 1.527V6.5c0 .091-.024.18-.071.257-.035.059-.361.575-.977.65-.44.056-.883-.131-1.306-.554-.869-.869-2.867-4.709-3.453-5.854H1.297A.3.3 0 0 0 1 1.297v.255c0 .874.242 1.725.699 2.461C5.145 9.556 8.134 13 9.5 13h3.271a.23.23 0 0 0 .229-.229v-.857c0-1.055.859-1.914 1.914-1.914z"/><path id="path1_stroke_2x" d="M17.637 13.344l-.212.212.212-.212zm-2.076-2.076l.212-.212-.212.212zM.849 4.541l-.255.158.255-.158zM4.946.274l-.268.135.268-.135zm3.407 5.872l-.212.212.212-.212zm.473.269l-.027-.299-.016.002-.015.003.058.294zM9 6.324l.205.22.095-.09v-.13H9zm-.58-5.196l.212-.212-.212.212zM8.146.854l-.212.212.212-.212zM8.038.309l.277.115-.277-.115zM14 6.209h-.3v.192l.174.08L14 6.21zm1.165-.079l.2.223h.002l-.202-.223zm2.66-5.308l-.276-.116.276.116zm5.395 2.829l.234.187-.234-.187zM20 7.676l-.234-.187-.066.082v.105h.3zm0 .618h-.3v.124l.088.088.212-.212zm3.906 4.961l.277.115-.277-.115zm-.969-.612l.212-.212-.212.212zm-3.79-3.79l.212-.212-.001-.001-.211.213zm-.038-1.666L18.875 7l-.002.002.236.185zm3.33-4.162l-.234-.188.234.188zm-3.693-1.816l.277.116-.277-.116zM15.835 6.87l.201.222-.201-.222zm-2.623.038l.173-.245-.002-.002-.171.247zM9.581 1V.7h-.529l.271.454L9.581 1zm.348 5.757l-.256-.156-.002.003.258.153zm-.977.65l-.036-.298h-.002l.038.298zM4.193.999L4.46.862 4.376.7h-.183V1zm-2.896 0v-.3h-.002l.002.3zm.402 3.014l-.255.158.255-.158zm21.09 9.687h-3.568v.6h3.568v-.6zm-3.568 0c-.52 0-1.005-.201-1.372-.568l-.424.424c.48.48 1.117.744 1.796.744v-.6zm-1.372-.568l-2.076-2.076-.424.424 2.076 2.076.424-.424zm-2.076-2.076a1.221 1.221 0 0 0-.858-.356v.6c.16 0 .32.066.434.18l.424-.424zm-.858-.356c-.67 0-1.214.544-1.214 1.214h.6c0-.338.276-.614.614-.614v-.6zm-1.214 1.214v.857h.6v-.857h-.6zm0 .857a.93.93 0 0 1-.929.929v.6a1.53 1.53 0 0 0 1.529-1.529h-.6zm-.929.929H9.5v.6h3.272v-.6zm-3.272 0c-.47 0-1.062-.27-1.757-.808-.692-.537-1.428-1.292-2.192-2.197-1.53-1.812-3.109-4.16-4.447-6.312l-.51.316c1.345 2.162 2.947 4.545 4.499 6.383.777.92 1.558 1.72 2.283 2.284.723.56 1.449.934 2.124.934v-.6zM1.104 4.383A5.235 5.235 0 0 1 .3 1.552h-.6a6.087 6.087 0 0 0 .894 3.147l.51-.316zM.3 1.552v-.255h-.6v.255h.6zm0-.255C.3.747.748.3 1.297.3v-.6C.417-.3-.3.416-.3 1.297h.6zM1.297.3H4.5v-.6H1.297v.6zM4.5.3a.2.2 0 0 1 .178.11l.536-.271A.8.8 0 0 0 4.5-.3v.6zm.178.11a96.427 96.427 0 0 0 1.703 3.196c.338.604.679 1.192.98 1.672.296.473.572.872.78 1.08l.424-.424c-.153-.153-.396-.496-.696-.975a39.805 39.805 0 0 1-.965-1.646A95.501 95.501 0 0 1 5.214.138L4.678.41zm3.463 5.949c.104.102.224.199.325.258.099.057.252.125.418.092l-.116-.588c.032-.007.049 0 .044-.002a.22.22 0 0 1-.045-.021 1.071 1.071 0 0 1-.202-.165l-.424.426zm.712.355a.61.61 0 0 0 .352-.17l-.41-.44a.174.174 0 0 1-.022.018l.004-.001a.094.094 0 0 1 .022-.005l.054.598zm.447-.39V2.527h-.6v3.797h.6zm0-3.797c0-.609-.238-1.181-.668-1.611l-.424.424c.318.318.492.738.492 1.187h.6zM8.632.916L8.358.642l-.424.424.274.274.424-.424zM8.358.642a.199.199 0 0 1-.043-.218L7.76.194a.799.799 0 0 0 .173.872l.424-.424zM8.315.423A.2.2 0 0 1 8.5.3v-.6a.8.8 0 0 0-.74.495l.555.228zM8.5.3h4.406v-.6H8.5v.6zm4.406 0c.437 0 .794.357.794.794h.6C14.3.325 13.675-.3 12.906-.3v.6zm.794.794v5.115h.6V1.094h-.6zm.174 5.387c.292.135.953.357 1.492-.128l-.402-.446c-.245.22-.576.15-.838.03l-.252.544zm1.492-.129c.142-.128.306-.366.48-.657.18-.3.392-.694.626-1.16.465-.93 1.03-2.17 1.63-3.597l-.554-.232a60.913 60.913 0 0 1-1.613 3.56c-.23.458-.431.833-.603 1.12-.177.295-.3.46-.369.522l.404.444zM18.102.938c.163-.387.54-.638.964-.638v-.6c-.664 0-1.26.395-1.517 1.006l.553.232zM19.066.3h3.508v-.6h-3.508v.6zm3.508 0c.62 0 1.126.506 1.126 1.127h.6C24.3.474 23.526-.3 22.574-.3v.6zM23.7 1.427a3.16 3.16 0 0 1-.714 2.037l.468.374a4.004 4.004 0 0 0 .846-2.411h-.6zm-.714 2.037l-3.22 4.025.468.374 3.22-4.025-.468-.374zM19.7 7.676v.618h.6v-.618h-.6zm.088.83l3.644 3.644.424-.424-3.644-3.644-.424.424zm3.644 3.644c.261.261.338.65.197.99l.554.23a1.504 1.504 0 0 0-.327-1.644l-.424.424zm.197.99a.906.906 0 0 1-.84.56v.6c.612 0 1.16-.366 1.394-.93l-.554-.23zm-8.715-2.84c.431 0 .836.167 1.142.473l.424-.424a2.202 2.202 0 0 0-1.566-.649v.6zm1.142.473l2.076 2.076.424-.424-2.076-2.076-.424.424zm2.076 2.076c.287.288.684.451 1.089.451v-.6a.95.95 0 0 1-.665-.275l-.424.424zm1.089.451h3.568v-.6h-3.568v.6zm3.568 0a.498.498 0 0 0 .47-.314l-.554-.23a.08.08 0 0 1 .023-.03.115.115 0 0 1 .034-.02.08.08 0 0 1 .027-.006v.6zm.47-.314a.499.499 0 0 0-.11-.555l-.424.424a.078.078 0 0 1-.015-.023.113.113 0 0 1-.01-.039c-.002-.021.004-.034.005-.037l.554.23zm-.11-.555l-3.79-3.79-.424.424 3.79 3.79.424-.424zM19.358 8.64a.196.196 0 0 1-.058-.14h-.6c0 .213.085.417.236.566l.422-.426zM19.3 8.5v-1h-.6v1h.6zm0-1c-.004-.063.002-.08.045-.128l-.472-.37a.955.955 0 0 0-.173.498h.6zm.043-.126l3.33-4.162-.468-.374L18.875 7l.468.374zm3.33-4.161c.39-.493.623-1.157.627-1.786h-.6a2.144 2.144 0 0 1-.495 1.41l.468.376zm.627-1.786c0-.4-.325-.727-.727-.727v.6c.07 0 .127.057.127.127h.6zM22.573.7h-3.508v.6h3.508V.7zm-3.508 0a.644.644 0 0 0-.596.393l.554.232c.005-.012.019-.025.042-.025V.7zm-.596.393a64.743 64.743 0 0 1-1.534 3.41c-.26.524-.507.992-.736 1.371-.231.385-.424.646-.565.774l.402.444c.212-.192.443-.52.677-.908.237-.394.497-.884.76-1.416a65.605 65.605 0 0 0 1.55-3.443l-.553-.232zm-2.835 5.555c-.388.35-.828.434-1.238.39a2.136 2.136 0 0 1-1.011-.375l-.346.49c.273.19.766.42 1.293.481a2.128 2.128 0 0 0 1.704-.542l-.402-.444zm-2.251.013A.196.196 0 0 1 13.3 6.5h-.6c0 .26.126.506.341.655l.342-.494zM13.3 6.5V1.094h-.6V6.5h.6zm0-5.406A.394.394 0 0 0 12.906.7v.6a.206.206 0 0 1-.206-.206h.6zM12.906.7H9.581v.6h3.325V.7zm-3.583.454c.255.421.38.868.377 1.373h.6a3.4 3.4 0 0 0-.461-1.68l-.516.307zM9.7 2.527V6.5h.6V2.527h-.6zm0 3.973c.003.052 0 .062-.027.1l.512.313A.946.946 0 0 0 10.3 6.5h-.6zm-.029.104c-.027.046-.288.448-.755.505l.072.596c.765-.093 1.156-.723 1.199-.795l-.516-.306zm-.757.505c-.319.041-.674-.087-1.056-.468l-.424.424c.464.465.995.711 1.556.64l-.076-.596zm-1.056-.468c-.191-.192-.464-.569-.783-1.07a36.87 36.87 0 0 1-1-1.689A92.84 92.84 0 0 1 4.46.862l-.534.274a92.89 92.89 0 0 0 1.626 3.04c.342.609.696 1.213 1.017 1.718.319.5.622.928.865 1.171l.424-.424zM4.193.699H1.297v.6h2.896v-.6zm-2.898 0a.6.6 0 0 0-.595.598h.6v.002h-.001l-.004-.6zM.7 1.297v.255h.6v-.255H.7zm0 .255a5.09 5.09 0 0 0 .744 2.62l.51-.317A4.238 4.238 0 0 1 1.3 1.552H.7zm.744 2.62c1.729 2.78 3.351 5.045 4.709 6.61.682.785 1.312 1.41 1.852 1.83.534.415 1.046.688 1.495.688v-.6c-.234 0-.608-.158-1.126-.561-.513-.399-1.101-.982-1.768-1.75-1.34-1.544-2.935-3.771-4.652-6.534l-.51.316zM9.5 13.3h3.271v-.6H9.5v.6zm3.271 0a.53.53 0 0 0 .529-.529h-.6a.07.07 0 0 1 .071-.071v.6zm.529-.529v-.857h-.6v.857h.6zm0-.857c0-.89.725-1.614 1.614-1.614v-.6c-1.22 0-2.214.993-2.214 2.214h.6z"/></defs></svg>