<svg width="195" height="7" xmlns="http://www.w3.org/2000/svg" xmlns:xlink="http://www.w3.org/1999/xlink"><use xlink:href="#path0_stroke" transform="translate(1.1)" fill="#0D918B"/><use xlink:href="#path1_stroke" transform="translate(25.2)" fill="#0D918B"/><use xlink:href="#path2_stroke" transform="translate(49.3)" fill="#0D918B"/><use xlink:href="#path2_stroke" transform="translate(73.4)" fill="#0D918B"/><use xlink:href="#path2_stroke" transform="translate(97.5)" fill="#0D918B"/><use xlink:href="#path2_stroke" transform="translate(121.6)" fill="#0D918B"/><use xlink:href="#path2_stroke" transform="translate(145.7)" fill="#0D918B"/><use xlink:href="#path3_stroke" transform="translate(169.8)" fill="#0D918B"/><defs><path id="path0_stroke" d="M23.1 0c0 1.054-.895 2.297-2.972 3.336C18.114 4.343 15.261 5 12.05 5v2c3.457 0 6.628-.703 8.973-1.876C23.303 3.984 25.1 2.226 25.1 0h-2zM12.05 5c-3.211 0-6.064-.657-8.078-1.664C1.895 2.296 1 1.054 1 0h-2C-1 2.226.796 3.983 3.077 5.124 5.422 6.297 8.593 7 12.05 7V5z"/><path id="path1_stroke" d="M23.1 0c0 1.054-.895 2.297-2.972 3.336C18.114 4.343 15.261 5 12.05 5v2c3.457 0 6.628-.703 8.973-1.876C23.303 3.984 25.1 2.226 25.1 0h-2zM12.05 5c-3.211 0-6.064-.657-8.078-1.664C1.895 2.296 1 1.054 1 0h-2C-1 2.226.796 3.983 3.077 5.124 5.422 6.297 8.593 7 12.05 7V5z"/><path id="path2_stroke" d="M23.1 0c0 1.054-.895 2.297-2.972 3.336C18.114 4.343 15.261 5 12.05 5v2c3.457 0 6.628-.703 8.973-1.876C23.303 3.984 25.1 2.226 25.1 0h-2zM12.05 5c-3.211 0-6.064-.657-8.078-1.664C1.895 2.296 1 1.054 1 0h-2C-1 2.226.796 3.983 3.077 5.124 5.422 6.297 8.593 7 12.05 7V5z"/><path id="path3_stroke" d="M23.1 0c0 1.054-.895 2.297-2.972 3.336C18.114 4.343 15.261 5 12.05 5v2c3.457 0 6.628-.703 8.973-1.876C23.303 3.984 25.1 2.226 25.1 0h-2zM12.05 5c-3.211 0-6.064-.657-8.078-1.664C1.895 2.296 1 1.054 1 0h-2C-1 2.226.796 3.983 3.077 5.124 5.422 6.297 8.593 7 12.05 7V5z"/></defs></svg>