<svg xmlns="http://www.w3.org/2000/svg" width="1440" height="15" viewBox="0 0 2270.66 23.06" shape-rendering="geometricPrecision" text-rendering="geometricPrecision" image-rendering="optimizeQuality" fill-rule="evenodd" clip-rule="evenodd"><path d="M0 22.17L.09.11l23.12 4.18C34.45 4.29 34.45 0 45.68 0c11.24 0 11.24 4.29 22.48 4.29C79.39 4.29 79.39 0 90.63 0c11.24 0 11.24 4.29 22.47 4.29 11.24 0 11.24-4.29 22.47-4.29 11.24 0 11.24 4.29 22.48 4.29 11.23 0 11.23-4.29 22.47-4.29 11.24 0 11.24 4.29 22.47 4.29 11.24 0 11.24-4.29 22.48-4.29 11.23 0 11.23 4.29 22.47 4.29 11.23 0 11.23-4.29 22.47-4.29 11.24 0 11.24 4.29 22.47 4.29 11.24 0 11.24-4.29 22.48-4.29 11.23 0 11.23 4.29 22.47 4.29C349.07 4.29 349.07 0 360.3 0c11.24 0 11.24 4.29 22.48 4.29 11.23 0 11.23-4.29 22.47-4.29 11.23 0 11.23 4.29 22.47 4.29 11.24 0 11.24-4.29 22.47-4.29 11.24 0 11.24 4.29 22.48 4.29C483.9 4.29 483.9 0 495.14 0c11.24 0 11.24 4.29 22.47 4.29 11.24 0 11.24-4.29 22.48-4.29 11.23 0 11.23 4.29 22.47 4.29 11.23 0 11.23-4.29 22.47-4.29 11.24 0 11.24 4.29 22.47 4.29 11.24 0 11.24-4.29 22.48-4.29 11.23 0 11.23 4.29 22.47 4.29 11.24 0 11.24-4.29 22.47-4.29 11.24 0 11.24 4.29 22.47 4.29 11.24 0 11.24-4.29 22.48-4.29 11.23 0 11.23 4.29 22.47 4.29 11.24 0 11.24-4.29 22.47-4.29 11.24 0 11.24 4.29 22.48 4.29 11.23 0 11.23-4.29 22.47-4.29C821 0 821 4.29 832.23 4.29 843.47 4.29 843.47 0 854.7 0c11.24 0 11.24 4.29 22.48 4.29 11.23 0 11.23-4.29 22.47-4.29 11.24 0 11.24 4.29 22.47 4.29C933.36 4.29 933.36 0 944.6 0c11.23 0 11.23 4.29 22.47 4.29C978.3 4.29 978.3 0 989.54 0c11.24 0 11.24 4.29 22.47 4.29 11.24 0 11.24-4.29 22.48-4.29 11.23 0 11.23 4.29 22.47 4.29 11.24 0 11.24-4.29 22.48-4.29 11.22 0 11.22 4.29 22.46 4.29S1113.14 0 1124.37 0c11.24 0 11.24 4.29 22.48 4.29 11.23 0 11.23-4.29 22.47-4.29 11.24 0 11.24 4.29 22.47 4.29 11.24 0 11.24-4.29 22.48-4.29 11.23 0 11.23 4.29 22.47 4.29 11.24 0 11.24-4.29 22.47-4.29 11.24 0 11.24 4.29 22.48 4.29 11.23 0 11.23-4.29 22.47-4.29 11.24 0 11.24 4.29 22.47 4.29 11.24 0 11.24-4.29 22.48-4.29 11.23 0 11.23 4.29 22.47 4.29 11.24 0 11.24-4.29 22.47-4.29 11.24 0 11.24 4.29 22.48 4.29 11.23 0 11.23-4.29 22.47-4.29 11.24 0 11.24 4.29 22.47 4.29 11.24 0 11.24-4.29 22.47-4.29 11.24 0 11.24 4.29 22.48 4.29 11.23 0 11.23-4.29 22.47-4.29 11.24 0 11.24 4.29 22.47 4.29 11.24 0 11.24-4.29 22.48-4.29 11.23 0 11.23 4.29 22.47 4.29 11.24 0 11.24-4.29 22.47-4.29 11.24 0 11.24 4.29 22.48 4.29 11.23 0 11.23-4.29 22.47-4.29 11.24 0 11.24 4.29 22.47 4.29 11.24 0 11.24-4.29 22.48-4.29 11.23 0 11.23 4.29 22.47 4.29 11.24 0 11.24-4.29 22.47-4.29 11.24 0 11.24 4.29 22.48 4.29 11.23 0 11.23-4.29 22.47-4.29 11.24 0 11.24 4.29 22.46 4.29 11.24 0 11.24-4.29 22.47-4.29 11.24 0 11.24 4.29 22.48 4.29 11.23 0 11.23-4.29 22.47-4.29 11.24 0 11.24 4.29 22.47 4.29 11.24 0 11.24-4.29 22.48-4.29 11.23 0 11.23 4.29 22.47 4.29 11.24 0 11.24-4.29 22.47-4.29 11.24 0 11.24 4.29 22.48 4.29 11.23 0 11.23-4.29 22.47-4.29 11.24 0 11.24 4.29 22.47 4.29C2057 4.29 2057 0 2068.34 0c11.24 0 11.24 4.29 22.48 4.29 11.23 0 11.23-4.29 22.47-4.29 11.24 0 11.24 4.29 22.47 4.29C2147 4.29 2147 0 2158.34 0c11.24 0 11.24 4.29 22.59 4.29 11.23 0 11.23-4.29 22.58-4.29 11.23 0 11.23 4.29 22.58 4.29 11.23 0 11.23-4.29 22.58-4.29l21.93 4.18.05 5.04.01 6.87-.02 6.97L0 22.17z" fill="#ebf5f4"/></svg>