<svg width="21" height="21" xmlns="http://www.w3.org/2000/svg" xmlns:xlink="http://www.w3.org/1999/xlink"><g transform="translate(-29831 5009)"><use xlink:href="#path0_fill" transform="translate(29832 -5008)" fill="#FFF"/><mask id="a"><path fill="#fff" transform="translate(29832 -5008)" d="M-1-1h21v21H-1z"/><use xlink:href="#path0_fill" transform="translate(29832 -5008)"/></mask><g mask="url(#a)"><use xlink:href="#path1_stroke_2x" transform="translate(29832 -5008)" fill="#FFF"/></g></g><defs><path id="path0_fill" d="M17.417 0H1.583C.713 0 0 .713 0 1.583v15.834C0 18.287.713 19 1.583 19h15.834c.87 0 1.583-.713 1.583-1.583V1.583C19 .713 18.287 0 17.417 0zm0 17.417h-6.334v-6.334h3.959V9.5h-3.959V7.917a2.375 2.375 0 0 1 2.375-2.375h1.584V3.958h-1.584A3.959 3.959 0 0 0 9.5 7.917V9.5H7.917v1.583H9.5v6.334H1.583V1.583h15.834v15.834z"/><path id="path1_stroke_2x" d="M17.417 17.417v.1h.1v-.1h-.1zm-6.334 0h-.1v.1h.1v-.1zm0-6.334v-.1h-.1v.1h.1zm3.959 0v.1h.1v-.1h-.1zm0-1.583h.1v-.1h-.1v.1zm-3.959 0h-.1v.1h.1v-.1zm3.959-3.958v.1h.1v-.1h-.1zm0-1.584h.1v-.1h-.1v.1zm-1.584 0v-.1.1zM9.5 9.5v.1h.1v-.1h-.1zm-1.583 0v-.1h-.1v.1h.1zm0 1.583h-.1v.1h.1v-.1zm1.583 0h.1v-.1h-.1v.1zm0 6.334v.1h.1v-.1h-.1zm-7.917 0h-.1v.1h.1v-.1zm0-15.834v-.1h-.1v.1h.1zm15.834 0h.1v-.1h-.1v.1zm0-1.683H1.583v.2h15.834v-.2zM1.583-.1C.658-.1-.1.658-.1 1.583h.2C.1.768.768.1 1.583.1v-.2zM-.1 1.583v15.834h.2V1.583h-.2zm0 15.834c0 .925.758 1.683 1.683 1.683v-.2A1.488 1.488 0 0 1 .1 17.417h-.2zM1.583 19.1h15.834v-.2H1.583v.2zm15.834 0c.925 0 1.683-.758 1.683-1.683h-.2c0 .815-.668 1.483-1.483 1.483v.2zm1.683-1.683V1.583h-.2v15.834h.2zm0-15.834C19.1.658 18.342-.1 17.417-.1v.2c.815 0 1.483.668 1.483 1.483h.2zm-1.683 15.734h-6.334v.2h6.334v-.2zm-6.234.1v-6.334h-.2v6.334h.2zm-.1-6.234h3.959v-.2h-3.959v.2zm4.059-.1V9.5h-.2v1.583h.2zm-.1-1.683h-3.959v.2h3.959v-.2zm-3.859.1V7.917h-.2V9.5h.2zm0-1.583a2.275 2.275 0 0 1 2.275-2.275v-.2a2.475 2.475 0 0 0-2.475 2.475h.2zm2.275-2.275h1.584v-.2h-1.584v.2zm1.684-.1V3.958h-.2v1.584h.2zm-.1-1.684h-1.584v.2h1.584v-.2zm-1.584 0A4.059 4.059 0 0 0 9.4 7.917h.2a3.859 3.859 0 0 1 3.858-3.859v-.2zM9.4 7.917V9.5h.2V7.917h-.2zM9.5 9.4H7.917v.2H9.5v-.2zm-1.683.1v1.583h.2V9.5h-.2zm.1 1.683H9.5v-.2H7.917v.2zm1.483-.1v6.334h.2v-6.334h-.2zm.1 6.234H1.583v.2H9.5v-.2zm-7.817.1V1.583h-.2v15.834h.2zm-.1-15.734h15.834v-.2H1.583v.2zm15.734-.1v15.834h.2V1.583h-.2z"/></defs></svg>