<svg width="18" height="18" xmlns="http://www.w3.org/2000/svg" xmlns:xlink="http://www.w3.org/1999/xlink"><use xlink:href="#path0_fill" fill="#FFF"/><use xlink:href="#path1_fill" transform="translate(12.8 3)" fill="#FFF"/><use xlink:href="#path2_fill" transform="translate(4.5 4.5)" fill="#FFF"/><defs><path id="path0_fill" d="M13.5 0h-9A4.513 4.513 0 0 0 0 4.5v9C0 15.974 2.025 18 4.5 18h9c2.475 0 4.5-2.026 4.5-4.5v-9C18 2.025 15.975 0 13.5 0zm3 13.5c0 1.654-1.345 3-3 3h-9c-1.654 0-3-1.346-3-3v-9c0-1.654 1.346-3 3-3h9c1.655 0 3 1.346 3 3v9z"/><path id="path1_fill" d="M1.125 2.25a1.125 1.125 0 1 0 0-2.25 1.125 1.125 0 0 0 0 2.25z"/><path id="path2_fill" d="M4.5 0a4.5 4.5 0 1 0 0 9 4.5 4.5 0 0 0 0-9zm0 7.5a3 3 0 1 1 0-6 3 3 0 0 1 0 6z"/></defs></svg>