<svg xmlns="http://www.w3.org/2000/svg" x="0px" y="0px"
width="100" height="100"
viewBox="0 0 192 192"
style=" fill:#000000;"><g fill="none" fill-rule="nonzero" stroke="none" stroke-width="1" stroke-linecap="butt" stroke-linejoin="miter" stroke-miterlimit="10" stroke-dasharray="" stroke-dashoffset="0" font-family="none" font-weight="none" font-size="none" text-anchor="none" style="mix-blend-mode: normal"><path d="M0,192.00002v-192.00002h192.00002v192.00002z" fill="none"></path><g fill="#1abc9c"><path d="M34.56,15.36c-10.54255,0 -19.2,8.65745 -19.2,19.2v122.88c0,10.54255 8.65745,19.2 19.2,19.2h122.88c10.54255,0 19.2,-8.65745 19.2,-19.2v-122.88c0,-10.54255 -8.65745,-19.2 -19.2,-19.2zM34.56,23.04h122.88c6.35345,0 11.52,5.16655 11.52,11.52v122.88c0,6.35345 -5.16655,11.52 -11.52,11.52h-122.88c-6.35345,0 -11.52,-5.16655 -11.52,-11.52v-122.88c0,-6.35345 5.16655,-11.52 11.52,-11.52zM65.28,53.76v84.48h15.36v-30.72h30.72c12.70656,0 23.04,-10.33344 23.04,-23.04v-7.68c0,-12.70656 -10.33344,-23.04 -23.04,-23.04h-30.72h-7.68zM80.64,69.12h30.72c4.23552,0 7.68,3.44448 7.68,7.68v7.68c0,4.23552 -3.44448,7.68 -7.68,7.68h-30.72z"></path></g></g></svg>
